%TF.GenerationSoftware,KiCad,Pcbnew,10.0.3*%
%TF.CreationDate,2026-09-23T19:52:52+03:00*%
%TF.ProjectId,FirstPCB,46697273-7450-4434-922e-6b696361645f,rev?*%
%TF.SameCoordinates,Original*%
%TF.FileFunction,Copper,L1,Top*%
%TF.FilePolarity,Positive*%
%FSLAX46Y46*%
G04 Gerber Fmt 4.6, Leading zero omitted, Abs format (unit mm)*
G04 Created by KiCad (PCBNEW 10.0.3) date 2026-09-23 19:52:52*
%MOMM*%
%LPD*%
G01*
G04 APERTURE LIST*
G04 Aperture macros list*
%AMRoundRect*
0 Rectangle with rounded corners*
0 $1 Rounding radius*
0 $2 $3 $4 $5 $6 $7 $8 $9 X,Y pos of 4 corners*
0 Add a 4 corners polygon primitive as box body*
4,1,4,$2,$3,$4,$5,$6,$7,$8,$9,$2,$3,0*
0 Add four circle primitives for the rounded corners*
1,1,$1+$1,$2,$3*
1,1,$1+$1,$4,$5*
1,1,$1+$1,$6,$7*
1,1,$1+$1,$8,$9*
0 Add four rect primitives between the rounded corners*
20,1,$1+$1,$2,$3,$4,$5,0*
20,1,$1+$1,$4,$5,$6,$7,0*
20,1,$1+$1,$6,$7,$8,$9,0*
20,1,$1+$1,$8,$9,$2,$3,0*%
G04 Aperture macros list end*
%TA.AperFunction,SMDPad,CuDef*%
%ADD10R,1.390000X0.910000*%
%TD*%
%TA.AperFunction,ComponentPad*%
%ADD11R,1.700000X1.700000*%
%TD*%
%TA.AperFunction,ComponentPad*%
%ADD12C,1.700000*%
%TD*%
%TA.AperFunction,SMDPad,CuDef*%
%ADD13RoundRect,0.250000X0.262500X0.450000X-0.262500X0.450000X-0.262500X-0.450000X0.262500X-0.450000X0*%
%TD*%
%TA.AperFunction,SMDPad,CuDef*%
%ADD14RoundRect,0.250000X0.450000X-0.262500X0.450000X0.262500X-0.450000X0.262500X-0.450000X-0.262500X0*%
%TD*%
%TA.AperFunction,SMDPad,CuDef*%
%ADD15RoundRect,0.125000X0.625000X-0.125000X0.625000X0.125000X-0.625000X0.125000X-0.625000X-0.125000X0*%
%TD*%
%TA.AperFunction,SMDPad,CuDef*%
%ADD16RoundRect,0.125000X0.125000X-0.625000X0.125000X0.625000X-0.125000X0.625000X-0.125000X-0.625000X0*%
%TD*%
%TA.AperFunction,SMDPad,CuDef*%
%ADD17R,3.200000X1.000000*%
%TD*%
%TA.AperFunction,SMDPad,CuDef*%
%ADD18RoundRect,0.250000X-0.262500X-0.450000X0.262500X-0.450000X0.262500X0.450000X-0.262500X0.450000X0*%
%TD*%
%TA.AperFunction,SMDPad,CuDef*%
%ADD19RoundRect,0.135000X-0.575000X0.405000X-0.575000X-0.405000X0.575000X-0.405000X0.575000X0.405000X0*%
%TD*%
%TA.AperFunction,SMDPad,CuDef*%
%ADD20R,0.910000X1.390000*%
%TD*%
%TA.AperFunction,SMDPad,CuDef*%
%ADD21R,0.400000X0.800000*%
%TD*%
%TA.AperFunction,SMDPad,CuDef*%
%ADD22R,1.700000X0.800000*%
%TD*%
%TA.AperFunction,SMDPad,CuDef*%
%ADD23R,0.940000X1.430000*%
%TD*%
%TA.AperFunction,SMDPad,CuDef*%
%ADD24RoundRect,0.175000X0.425000X-0.175000X0.425000X0.175000X-0.425000X0.175000X-0.425000X-0.175000X0*%
%TD*%
%TA.AperFunction,SMDPad,CuDef*%
%ADD25RoundRect,0.190000X-0.410000X0.190000X-0.410000X-0.190000X0.410000X-0.190000X0.410000X0.190000X0*%
%TD*%
%TA.AperFunction,SMDPad,CuDef*%
%ADD26RoundRect,0.200000X-0.400000X0.200000X-0.400000X-0.200000X0.400000X-0.200000X0.400000X0.200000X0*%
%TD*%
%TA.AperFunction,SMDPad,CuDef*%
%ADD27RoundRect,0.175000X-0.425000X0.175000X-0.425000X-0.175000X0.425000X-0.175000X0.425000X0.175000X0*%
%TD*%
%TA.AperFunction,SMDPad,CuDef*%
%ADD28RoundRect,0.190000X0.410000X-0.190000X0.410000X0.190000X-0.410000X0.190000X-0.410000X-0.190000X0*%
%TD*%
%TA.AperFunction,SMDPad,CuDef*%
%ADD29RoundRect,0.200000X0.400000X-0.200000X0.400000X0.200000X-0.400000X0.200000X-0.400000X-0.200000X0*%
%TD*%
%TA.AperFunction,SMDPad,CuDef*%
%ADD30RoundRect,0.250000X0.425000X-0.650000X0.425000X0.650000X-0.425000X0.650000X-0.425000X-0.650000X0*%
%TD*%
%TA.AperFunction,SMDPad,CuDef*%
%ADD31RoundRect,0.250000X0.500000X-0.650000X0.500000X0.650000X-0.500000X0.650000X-0.500000X-0.650000X0*%
%TD*%
%TA.AperFunction,SMDPad,CuDef*%
%ADD32RoundRect,0.135000X0.575000X-0.405000X0.575000X0.405000X-0.575000X0.405000X-0.575000X-0.405000X0*%
%TD*%
%TA.AperFunction,SMDPad,CuDef*%
%ADD33R,1.050000X1.720000*%
%TD*%
%TA.AperFunction,SMDPad,CuDef*%
%ADD34RoundRect,0.250000X-0.450000X0.262500X-0.450000X-0.262500X0.450000X-0.262500X0.450000X0.262500X0*%
%TD*%
%TA.AperFunction,SMDPad,CuDef*%
%ADD35RoundRect,0.375000X0.625000X0.375000X-0.625000X0.375000X-0.625000X-0.375000X0.625000X-0.375000X0*%
%TD*%
%TA.AperFunction,SMDPad,CuDef*%
%ADD36RoundRect,0.500000X0.500000X1.400000X-0.500000X1.400000X-0.500000X-1.400000X0.500000X-1.400000X0*%
%TD*%
%TA.AperFunction,ViaPad*%
%ADD37C,0.600000*%
%TD*%
%TA.AperFunction,Conductor*%
%ADD38C,0.200000*%
%TD*%
%TA.AperFunction,Conductor*%
%ADD39C,0.400000*%
%TD*%
G04 APERTURE END LIST*
D10*
%TO.P,C4,2,2_2*%
%TO.N,GND*%
X153000000Y-165860000D03*
%TO.P,C4,1,1_1*%
%TO.N,/NRST*%
X153000000Y-167500000D03*
%TD*%
D11*
%TO.P,J4,1,Pin_1_1*%
%TO.N,/ADC_IN_5*%
X156000000Y-133190000D03*
D12*
%TO.P,J4,2,Pin_2_2*%
%TO.N,/ADC_IN_4*%
X156000000Y-135730000D03*
%TO.P,J4,3,Pin_3_3*%
%TO.N,/UART_RX*%
X156000000Y-138270000D03*
%TO.P,J4,4,Pin_4_4*%
%TO.N,/UART_TX*%
X156000000Y-140810000D03*
%TD*%
D11*
%TO.P,J3,1,Pin_1_1*%
%TO.N,/SW_DIO*%
X122500000Y-133000000D03*
D12*
%TO.P,J3,2,Pin_2_2*%
%TO.N,/SW_CLK*%
X122500000Y-135540000D03*
%TO.P,J3,3,Pin_3_3*%
%TO.N,+3.3V*%
X122500000Y-138080000D03*
%TO.P,J3,4,Pin_4_4*%
%TO.N,GND*%
X122500000Y-140620000D03*
%TD*%
D13*
%TO.P,R1,2*%
%TO.N,/BUTTON_CHANGE*%
X125175000Y-161500000D03*
%TO.P,R1,1*%
%TO.N,+3.3V*%
X127000000Y-161500000D03*
%TD*%
%TO.P,R4,2*%
%TO.N,Net-(J1-Pin_1)*%
X149000000Y-164500000D03*
%TO.P,R4,1*%
%TO.N,GND*%
X150825000Y-164500000D03*
%TD*%
D11*
%TO.P,J1,1,Pin_1_1*%
%TO.N,Net-(J1-Pin_1)*%
X148040000Y-161500000D03*
D12*
%TO.P,J1,2,Pin_2_2*%
%TO.N,/DISP_SCK*%
X145500000Y-161500000D03*
%TO.P,J1,3,Pin_3_3*%
%TO.N,/DISP_MOSI*%
X142960000Y-161500000D03*
%TO.P,J1,4,Pin_4_4*%
%TO.N,/DISP_DC*%
X140420000Y-161500000D03*
%TO.P,J1,5,Pin_5_5*%
%TO.N,/DISP_RES*%
X137880000Y-161500000D03*
%TO.P,J1,6,Pin_6_6*%
%TO.N,/DISP_CS*%
X135340000Y-161500000D03*
%TO.P,J1,7,Pin_7_7*%
%TO.N,GND*%
X132800000Y-161500000D03*
%TO.P,J1,8,Pin_8_8*%
%TO.N,+3.3V*%
X130260000Y-161500000D03*
%TD*%
D14*
%TO.P,R8,2*%
%TO.N,Net-(USB1-CC1)*%
X150500000Y-154000000D03*
%TO.P,R8,1*%
%TO.N,GND*%
X150500000Y-155825000D03*
%TD*%
D15*
%TO.P,U1,32,PB8_32*%
%TO.N,/SD_SCK*%
X130825000Y-138800000D03*
%TO.P,U1,31,PB7_31*%
%TO.N,/SD_MOSI*%
X130825000Y-138000000D03*
%TO.P,U1,30,PB6_30*%
%TO.N,/SD_MISO*%
X130825000Y-137200000D03*
%TO.P,U1,29,PB5_29*%
%TO.N,/DISP_MOSI*%
X130825000Y-136400000D03*
%TO.P,U1,28,PB4_28*%
%TO.N,/SD_CS*%
X130825000Y-135600000D03*
%TO.P,U1,27,PB3_27*%
%TO.N,/DISP_SCK*%
X130825000Y-134800000D03*
%TO.P,U1,26,PA15_26*%
%TO.N,/DISP_CS*%
X130825000Y-134000000D03*
%TO.P,U1,25,PA14_25*%
%TO.N,/SW_CLK*%
X130825000Y-133200000D03*
D16*
%TO.P,U1,24,PA13_24*%
%TO.N,/SW_DIO*%
X132200000Y-131825000D03*
%TO.P,U1,23,PA10/PA12_23*%
%TO.N,unconnected-(U1-PA10{slash}PA12-Pad23)*%
X133000000Y-131825000D03*
%TO.P,U1,22,PA9/PA11_22*%
%TO.N,/DISP_DC*%
X133800000Y-131825000D03*
%TO.P,U1,21,PA10/UCPD1_DBCC2_21*%
%TO.N,/DISP_RES*%
X134600000Y-131825000D03*
%TO.P,U1,20,PC6_20*%
%TO.N,unconnected-(U1-PC6-Pad20)*%
X135400000Y-131825000D03*
%TO.P,U1,19,PA9/UCPD1_DBCC1_19*%
%TO.N,unconnected-(U1-PA9{slash}UCPD1_DBCC1-Pad19)*%
X136200000Y-131825000D03*
%TO.P,U1,18,PA8_18*%
%TO.N,unconnected-(U1-PA8-Pad18)*%
X137000000Y-131825000D03*
%TO.P,U1,17,PB2_17*%
%TO.N,unconnected-(U1-PB2-Pad17)*%
X137800000Y-131825000D03*
D15*
%TO.P,U1,16,PB1_16*%
%TO.N,unconnected-(U1-PB1-Pad16)*%
X139175000Y-133200000D03*
%TO.P,U1,15,PB0_15*%
%TO.N,unconnected-(U1-PB0-Pad15)*%
X139175000Y-134000000D03*
%TO.P,U1,14,PA7_14*%
%TO.N,/SENSOR_SCL*%
X139175000Y-134800000D03*
%TO.P,U1,13,PA6_13*%
%TO.N,/SENSOR_SDA*%
X139175000Y-135600000D03*
%TO.P,U1,12,PA5_12*%
%TO.N,/ADC_IN_5*%
X139175000Y-136400000D03*
%TO.P,U1,11,PA4_11*%
%TO.N,/ADC_IN_4*%
X139175000Y-137200000D03*
%TO.P,U1,10,PA3_10*%
%TO.N,/UART_RX*%
X139175000Y-138000000D03*
%TO.P,U1,9,PA2_9*%
%TO.N,/UART_TX*%
X139175000Y-138800000D03*
D16*
%TO.P,U1,8,PA1_8*%
%TO.N,/DISP_LED*%
X137800000Y-140175000D03*
%TO.P,U1,7,PA0_7*%
%TO.N,unconnected-(U1-PA0-Pad7)*%
X137000000Y-140175000D03*
%TO.P,U1,6,PF2_6*%
%TO.N,/NRST*%
X136200000Y-140175000D03*
%TO.P,U1,5,VSS_5*%
%TO.N,GND*%
X135400000Y-140175000D03*
%TO.P,U1,4,VDD_4*%
%TO.N,+3.3V*%
X134600000Y-140175000D03*
%TO.P,U1,3,PC15_3*%
%TO.N,/BUTTON_CHANGE*%
X133800000Y-140175000D03*
%TO.P,U1,2,PC14_2*%
%TO.N,unconnected-(U1-PC14-Pad2)*%
X133000000Y-140175000D03*
%TO.P,U1,1,PB9_1*%
%TO.N,unconnected-(U1-PB9-Pad1)*%
X132200000Y-140175000D03*
%TD*%
D17*
%TO.P,S1,1,A_1*%
%TO.N,GND*%
X142200000Y-167500000D03*
%TO.P,S1,2,B_2*%
X142200000Y-171500000D03*
%TO.P,S1,3,B'_3*%
%TO.N,/NRST*%
X149000000Y-171500000D03*
%TO.P,S1,4,A'_4*%
X149000000Y-167500000D03*
%TD*%
D18*
%TO.P,R5,1*%
%TO.N,+3.3V*%
X151175000Y-161500000D03*
%TO.P,R5,2*%
%TO.N,Net-(LED1-Pad1)*%
X153000000Y-161500000D03*
%TD*%
D19*
%TO.P,C6,1*%
%TO.N,+3.3V*%
X147000000Y-150710000D03*
%TO.P,C6,2*%
%TO.N,GND*%
X147000000Y-152500000D03*
%TD*%
D20*
%TO.P,C5,1,1_1*%
%TO.N,/BUTTON_CHANGE*%
X125500000Y-165500000D03*
%TO.P,C5,2,2_2*%
%TO.N,Net-(C5-Pad2)*%
X127140000Y-165500000D03*
%TD*%
D13*
%TO.P,R6,1*%
%TO.N,+3.3V*%
X147912500Y-132500000D03*
%TO.P,R6,2*%
%TO.N,/SENSOR_SCL*%
X146087500Y-132500000D03*
%TD*%
D21*
%TO.P,IC1,1,VDD_1*%
%TO.N,+3.3V*%
X146975000Y-134500000D03*
%TO.P,IC1,2,SCL_2*%
%TO.N,/SENSOR_SCL*%
X146025000Y-134500000D03*
%TO.P,IC1,3,SDA_3*%
%TO.N,/SENSOR_SDA*%
X146025000Y-136500000D03*
%TO.P,IC1,4,VSS_1_4*%
%TO.N,GND*%
X146975000Y-136500000D03*
D22*
%TO.P,IC1,5,VSS_2_5*%
X146500000Y-135500000D03*
%TD*%
D20*
%TO.P,C1,1,1_1*%
%TO.N,+3.3V*%
X134360000Y-145000000D03*
%TO.P,C1,2,2_2*%
%TO.N,GND*%
X136000000Y-145000000D03*
%TD*%
D23*
%TO.P,C2,1,1_1*%
%TO.N,GND*%
X136000000Y-143000000D03*
%TO.P,C2,2,2_2*%
%TO.N,+3.3V*%
X134360000Y-143000000D03*
%TD*%
D24*
%TO.P,USB1,A5,CC1_A5*%
%TO.N,Net-(USB1-CC1)*%
X152967500Y-152000000D03*
D25*
%TO.P,USB1,A9,VBUS_A9*%
%TO.N,VBUS*%
X152967500Y-149980000D03*
D26*
%TO.P,USB1,A12,GND_A12*%
%TO.N,GND*%
X152967500Y-148750000D03*
D27*
%TO.P,USB1,B5,CC2_B5*%
%TO.N,Net-(USB1-CC2)*%
X152967500Y-151000000D03*
D28*
%TO.P,USB1,B9,VBUS_B9*%
%TO.N,VBUS*%
X152967500Y-153020000D03*
D29*
%TO.P,USB1,B12,GND_B12*%
%TO.N,GND*%
X152967500Y-154250000D03*
D30*
%TO.P,USB1,SH,SH_SH*%
X153022500Y-156625000D03*
D31*
X156602500Y-156625000D03*
D30*
X153022500Y-146375000D03*
D31*
X156602500Y-146375000D03*
%TD*%
D32*
%TO.P,C3,1*%
%TO.N,VBUS*%
X150500000Y-148500000D03*
%TO.P,C3,2*%
%TO.N,GND*%
X150500000Y-146710000D03*
%TD*%
D13*
%TO.P,R7,1*%
%TO.N,+3.3V*%
X147825000Y-138500000D03*
%TO.P,R7,2*%
%TO.N,/SENSOR_SDA*%
X146000000Y-138500000D03*
%TD*%
D33*
%TO.P,LED1,1*%
%TO.N,Net-(LED1-Pad1)*%
X155000000Y-161500000D03*
%TO.P,LED1,2*%
%TO.N,GND*%
X157920000Y-161500000D03*
%TD*%
D34*
%TO.P,R9,1*%
%TO.N,GND*%
X150500000Y-150500000D03*
%TO.P,R9,2*%
%TO.N,Net-(USB1-CC2)*%
X150500000Y-152325000D03*
%TD*%
D35*
%TO.P,U2,1,ADJ/GND_1*%
%TO.N,GND*%
X144000000Y-152500000D03*
%TO.P,U2,2,VOUT_2*%
%TO.N,+3.3V*%
X144000000Y-150200000D03*
D36*
X137700000Y-150200000D03*
D35*
%TO.P,U2,3,VIN_3*%
%TO.N,VBUS*%
X144000000Y-147900000D03*
%TD*%
D17*
%TO.P,S2,1,A_1*%
%TO.N,GND*%
X135900000Y-171500000D03*
%TO.P,S2,2,B_2*%
X135900000Y-167500000D03*
%TO.P,S2,3,B'_3*%
%TO.N,/BUTTON_CHANGE*%
X129100000Y-167500000D03*
%TO.P,S2,4,A'_4*%
X129100000Y-171500000D03*
%TD*%
D11*
%TO.P,J2,1,Pin_1_1*%
%TO.N,/SD_CS*%
X135460000Y-108000000D03*
D12*
%TO.P,J2,2,Pin_2_2*%
%TO.N,/SD_MOSI*%
X138000000Y-108000000D03*
%TO.P,J2,3,Pin_3_3*%
%TO.N,/SD_MISO*%
X140540000Y-108000000D03*
%TO.P,J2,4,Pin_4_4*%
%TO.N,/SD_SCK*%
X143080000Y-108000000D03*
%TD*%
D18*
%TO.P,R2,2*%
%TO.N,GND*%
X131825000Y-165000000D03*
%TO.P,R2,1*%
%TO.N,Net-(C5-Pad2)*%
X130000000Y-165000000D03*
%TD*%
D34*
%TO.P,R3,1*%
%TO.N,/DISP_LED*%
X148000000Y-157000000D03*
%TO.P,R3,2*%
%TO.N,Net-(J1-Pin_1)*%
X148000000Y-158825000D03*
%TD*%
D37*
%TO.N,/DISP_MOSI*%
X128400000Y-136600000D03*
%TO.N,/SD_CS*%
X129000000Y-135500000D03*
%TO.N,/SD_MISO*%
X128000000Y-135500000D03*
X128500000Y-130000000D03*
%TO.N,/SD_MOSI*%
X127500000Y-129500000D03*
X127000000Y-135500000D03*
%TO.N,/SD_SCK*%
X125750000Y-129750000D03*
X126100000Y-135500000D03*
%TO.N,+3.3V*%
X132500000Y-145000000D03*
X129599758Y-143875303D03*
%TO.N,GND*%
X129100000Y-144500000D03*
X135500000Y-146500000D03*
%TO.N,/NRST*%
X151000000Y-166500000D03*
X141548527Y-144800000D03*
%TO.N,/DISP_LED*%
X148600000Y-155565687D03*
X143955025Y-142955025D03*
%TO.N,/UART_TX*%
X145500000Y-140500000D03*
%TO.N,/ADC_IN_4*%
X153000000Y-135500000D03*
X144500000Y-138000000D03*
%TO.N,/ADC_IN_5*%
X153000000Y-133500000D03*
X144500000Y-137000000D03*
%TO.N,/DISP_RES*%
X140500000Y-129900000D03*
X141500000Y-141500000D03*
%TO.N,/DISP_MOSI*%
X141020000Y-159501982D03*
%TO.N,/DISP_RES*%
X139000000Y-159000000D03*
X141500000Y-144000000D03*
%TO.N,/DISP_DC*%
X137500000Y-156500000D03*
X143500000Y-134000000D03*
%TO.N,/DISP_SCK*%
X135565687Y-157434313D03*
X127791083Y-142380882D03*
%TO.N,/DISP_CS*%
X135000000Y-158000000D03*
X127000000Y-142500000D03*
%TO.N,+3.3V*%
X149500000Y-138000000D03*
X151000000Y-136400000D03*
%TO.N,GND*%
X144500000Y-145500000D03*
X141000000Y-145500000D03*
%TO.N,/SD_CS*%
X129000000Y-131000000D03*
%TD*%
%TO.N,GND*%
D38*
X136000000Y-141500000D02*
X136000000Y-143000000D01*
X135400000Y-140900000D02*
X136000000Y-141500000D01*
X135400000Y-140175000D02*
X135400000Y-140900000D01*
X135400000Y-144400000D02*
X135400000Y-140175000D01*
X136000000Y-145000000D02*
X135400000Y-144400000D01*
X135500000Y-146500000D02*
X135500000Y-145500000D01*
X135500000Y-145500000D02*
X136000000Y-145000000D01*
%TO.N,VBUS*%
X153567500Y-153020000D02*
X152967500Y-153020000D01*
X153867500Y-152720000D02*
X153567500Y-153020000D01*
X153867500Y-150623398D02*
X153867500Y-152720000D01*
X152967500Y-149980000D02*
X153224102Y-149980000D01*
X153224102Y-149980000D02*
X153867500Y-150623398D01*
%TO.N,/BUTTON_CHANGE*%
X129100000Y-167500000D02*
X129100000Y-171500000D01*
%TO.N,Net-(LED1-Pad1)*%
X155000000Y-161500000D02*
X153000000Y-161500000D01*
%TO.N,/DISP_MOSI*%
X130725000Y-136500000D02*
X130825000Y-136400000D01*
X128500000Y-136500000D02*
X130725000Y-136500000D01*
X128400000Y-136600000D02*
X128500000Y-136500000D01*
%TO.N,/SD_CS*%
X133725686Y-108000000D02*
X135460000Y-108000000D01*
X126900000Y-114825686D02*
X133725686Y-108000000D01*
X129000000Y-131000000D02*
X129000000Y-130700000D01*
X128900000Y-130600000D02*
X127751471Y-130600000D01*
X126900000Y-129748529D02*
X126900000Y-114825686D01*
X129000000Y-130700000D02*
X128900000Y-130600000D01*
X127751471Y-130600000D02*
X126900000Y-129748529D01*
X129100000Y-135600000D02*
X129000000Y-135500000D01*
X130825000Y-135600000D02*
X129100000Y-135600000D01*
%TO.N,/SD_MISO*%
X127200000Y-137200000D02*
X127000000Y-137000000D01*
X127000000Y-137000000D02*
X127000000Y-136500000D01*
X127000000Y-136500000D02*
X128000000Y-135500000D01*
X130825000Y-137200000D02*
X127200000Y-137200000D01*
X129000000Y-129500000D02*
X128500000Y-130000000D01*
X129000000Y-119540000D02*
X129000000Y-129500000D01*
X140540000Y-108000000D02*
X129000000Y-119540000D01*
%TO.N,/SD_MOSI*%
X127500000Y-129500000D02*
X127500000Y-118500000D01*
X127500000Y-118500000D02*
X138000000Y-108000000D01*
X126500000Y-136000000D02*
X127000000Y-135500000D01*
X126500000Y-137500000D02*
X126500000Y-136000000D01*
X127000000Y-138000000D02*
X126500000Y-137500000D01*
X130825000Y-138000000D02*
X127000000Y-138000000D01*
%TO.N,/SD_SCK*%
X141580000Y-106500000D02*
X143080000Y-108000000D01*
X134660000Y-106500000D02*
X141580000Y-106500000D01*
X126000000Y-129500000D02*
X126000000Y-115160000D01*
X125750000Y-129750000D02*
X126000000Y-129500000D01*
X126000000Y-115160000D02*
X134660000Y-106500000D01*
X126000000Y-135600000D02*
X126100000Y-135500000D01*
X126000000Y-138000000D02*
X126000000Y-135600000D01*
X126800000Y-138800000D02*
X126000000Y-138000000D01*
X130825000Y-138800000D02*
X126800000Y-138800000D01*
%TO.N,/SW_DIO*%
X122500000Y-133000000D02*
X123675000Y-131825000D01*
X123675000Y-131825000D02*
X132200000Y-131825000D01*
%TO.N,/SW_CLK*%
X124840000Y-133200000D02*
X130825000Y-133200000D01*
X122500000Y-135540000D02*
X124840000Y-133200000D01*
%TO.N,/DISP_SCK*%
X127791083Y-142291083D02*
X127791083Y-142380882D01*
X125500000Y-140000000D02*
X127791083Y-142291083D01*
X130825000Y-134800000D02*
X125765686Y-134800000D01*
X125765686Y-134800000D02*
X125500000Y-135065686D01*
X125500000Y-135065686D02*
X125500000Y-140000000D01*
%TO.N,/DISP_CS*%
X126000000Y-134000000D02*
X125000000Y-135000000D01*
X130825000Y-134000000D02*
X126000000Y-134000000D01*
X125000000Y-135000000D02*
X125000000Y-140500000D01*
X125000000Y-140500000D02*
X127000000Y-142500000D01*
%TO.N,+3.3V*%
X132500000Y-145000000D02*
X134360000Y-145000000D01*
X126500000Y-144000000D02*
X126624697Y-143875303D01*
X123650000Y-141150000D02*
X126500000Y-144000000D01*
X123650000Y-139230000D02*
X123650000Y-141150000D01*
X122500000Y-138080000D02*
X123650000Y-139230000D01*
X126624697Y-143875303D02*
X129599758Y-143875303D01*
%TO.N,GND*%
D39*
X137000000Y-145000000D02*
X140500000Y-145000000D01*
D38*
X122500000Y-140620000D02*
X126380000Y-144500000D01*
X126380000Y-144500000D02*
X129100000Y-144500000D01*
D39*
X136000000Y-145000000D02*
X137000000Y-145000000D01*
%TO.N,/NRST*%
D38*
X152000000Y-167500000D02*
X153000000Y-167500000D01*
X141007106Y-144800000D02*
X141548527Y-144800000D01*
X140707106Y-144500000D02*
X141007106Y-144800000D01*
X139900000Y-144500000D02*
X140707106Y-144500000D01*
X136200000Y-140800000D02*
X139900000Y-144500000D01*
X151000000Y-166500000D02*
X152000000Y-167500000D01*
X136200000Y-140175000D02*
X136200000Y-140800000D01*
X149000000Y-171500000D02*
X149000000Y-167500000D01*
%TO.N,GND*%
X153995000Y-171005000D02*
X153995000Y-166855000D01*
X152500000Y-172500000D02*
X153995000Y-171005000D01*
X153995000Y-166855000D02*
X153000000Y-165860000D01*
X143200000Y-172500000D02*
X152500000Y-172500000D01*
X142200000Y-171500000D02*
X143200000Y-172500000D01*
X156596346Y-137000000D02*
X148000000Y-137000000D01*
X157150000Y-137553654D02*
X156596346Y-137000000D01*
X148000000Y-137000000D02*
X146500000Y-135500000D01*
X157150000Y-145827500D02*
X157150000Y-137553654D01*
X156602500Y-146375000D02*
X157150000Y-145827500D01*
%TO.N,/DISP_LED*%
X148000000Y-157000000D02*
X148000000Y-156165687D01*
X148000000Y-156165687D02*
X148600000Y-155565687D01*
X141175000Y-140175000D02*
X143955025Y-142955025D01*
X137800000Y-140175000D02*
X141175000Y-140175000D01*
%TO.N,/UART_TX*%
X143800000Y-138800000D02*
X145500000Y-140500000D01*
X139175000Y-138800000D02*
X143800000Y-138800000D01*
%TO.N,/UART_RX*%
X147427756Y-137400000D02*
X155130000Y-137400000D01*
X155130000Y-137400000D02*
X156000000Y-138270000D01*
X147012500Y-139184744D02*
X147012500Y-137815256D01*
X147012500Y-137815256D02*
X147427756Y-137400000D01*
X146697244Y-139500000D02*
X147012500Y-139184744D01*
X145151471Y-139500000D02*
X146697244Y-139500000D01*
X143651471Y-138000000D02*
X145151471Y-139500000D01*
X139175000Y-138000000D02*
X143651471Y-138000000D01*
%TO.N,/ADC_IN_4*%
X154770000Y-134500000D02*
X156000000Y-135730000D01*
X154000000Y-134500000D02*
X154770000Y-134500000D01*
X153000000Y-135500000D02*
X154000000Y-134500000D01*
X143700000Y-137200000D02*
X144500000Y-138000000D01*
X139175000Y-137200000D02*
X143700000Y-137200000D01*
%TO.N,/ADC_IN_5*%
X153310000Y-133190000D02*
X156000000Y-133190000D01*
X153000000Y-133500000D02*
X153310000Y-133190000D01*
X143900000Y-136400000D02*
X144500000Y-137000000D01*
X139175000Y-136400000D02*
X143900000Y-136400000D01*
%TO.N,/DISP_RES*%
X134600000Y-131270494D02*
X134600000Y-131825000D01*
X135970494Y-129900000D02*
X134600000Y-131270494D01*
X140500000Y-129900000D02*
X135970494Y-129900000D01*
X141500000Y-141500000D02*
X141500000Y-144000000D01*
%TO.N,+3.3V*%
X134360000Y-146860000D02*
X134360000Y-145000000D01*
X137700000Y-150200000D02*
X134360000Y-146860000D01*
%TO.N,/DISP_MOSI*%
X141020000Y-159560000D02*
X142960000Y-161500000D01*
X141020000Y-159501982D02*
X141020000Y-159560000D01*
%TO.N,/DISP_RES*%
X139000000Y-160380000D02*
X137880000Y-161500000D01*
X139000000Y-159000000D02*
X139000000Y-160380000D01*
%TO.N,/DISP_DC*%
X140420000Y-159420000D02*
X140420000Y-161500000D01*
X137500000Y-156500000D02*
X140420000Y-159420000D01*
X142000000Y-129000000D02*
X143500000Y-130500000D01*
X135875001Y-129000000D02*
X142000000Y-129000000D01*
X143500000Y-130500000D02*
X143500000Y-134000000D01*
X133800000Y-131075001D02*
X135875001Y-129000000D01*
X133800000Y-131825000D02*
X133800000Y-131075001D01*
%TO.N,/DISP_SCK*%
X137753654Y-163000000D02*
X144000000Y-163000000D01*
X136730000Y-161976346D02*
X137753654Y-163000000D01*
X136730000Y-158598626D02*
X136730000Y-161976346D01*
X135565687Y-157434313D02*
X136730000Y-158598626D01*
X144000000Y-163000000D02*
X145500000Y-161500000D01*
%TO.N,/DISP_CS*%
X135340000Y-158340000D02*
X135000000Y-158000000D01*
X135340000Y-161500000D02*
X135340000Y-158340000D01*
%TO.N,/BUTTON_CHANGE*%
X133800000Y-140924999D02*
X133800000Y-140175000D01*
X125175000Y-149549999D02*
X133800000Y-140924999D01*
X125175000Y-161500000D02*
X125175000Y-149549999D01*
%TO.N,/NRST*%
X136200000Y-140175000D02*
X136200000Y-139620494D01*
%TO.N,+3.3V*%
X142500000Y-152997244D02*
X142500000Y-151700000D01*
X151175000Y-160502756D02*
X148684744Y-158012500D01*
X147515256Y-158012500D02*
X142500000Y-152997244D01*
X151175000Y-161500000D02*
X151175000Y-160502756D01*
X148684744Y-158012500D02*
X147515256Y-158012500D01*
X142500000Y-151700000D02*
X144000000Y-150200000D01*
%TO.N,Net-(J1-Pin_1)*%
X148000000Y-161460000D02*
X148040000Y-161500000D01*
X148000000Y-158825000D02*
X148000000Y-161460000D01*
%TO.N,+3.3V*%
X137700000Y-150200000D02*
X137700000Y-154060000D01*
X137700000Y-154060000D02*
X130260000Y-161500000D01*
X127000000Y-161500000D02*
X130260000Y-161500000D01*
%TO.N,Net-(C5-Pad2)*%
X127640000Y-165000000D02*
X127140000Y-165500000D01*
X130000000Y-165000000D02*
X127640000Y-165000000D01*
%TO.N,/BUTTON_CHANGE*%
X125175000Y-165375000D02*
X125175000Y-161500000D01*
X127300000Y-167500000D02*
X125175000Y-165375000D01*
X129100000Y-167500000D02*
X127300000Y-167500000D01*
%TO.N,GND*%
X142200000Y-167500000D02*
X142200000Y-171500000D01*
X133400000Y-165000000D02*
X131825000Y-165000000D01*
X135900000Y-167500000D02*
X133400000Y-165000000D01*
X131825000Y-162475000D02*
X131825000Y-165000000D01*
X132800000Y-161500000D02*
X131825000Y-162475000D01*
%TO.N,Net-(J1-Pin_1)*%
X147740000Y-163240000D02*
X147740000Y-161500000D01*
X149000000Y-164500000D02*
X147740000Y-163240000D01*
%TO.N,/NRST*%
X153000000Y-167500000D02*
X149000000Y-167500000D01*
%TO.N,GND*%
X152860000Y-165860000D02*
X151500000Y-164500000D01*
X151500000Y-164500000D02*
X150825000Y-164500000D01*
X153000000Y-165860000D02*
X152860000Y-165860000D01*
X157920000Y-161500000D02*
X157360000Y-161500000D01*
X157360000Y-161500000D02*
X153000000Y-165860000D01*
X135900000Y-167500000D02*
X135900000Y-171500000D01*
X146975000Y-135975000D02*
X146975000Y-136500000D01*
X146500000Y-135500000D02*
X146975000Y-135975000D01*
%TO.N,+3.3V*%
X148500000Y-132500000D02*
X147912500Y-132500000D01*
X151000000Y-135000000D02*
X148500000Y-132500000D01*
X151000000Y-136400000D02*
X151000000Y-135000000D01*
X149000000Y-138500000D02*
X149500000Y-138000000D01*
X147825000Y-138500000D02*
X149000000Y-138500000D01*
X147912500Y-133562500D02*
X146975000Y-134500000D01*
X147912500Y-132500000D02*
X147912500Y-133562500D01*
%TO.N,/SENSOR_SDA*%
X146000000Y-138000000D02*
X146025000Y-137975000D01*
X146025000Y-137975000D02*
X146025000Y-136500000D01*
X146000000Y-138500000D02*
X146000000Y-138000000D01*
X144750000Y-135600000D02*
X145650000Y-136500000D01*
X145650000Y-136500000D02*
X146025000Y-136500000D01*
X139175000Y-135600000D02*
X144750000Y-135600000D01*
%TO.N,/SENSOR_SCL*%
X145725000Y-134800000D02*
X139175000Y-134800000D01*
X146025000Y-134500000D02*
X145725000Y-134800000D01*
X146087500Y-134437500D02*
X146025000Y-134500000D01*
X146087500Y-132500000D02*
X146087500Y-134437500D01*
%TO.N,GND*%
D39*
X146710000Y-146710000D02*
X150500000Y-146710000D01*
X145500000Y-145500000D02*
X146710000Y-146710000D01*
X144500000Y-145500000D02*
X145500000Y-145500000D01*
X140500000Y-145000000D02*
X141000000Y-145500000D01*
%TO.N,+3.3V*%
X147825000Y-140075000D02*
X147825000Y-138500000D01*
X137700000Y-150200000D02*
X147825000Y-140075000D01*
%TO.N,GND*%
X156602500Y-146375000D02*
X156602500Y-145897500D01*
X144000000Y-167500000D02*
X142200000Y-167500000D01*
X142200000Y-167500000D02*
X135900000Y-167500000D01*
X156602500Y-160182500D02*
X157920000Y-161500000D01*
X156602500Y-156625000D02*
X156602500Y-160182500D01*
X149000000Y-150500000D02*
X147000000Y-152500000D01*
X150500000Y-150500000D02*
X149000000Y-150500000D01*
%TO.N,Net-(USB1-CC2)*%
X150500000Y-152325000D02*
X151825000Y-151000000D01*
X151825000Y-151000000D02*
X152967500Y-151000000D01*
%TO.N,Net-(USB1-CC1)*%
X152500000Y-152000000D02*
X152967500Y-152000000D01*
X150500000Y-154000000D02*
X152500000Y-152000000D01*
%TO.N,GND*%
X152967500Y-156570000D02*
X153022500Y-156625000D01*
X152967500Y-154250000D02*
X152967500Y-156570000D01*
X151300000Y-156625000D02*
X150500000Y-155825000D01*
X153022500Y-156625000D02*
X151300000Y-156625000D01*
X156602500Y-156625000D02*
X153022500Y-156625000D01*
X156602500Y-151785000D02*
X156602500Y-156625000D01*
X152967500Y-148750000D02*
X153567500Y-148750000D01*
X153567500Y-148750000D02*
X156602500Y-151785000D01*
%TO.N,VBUS*%
X151980000Y-149980000D02*
X150500000Y-148500000D01*
X152967500Y-149980000D02*
X151980000Y-149980000D01*
%TO.N,GND*%
X152687500Y-146710000D02*
X153022500Y-146375000D01*
X150500000Y-146710000D02*
X152687500Y-146710000D01*
X152967500Y-148750000D02*
X152967500Y-146430000D01*
X152967500Y-146430000D02*
X153022500Y-146375000D01*
X156602500Y-146375000D02*
X153022500Y-146375000D01*
%TO.N,+3.3V*%
X134360000Y-143000000D02*
X134360000Y-145000000D01*
%TO.N,GND*%
X136000000Y-143000000D02*
X136000000Y-145000000D01*
%TO.N,+3.3V*%
X134600000Y-140175000D02*
X134600000Y-142760000D01*
X134600000Y-142760000D02*
X134360000Y-143000000D01*
%TO.N,VBUS*%
X150500000Y-148500000D02*
X144600000Y-148500000D01*
X144600000Y-148500000D02*
X144000000Y-147900000D01*
%TO.N,+3.3V*%
X147000000Y-150710000D02*
X144510000Y-150710000D01*
X144510000Y-150710000D02*
X144000000Y-150200000D01*
X144000000Y-150200000D02*
X137700000Y-150200000D01*
%TO.N,GND*%
X150500000Y-155825000D02*
X150325000Y-155825000D01*
X150325000Y-155825000D02*
X147000000Y-152500000D01*
X147000000Y-152500000D02*
X144000000Y-152500000D01*
%TD*%
%TA.AperFunction,Conductor*%
%TO.N,GND*%
G36*
X134290527Y-158421220D02*
G01*
X134346460Y-158463092D01*
X134350295Y-158468511D01*
X134378210Y-158510288D01*
X134378213Y-158510292D01*
X134489707Y-158621786D01*
X134489711Y-158621789D01*
X134620814Y-158709390D01*
X134620821Y-158709394D01*
X134662952Y-158726845D01*
X134717355Y-158770684D01*
X134739421Y-158836978D01*
X134739500Y-158841406D01*
X134739500Y-160214281D01*
X134719815Y-160281320D01*
X134671795Y-160324765D01*
X134632185Y-160344947D01*
X134632184Y-160344948D01*
X134460213Y-160469890D01*
X134309890Y-160620213D01*
X134184949Y-160792182D01*
X134180202Y-160801499D01*
X134132227Y-160852293D01*
X134064405Y-160869087D01*
X133998271Y-160846548D01*
X133959234Y-160801495D01*
X133954626Y-160792452D01*
X133915270Y-160738282D01*
X133915269Y-160738282D01*
X133282962Y-161370590D01*
X133265925Y-161307007D01*
X133200099Y-161192993D01*
X133107007Y-161099901D01*
X132992993Y-161034075D01*
X132929408Y-161017037D01*
X133561716Y-160384728D01*
X133507550Y-160345375D01*
X133318217Y-160248904D01*
X133116129Y-160183242D01*
X132906246Y-160150000D01*
X132758595Y-160150000D01*
X132691556Y-160130315D01*
X132645801Y-160077511D01*
X132635857Y-160008353D01*
X132664882Y-159944797D01*
X132670900Y-159938333D01*
X134159514Y-158449719D01*
X134220835Y-158416236D01*
X134290527Y-158421220D01*
G37*
%TD.AperFunction*%
%TA.AperFunction,Conductor*%
G36*
X149301610Y-149203699D02*
G01*
X149312904Y-149202502D01*
X149334531Y-149213366D01*
X149357752Y-149220185D01*
X149366803Y-149229578D01*
X149375338Y-149233866D01*
X149397445Y-149261379D01*
X149418862Y-149297594D01*
X149418869Y-149297603D01*
X149532396Y-149411130D01*
X149532402Y-149411135D01*
X149574562Y-149436068D01*
X149622245Y-149487136D01*
X149634749Y-149555878D01*
X149608104Y-149620467D01*
X149586453Y-149639601D01*
X149587323Y-149640702D01*
X149581655Y-149645183D01*
X149457684Y-149769154D01*
X149365643Y-149918375D01*
X149365641Y-149918380D01*
X149310494Y-150084802D01*
X149310493Y-150084809D01*
X149300000Y-150187513D01*
X149300000Y-150250000D01*
X150376000Y-150250000D01*
X150443039Y-150269685D01*
X150488794Y-150322489D01*
X150500000Y-150374000D01*
X150500000Y-150626000D01*
X150480315Y-150693039D01*
X150427511Y-150738794D01*
X150376000Y-150750000D01*
X149300001Y-150750000D01*
X149300001Y-150812486D01*
X149310494Y-150915197D01*
X149365641Y-151081619D01*
X149365643Y-151081624D01*
X149457684Y-151230845D01*
X149551304Y-151324465D01*
X149584789Y-151385788D01*
X149579805Y-151455480D01*
X149551305Y-151499827D01*
X149457287Y-151593845D01*
X149365187Y-151743163D01*
X149365185Y-151743168D01*
X149339237Y-151821476D01*
X149310001Y-151909703D01*
X149310001Y-151909704D01*
X149310000Y-151909704D01*
X149299500Y-152012483D01*
X149299500Y-152637501D01*
X149299501Y-152637519D01*
X149310000Y-152740296D01*
X149310001Y-152740299D01*
X149365185Y-152906831D01*
X149365187Y-152906836D01*
X149392487Y-152951096D01*
X149425814Y-153005129D01*
X149457289Y-153056157D01*
X149475951Y-153074819D01*
X149509436Y-153136142D01*
X149504452Y-153205834D01*
X149475951Y-153250181D01*
X149457289Y-153268842D01*
X149365187Y-153418163D01*
X149365186Y-153418166D01*
X149310001Y-153584703D01*
X149310001Y-153584704D01*
X149310000Y-153584704D01*
X149299500Y-153687483D01*
X149299500Y-154312501D01*
X149299501Y-154312519D01*
X149310000Y-154415296D01*
X149310001Y-154415299D01*
X149365185Y-154581831D01*
X149365187Y-154581836D01*
X149457289Y-154731157D01*
X149551304Y-154825172D01*
X149555063Y-154832056D01*
X149561435Y-154836637D01*
X149571572Y-154862291D01*
X149584789Y-154886495D01*
X149584229Y-154894319D01*
X149587113Y-154901617D01*
X149581772Y-154928675D01*
X149579805Y-154956187D01*
X149574759Y-154964206D01*
X149573584Y-154970164D01*
X149555524Y-154994781D01*
X149552983Y-154998822D01*
X149442070Y-155114110D01*
X149422797Y-155125122D01*
X149406290Y-155139968D01*
X149393050Y-155142121D01*
X149381406Y-155148775D01*
X149359237Y-155147619D01*
X149337326Y-155151183D01*
X149325025Y-155145836D01*
X149311631Y-155145139D01*
X149293604Y-155132180D01*
X149273247Y-155123333D01*
X149258552Y-155106984D01*
X149254898Y-155104357D01*
X149253883Y-155101788D01*
X149249607Y-155097031D01*
X149221787Y-155055395D01*
X149110292Y-154943900D01*
X149110288Y-154943897D01*
X148979185Y-154856296D01*
X148979172Y-154856289D01*
X148833501Y-154795951D01*
X148833489Y-154795948D01*
X148678845Y-154765187D01*
X148678842Y-154765187D01*
X148521158Y-154765187D01*
X148521155Y-154765187D01*
X148366510Y-154795948D01*
X148366498Y-154795951D01*
X148220827Y-154856289D01*
X148220814Y-154856296D01*
X148089711Y-154943897D01*
X148089707Y-154943900D01*
X147978213Y-155055394D01*
X147978210Y-155055398D01*
X147890609Y-155186501D01*
X147890602Y-155186514D01*
X147830264Y-155332185D01*
X147830261Y-155332195D01*
X147799362Y-155487535D01*
X147790596Y-155504292D01*
X147786577Y-155522769D01*
X147767832Y-155547810D01*
X147766977Y-155549446D01*
X147765427Y-155551024D01*
X147715121Y-155601330D01*
X147631286Y-155685165D01*
X147631285Y-155685165D01*
X147631284Y-155685166D01*
X147519481Y-155796969D01*
X147519479Y-155796972D01*
X147470034Y-155882613D01*
X147470016Y-155882644D01*
X147469360Y-155883782D01*
X147440423Y-155933902D01*
X147439016Y-155939149D01*
X147432624Y-155950802D01*
X147412471Y-155970873D01*
X147394627Y-155993016D01*
X147385823Y-155997415D01*
X147383120Y-156000108D01*
X147378400Y-156001124D01*
X147362915Y-156008863D01*
X147230668Y-156052685D01*
X147230663Y-156052687D01*
X147081342Y-156144789D01*
X146957289Y-156268842D01*
X146911261Y-156343466D01*
X146859313Y-156390191D01*
X146790350Y-156401412D01*
X146726268Y-156373569D01*
X146718041Y-156366050D01*
X144313672Y-153961681D01*
X144280187Y-153900358D01*
X144285171Y-153830666D01*
X144327043Y-153774733D01*
X144392507Y-153750316D01*
X144401353Y-153750000D01*
X144701097Y-153750000D01*
X144743824Y-153747102D01*
X144928523Y-153701168D01*
X145099022Y-153616609D01*
X145099025Y-153616607D01*
X145247366Y-153497367D01*
X145247367Y-153497366D01*
X145366607Y-153349025D01*
X145366609Y-153349022D01*
X145451168Y-153178523D01*
X145497102Y-152993824D01*
X145498777Y-152969135D01*
X145790000Y-152969135D01*
X145792832Y-153005123D01*
X145792833Y-153005129D01*
X145837592Y-153159188D01*
X145837593Y-153159191D01*
X145919261Y-153297285D01*
X145919268Y-153297294D01*
X146032705Y-153410731D01*
X146032714Y-153410738D01*
X146170808Y-153492406D01*
X146170811Y-153492407D01*
X146324870Y-153537166D01*
X146324876Y-153537167D01*
X146360864Y-153539999D01*
X146360880Y-153540000D01*
X146750000Y-153540000D01*
X147250000Y-153540000D01*
X147639120Y-153540000D01*
X147639135Y-153539999D01*
X147675123Y-153537167D01*
X147675129Y-153537166D01*
X147829188Y-153492407D01*
X147829191Y-153492406D01*
X147967285Y-153410738D01*
X147967294Y-153410731D01*
X148080731Y-153297294D01*
X148080738Y-153297285D01*
X148162406Y-153159191D01*
X148162407Y-153159188D01*
X148207166Y-153005129D01*
X148207167Y-153005123D01*
X148209999Y-152969135D01*
X148210000Y-152969120D01*
X148210000Y-152750000D01*
X147250000Y-152750000D01*
X147250000Y-153540000D01*
X146750000Y-153540000D01*
X146750000Y-152750000D01*
X145790000Y-152750000D01*
X145790000Y-152969135D01*
X145498777Y-152969135D01*
X145500000Y-152951096D01*
X145500000Y-152750000D01*
X144124000Y-152750000D01*
X144056961Y-152730315D01*
X144011206Y-152677511D01*
X144000000Y-152626000D01*
X144000000Y-152374000D01*
X144019685Y-152306961D01*
X144072489Y-152261206D01*
X144124000Y-152250000D01*
X145500000Y-152250000D01*
X145500000Y-152048903D01*
X145497102Y-152006175D01*
X145451168Y-151821476D01*
X145366609Y-151650977D01*
X145366607Y-151650975D01*
X145335429Y-151612187D01*
X145308770Y-151547603D01*
X145321260Y-151478859D01*
X145368934Y-151427781D01*
X145432076Y-151410500D01*
X145790713Y-151410500D01*
X145796487Y-151412195D01*
X145802395Y-151411052D01*
X145829623Y-151421925D01*
X145857752Y-151430185D01*
X145863125Y-151435304D01*
X145867282Y-151436964D01*
X145879495Y-151450899D01*
X145891659Y-151462487D01*
X145894745Y-151466812D01*
X145918865Y-151507598D01*
X145936223Y-151524956D01*
X145942204Y-151533340D01*
X145950417Y-151557005D01*
X145962423Y-151578991D01*
X145961675Y-151589446D01*
X145965112Y-151599348D01*
X145959227Y-151623696D01*
X145957441Y-151648683D01*
X145950624Y-151659289D01*
X145948698Y-151667262D01*
X145940422Y-151675166D01*
X145928942Y-151693031D01*
X145919270Y-151702703D01*
X145919261Y-151702714D01*
X145837593Y-151840808D01*
X145837592Y-151840811D01*
X145792833Y-151994870D01*
X145792832Y-151994876D01*
X145790000Y-152030864D01*
X145790000Y-152250000D01*
X148210000Y-152250000D01*
X148210000Y-152030879D01*
X148209999Y-152030864D01*
X148207167Y-151994876D01*
X148207166Y-151994870D01*
X148162407Y-151840811D01*
X148162406Y-151840808D01*
X148080738Y-151702714D01*
X148080731Y-151702705D01*
X148071060Y-151693034D01*
X148037575Y-151631711D01*
X148042559Y-151562019D01*
X148071061Y-151517671D01*
X148081135Y-151507598D01*
X148162869Y-151369393D01*
X148207665Y-151215204D01*
X148210500Y-151179181D01*
X148210499Y-150240820D01*
X148207665Y-150204796D01*
X148162869Y-150050607D01*
X148081135Y-149912402D01*
X148081133Y-149912400D01*
X148081130Y-149912396D01*
X147967603Y-149798869D01*
X147967595Y-149798863D01*
X147829393Y-149717131D01*
X147829388Y-149717129D01*
X147675208Y-149672335D01*
X147675202Y-149672334D01*
X147639181Y-149669500D01*
X146360831Y-149669500D01*
X146360806Y-149669501D01*
X146324795Y-149672335D01*
X146170611Y-149717129D01*
X146170606Y-149717131D01*
X146032404Y-149798863D01*
X146032396Y-149798869D01*
X145918869Y-149912396D01*
X145918862Y-149912405D01*
X145897445Y-149948621D01*
X145889144Y-149956371D01*
X145884426Y-149966703D01*
X145864064Y-149979788D01*
X145846376Y-149996304D01*
X145833683Y-149999313D01*
X145825648Y-150004477D01*
X145790713Y-150009500D01*
X145624499Y-150009500D01*
X145557460Y-149989815D01*
X145511705Y-149937011D01*
X145500499Y-149885500D01*
X145500499Y-149748877D01*
X145500498Y-149748876D01*
X145497600Y-149706111D01*
X145451641Y-149521307D01*
X145451639Y-149521302D01*
X145381359Y-149379594D01*
X145369207Y-149310789D01*
X145396184Y-149246337D01*
X145453723Y-149206702D01*
X145492447Y-149200500D01*
X149290713Y-149200500D01*
X149301610Y-149203699D01*
G37*
%TD.AperFunction*%
%TA.AperFunction,Conductor*%
G36*
X135438265Y-141050259D02*
G01*
X135442147Y-141049701D01*
X135470619Y-141062703D01*
X135499820Y-141073936D01*
X135503549Y-141077742D01*
X135505703Y-141078726D01*
X135512538Y-141086916D01*
X135524520Y-141099146D01*
X135528128Y-141104070D01*
X135576830Y-141186420D01*
X135620401Y-141229991D01*
X135626020Y-141237659D01*
X135649768Y-141303369D01*
X135650000Y-141310952D01*
X135650000Y-141414525D01*
X135764508Y-141381258D01*
X135782158Y-141381258D01*
X135798749Y-141376335D01*
X135833696Y-141381257D01*
X135910768Y-141403648D01*
X135941713Y-141412639D01*
X135994799Y-141444034D01*
X136213681Y-141662916D01*
X136247166Y-141724239D01*
X136250000Y-141750597D01*
X136250000Y-142750000D01*
X136970000Y-142750000D01*
X136970000Y-142718597D01*
X136989685Y-142651558D01*
X137042489Y-142605803D01*
X137111647Y-142595859D01*
X137175203Y-142624884D01*
X137181681Y-142630916D01*
X139415139Y-144864374D01*
X139415149Y-144864385D01*
X139419479Y-144868715D01*
X139419480Y-144868716D01*
X139531284Y-144980520D01*
X139618095Y-145030639D01*
X139618097Y-145030641D01*
X139656151Y-145052611D01*
X139668215Y-145059577D01*
X139820943Y-145100500D01*
X139979057Y-145100500D01*
X140407009Y-145100500D01*
X140436449Y-145109144D01*
X140466436Y-145115668D01*
X140471451Y-145119422D01*
X140474048Y-145120185D01*
X140494690Y-145136819D01*
X140522245Y-145164374D01*
X140522255Y-145164385D01*
X140526585Y-145168715D01*
X140526586Y-145168716D01*
X140638390Y-145280520D01*
X140725201Y-145330639D01*
X140725203Y-145330641D01*
X140763257Y-145352611D01*
X140775321Y-145359577D01*
X140928049Y-145400500D01*
X140968761Y-145400500D01*
X140986601Y-145405738D01*
X141005193Y-145405973D01*
X141033966Y-145419646D01*
X141035800Y-145420185D01*
X141037110Y-145421038D01*
X141038220Y-145421771D01*
X141038238Y-145421789D01*
X141169348Y-145509394D01*
X141173395Y-145511070D01*
X141182067Y-145516799D01*
X141201036Y-145539256D01*
X141222011Y-145559856D01*
X141223324Y-145565642D01*
X141227153Y-145570175D01*
X141230969Y-145599324D01*
X141237477Y-145627993D01*
X141235453Y-145633570D01*
X141236224Y-145639454D01*
X141223674Y-145666041D01*
X141213650Y-145693674D01*
X141206945Y-145701482D01*
X141206400Y-145702638D01*
X141205435Y-145703240D01*
X141201399Y-145707942D01*
X138940388Y-147968954D01*
X138879065Y-148002439D01*
X138809373Y-147997455D01*
X138774348Y-147977376D01*
X138753411Y-147960305D01*
X138753412Y-147960305D01*
X138753408Y-147960303D01*
X138753407Y-147960302D01*
X138573049Y-147866091D01*
X138573048Y-147866090D01*
X138573045Y-147866089D01*
X138434202Y-147826362D01*
X138377418Y-147810114D01*
X138377415Y-147810113D01*
X138377413Y-147810113D01*
X138311102Y-147804217D01*
X138258037Y-147799500D01*
X138258032Y-147799500D01*
X137141971Y-147799500D01*
X137141965Y-147799500D01*
X137141964Y-147799501D01*
X137130316Y-147800536D01*
X137022584Y-147810113D01*
X136826954Y-147866089D01*
X136780262Y-147890479D01*
X136646593Y-147960302D01*
X136646591Y-147960303D01*
X136646590Y-147960304D01*
X136547752Y-148040896D01*
X136483355Y-148068005D01*
X136414526Y-148055996D01*
X136381710Y-148032475D01*
X134996819Y-146647584D01*
X134963334Y-146586261D01*
X134960500Y-146559903D01*
X134960500Y-146261006D01*
X134980185Y-146193967D01*
X135019169Y-146155612D01*
X135029629Y-146149127D01*
X135057331Y-146138796D01*
X135110468Y-146099017D01*
X135115086Y-146096155D01*
X135143731Y-146088248D01*
X135171569Y-146077865D01*
X135177039Y-146079054D01*
X135182437Y-146077565D01*
X135210813Y-146086401D01*
X135239842Y-146092716D01*
X135248069Y-146098003D01*
X135249147Y-146098339D01*
X135249795Y-146099112D01*
X135254729Y-146102283D01*
X135302910Y-146138352D01*
X135302913Y-146138354D01*
X135437620Y-146188596D01*
X135437627Y-146188598D01*
X135497155Y-146194999D01*
X135497172Y-146195000D01*
X135750000Y-146195000D01*
X136250000Y-146195000D01*
X136502828Y-146195000D01*
X136502844Y-146194999D01*
X136562372Y-146188598D01*
X136562379Y-146188596D01*
X136697086Y-146138354D01*
X136697093Y-146138350D01*
X136812187Y-146052190D01*
X136812190Y-146052187D01*
X136898350Y-145937093D01*
X136898354Y-145937086D01*
X136948596Y-145802379D01*
X136948598Y-145802372D01*
X136954999Y-145742844D01*
X136955000Y-145742827D01*
X136955000Y-145250000D01*
X136250000Y-145250000D01*
X136250000Y-146195000D01*
X135750000Y-146195000D01*
X135750000Y-144750000D01*
X136250000Y-144750000D01*
X136955000Y-144750000D01*
X136955000Y-144257172D01*
X136954999Y-144257155D01*
X136948598Y-144197627D01*
X136948595Y-144197616D01*
X136900659Y-144069095D01*
X136895674Y-143999404D01*
X136910982Y-143965903D01*
X136909101Y-143964876D01*
X136913350Y-143957093D01*
X136963597Y-143822376D01*
X136963598Y-143822372D01*
X136969999Y-143762844D01*
X136970000Y-143762827D01*
X136970000Y-143250000D01*
X136250000Y-143250000D01*
X136250000Y-144750000D01*
X135750000Y-144750000D01*
X135750000Y-141785000D01*
X135482169Y-141785000D01*
X135437754Y-141789775D01*
X135368995Y-141777369D01*
X135317858Y-141729758D01*
X135300500Y-141666485D01*
X135300500Y-141172439D01*
X135309314Y-141142419D01*
X135316280Y-141111904D01*
X135319081Y-141109159D01*
X135320185Y-141105400D01*
X135343825Y-141084914D01*
X135366187Y-141063006D01*
X135370026Y-141062211D01*
X135372989Y-141059645D01*
X135403964Y-141055191D01*
X135434608Y-141048852D01*
X135438265Y-141050259D01*
G37*
%TD.AperFunction*%
%TA.AperFunction,Conductor*%
G36*
X148725079Y-133577660D02*
G01*
X148743799Y-133593034D01*
X150363181Y-135212416D01*
X150396666Y-135273739D01*
X150399500Y-135300097D01*
X150399500Y-135820234D01*
X150379815Y-135887273D01*
X150378602Y-135889125D01*
X150290609Y-136020814D01*
X150290602Y-136020827D01*
X150230264Y-136166498D01*
X150230261Y-136166510D01*
X150199500Y-136321153D01*
X150199500Y-136478846D01*
X150230261Y-136633489D01*
X150232031Y-136639324D01*
X150229279Y-136640158D01*
X150235503Y-136697359D01*
X150204309Y-136759878D01*
X150144266Y-136795608D01*
X150113445Y-136799500D01*
X147799000Y-136799500D01*
X147731961Y-136779815D01*
X147686206Y-136727011D01*
X147681811Y-136706811D01*
X147675000Y-136700000D01*
X147099000Y-136700000D01*
X147090314Y-136697449D01*
X147081353Y-136698738D01*
X147057312Y-136687759D01*
X147031961Y-136680315D01*
X147026033Y-136673474D01*
X147017797Y-136669713D01*
X147003507Y-136647478D01*
X146986206Y-136627511D01*
X146983918Y-136616996D01*
X146980023Y-136610935D01*
X146975000Y-136576000D01*
X146975000Y-136424000D01*
X146994685Y-136356961D01*
X147047489Y-136311206D01*
X147099000Y-136300000D01*
X147675000Y-136300000D01*
X147691935Y-136283064D01*
X147694685Y-136273701D01*
X147702121Y-136264474D01*
X147701874Y-136264289D01*
X147793352Y-136142088D01*
X147793354Y-136142086D01*
X147843596Y-136007379D01*
X147843598Y-136007372D01*
X147849999Y-135947844D01*
X147850000Y-135947827D01*
X147850000Y-135750000D01*
X146633898Y-135750000D01*
X146612652Y-135743761D01*
X146590561Y-135742181D01*
X146571127Y-135731568D01*
X146566859Y-135730315D01*
X146559585Y-135725265D01*
X146549687Y-135717855D01*
X146507817Y-135661920D01*
X146500000Y-135618590D01*
X146500000Y-135510204D01*
X146519685Y-135443165D01*
X146572489Y-135397410D01*
X146641647Y-135387466D01*
X146667337Y-135394024D01*
X146667517Y-135394091D01*
X146727127Y-135400500D01*
X147222872Y-135400499D01*
X147282483Y-135394091D01*
X147417331Y-135343796D01*
X147509586Y-135274733D01*
X147575050Y-135250316D01*
X147583897Y-135250000D01*
X147850000Y-135250000D01*
X147850000Y-135052172D01*
X147849999Y-135052155D01*
X147843598Y-134992627D01*
X147843596Y-134992620D01*
X147793354Y-134857913D01*
X147793350Y-134857906D01*
X147717738Y-134756902D01*
X147693320Y-134691438D01*
X147708171Y-134623165D01*
X147729320Y-134594913D01*
X148271006Y-134053228D01*
X148271011Y-134053224D01*
X148281214Y-134043020D01*
X148281216Y-134043020D01*
X148393020Y-133931216D01*
X148455400Y-133823170D01*
X148472077Y-133794285D01*
X148507164Y-133663335D01*
X148508471Y-133659489D01*
X148526320Y-133634111D01*
X148542475Y-133607608D01*
X148547759Y-133603630D01*
X148548667Y-133602340D01*
X148550423Y-133601624D01*
X148560780Y-133593829D01*
X148591025Y-133575174D01*
X148658416Y-133556736D01*
X148725079Y-133577660D01*
G37*
%TD.AperFunction*%
%TA.AperFunction,Conductor*%
G36*
X158942539Y-104520185D02*
G01*
X158988294Y-104572989D01*
X158999500Y-104624500D01*
X158999500Y-160182796D01*
X158979815Y-160249835D01*
X158927011Y-160295590D01*
X158857853Y-160305534D01*
X158801189Y-160282062D01*
X158687093Y-160196649D01*
X158687086Y-160196645D01*
X158552379Y-160146403D01*
X158552372Y-160146401D01*
X158492844Y-160140000D01*
X158170000Y-160140000D01*
X158170000Y-162860000D01*
X158492828Y-162860000D01*
X158492844Y-162859999D01*
X158552372Y-162853598D01*
X158552379Y-162853596D01*
X158687086Y-162803354D01*
X158687089Y-162803352D01*
X158801188Y-162717937D01*
X158866652Y-162693519D01*
X158934925Y-162708370D01*
X158984331Y-162757775D01*
X158999500Y-162817203D01*
X158999500Y-174375500D01*
X158979815Y-174442539D01*
X158927011Y-174488294D01*
X158875500Y-174499500D01*
X119624500Y-174499500D01*
X119557461Y-174479815D01*
X119511706Y-174427011D01*
X119500500Y-174375500D01*
X119500500Y-132102135D01*
X121149500Y-132102135D01*
X121149500Y-133897870D01*
X121149501Y-133897876D01*
X121155908Y-133957483D01*
X121206202Y-134092328D01*
X121206206Y-134092335D01*
X121292452Y-134207544D01*
X121292455Y-134207547D01*
X121407664Y-134293793D01*
X121407671Y-134293797D01*
X121539082Y-134342810D01*
X121595016Y-134384681D01*
X121619433Y-134450145D01*
X121604582Y-134518418D01*
X121583431Y-134546673D01*
X121469889Y-134660215D01*
X121344951Y-134832179D01*
X121248444Y-135021585D01*
X121248443Y-135021587D01*
X121248443Y-135021588D01*
X121247779Y-135023633D01*
X121182753Y-135223760D01*
X121149500Y-135433713D01*
X121149500Y-135646286D01*
X121177587Y-135823624D01*
X121182754Y-135856243D01*
X121246401Y-136052128D01*
X121248444Y-136058414D01*
X121344951Y-136247820D01*
X121469890Y-136419786D01*
X121620213Y-136570109D01*
X121792182Y-136695050D01*
X121800946Y-136699516D01*
X121851742Y-136747491D01*
X121868536Y-136815312D01*
X121845998Y-136881447D01*
X121800946Y-136920484D01*
X121792182Y-136924949D01*
X121620213Y-137049890D01*
X121469890Y-137200213D01*
X121344951Y-137372179D01*
X121248444Y-137561585D01*
X121182753Y-137763760D01*
X121149500Y-137973713D01*
X121149500Y-138186286D01*
X121182753Y-138396239D01*
X121182753Y-138396241D01*
X121182754Y-138396243D01*
X121237431Y-138564522D01*
X121248444Y-138598414D01*
X121344951Y-138787820D01*
X121469890Y-138959786D01*
X121620213Y-139110109D01*
X121792179Y-139235048D01*
X121792181Y-139235049D01*
X121792184Y-139235051D01*
X121801493Y-139239794D01*
X121852290Y-139287766D01*
X121869087Y-139355587D01*
X121846552Y-139421722D01*
X121801505Y-139460760D01*
X121792446Y-139465376D01*
X121792440Y-139465380D01*
X121738282Y-139504727D01*
X121738282Y-139504728D01*
X122370591Y-140137037D01*
X122307007Y-140154075D01*
X122192993Y-140219901D01*
X122099901Y-140312993D01*
X122034075Y-140427007D01*
X122017037Y-140490591D01*
X121384728Y-139858282D01*
X121384727Y-139858282D01*
X121345380Y-139912439D01*
X121248904Y-140101782D01*
X121183242Y-140303869D01*
X121183242Y-140303872D01*
X121150000Y-140513753D01*
X121150000Y-140726246D01*
X121183242Y-140936127D01*
X121183242Y-140936130D01*
X121248904Y-141138217D01*
X121345375Y-141327550D01*
X121384728Y-141381716D01*
X122017037Y-140749408D01*
X122034075Y-140812993D01*
X122099901Y-140927007D01*
X122192993Y-141020099D01*
X122307007Y-141085925D01*
X122370589Y-141102962D01*
X121738282Y-141735269D01*
X121738282Y-141735270D01*
X121792449Y-141774624D01*
X121981782Y-141871095D01*
X122183870Y-141936757D01*
X122393754Y-141970000D01*
X122606246Y-141970000D01*
X122816127Y-141936757D01*
X122816130Y-141936757D01*
X123018217Y-141871095D01*
X123207546Y-141774626D01*
X123207552Y-141774622D01*
X123248041Y-141745206D01*
X123313847Y-141721726D01*
X123381901Y-141737551D01*
X123408607Y-141757842D01*
X126131284Y-144480520D01*
X126209717Y-144525803D01*
X126268215Y-144559577D01*
X126420943Y-144600501D01*
X126420946Y-144600501D01*
X126579056Y-144600501D01*
X126579058Y-144600501D01*
X126731785Y-144559577D01*
X126848111Y-144492415D01*
X126910111Y-144475803D01*
X129019992Y-144475803D01*
X129038137Y-144481131D01*
X129057045Y-144481469D01*
X129085261Y-144494968D01*
X129087031Y-144495488D01*
X129088883Y-144496701D01*
X129137202Y-144528987D01*
X129182007Y-144582599D01*
X129190714Y-144651924D01*
X129160559Y-144714952D01*
X129155992Y-144719770D01*
X126973486Y-146902277D01*
X124806286Y-149069477D01*
X124806284Y-149069479D01*
X124776263Y-149099500D01*
X124694481Y-149181281D01*
X124694480Y-149181283D01*
X124682359Y-149202278D01*
X124648237Y-149261379D01*
X124622037Y-149306759D01*
X124615423Y-149318214D01*
X124574499Y-149470942D01*
X124574499Y-149470944D01*
X124574499Y-149639045D01*
X124574500Y-149639058D01*
X124574500Y-160307491D01*
X124554815Y-160374530D01*
X124515598Y-160413029D01*
X124443844Y-160457287D01*
X124319789Y-160581342D01*
X124227687Y-160730663D01*
X124227685Y-160730668D01*
X124204214Y-160801499D01*
X124172501Y-160897203D01*
X124172501Y-160897204D01*
X124172500Y-160897204D01*
X124162000Y-160999983D01*
X124162000Y-162000001D01*
X124162001Y-162000019D01*
X124172500Y-162102796D01*
X124172501Y-162102799D01*
X124225162Y-162261716D01*
X124227686Y-162269334D01*
X124319788Y-162418656D01*
X124443844Y-162542712D01*
X124515596Y-162586968D01*
X124562321Y-162638915D01*
X124574500Y-162692507D01*
X124574500Y-164611894D01*
X124566682Y-164655227D01*
X124550908Y-164697517D01*
X124544501Y-164757116D01*
X124544500Y-164757135D01*
X124544500Y-166242870D01*
X124544501Y-166242876D01*
X124550908Y-166302483D01*
X124601202Y-166437328D01*
X124601206Y-166437335D01*
X124687452Y-166552544D01*
X124687455Y-166552547D01*
X124802664Y-166638793D01*
X124802671Y-166638797D01*
X124847618Y-166655561D01*
X124937517Y-166689091D01*
X124997127Y-166695500D01*
X125594902Y-166695499D01*
X125661941Y-166715183D01*
X125682583Y-166731818D01*
X126819478Y-167868713D01*
X126819480Y-167868716D01*
X126931284Y-167980520D01*
X126953952Y-167993607D01*
X126964270Y-168003221D01*
X126975183Y-168021631D01*
X126989953Y-168037120D01*
X126995681Y-168056209D01*
X126999899Y-168063323D01*
X126999675Y-168069516D01*
X127003029Y-168080691D01*
X127005908Y-168107483D01*
X127056202Y-168242328D01*
X127056206Y-168242335D01*
X127142452Y-168357544D01*
X127142455Y-168357547D01*
X127257664Y-168443793D01*
X127257671Y-168443797D01*
X127392517Y-168494091D01*
X127392516Y-168494091D01*
X127399444Y-168494835D01*
X127452127Y-168500500D01*
X128375500Y-168500499D01*
X128442539Y-168520183D01*
X128488294Y-168572987D01*
X128499500Y-168624499D01*
X128499500Y-170375500D01*
X128479815Y-170442539D01*
X128427011Y-170488294D01*
X128375500Y-170499500D01*
X127452129Y-170499500D01*
X127452123Y-170499501D01*
X127392516Y-170505908D01*
X127257671Y-170556202D01*
X127257664Y-170556206D01*
X127142455Y-170642452D01*
X127142452Y-170642455D01*
X127056206Y-170757664D01*
X127056202Y-170757671D01*
X127005908Y-170892517D01*
X126999501Y-170952116D01*
X126999501Y-170952123D01*
X126999500Y-170952135D01*
X126999500Y-172047870D01*
X126999501Y-172047876D01*
X127005908Y-172107483D01*
X127056202Y-172242328D01*
X127056206Y-172242335D01*
X127142452Y-172357544D01*
X127142455Y-172357547D01*
X127257664Y-172443793D01*
X127257671Y-172443797D01*
X127392517Y-172494091D01*
X127392516Y-172494091D01*
X127399444Y-172494835D01*
X127452127Y-172500500D01*
X130747872Y-172500499D01*
X130807483Y-172494091D01*
X130942331Y-172443796D01*
X131057546Y-172357546D01*
X131143796Y-172242331D01*
X131194091Y-172107483D01*
X131200500Y-172047873D01*
X131200500Y-172047844D01*
X133800000Y-172047844D01*
X133806401Y-172107372D01*
X133806403Y-172107379D01*
X133856645Y-172242086D01*
X133856649Y-172242093D01*
X133942809Y-172357187D01*
X133942812Y-172357190D01*
X134057906Y-172443350D01*
X134057913Y-172443354D01*
X134192620Y-172493596D01*
X134192627Y-172493598D01*
X134252155Y-172499999D01*
X134252172Y-172500000D01*
X135650000Y-172500000D01*
X136150000Y-172500000D01*
X137547828Y-172500000D01*
X137547844Y-172499999D01*
X137607372Y-172493598D01*
X137607379Y-172493596D01*
X137742086Y-172443354D01*
X137742093Y-172443350D01*
X137857187Y-172357190D01*
X137857190Y-172357187D01*
X137943350Y-172242093D01*
X137943354Y-172242086D01*
X137993596Y-172107379D01*
X137993598Y-172107372D01*
X137999999Y-172047844D01*
X140100000Y-172047844D01*
X140106401Y-172107372D01*
X140106403Y-172107379D01*
X140156645Y-172242086D01*
X140156649Y-172242093D01*
X140242809Y-172357187D01*
X140242812Y-172357190D01*
X140357906Y-172443350D01*
X140357913Y-172443354D01*
X140492620Y-172493596D01*
X140492627Y-172493598D01*
X140552155Y-172499999D01*
X140552172Y-172500000D01*
X141950000Y-172500000D01*
X142450000Y-172500000D01*
X143847828Y-172500000D01*
X143847844Y-172499999D01*
X143907372Y-172493598D01*
X143907379Y-172493596D01*
X144042086Y-172443354D01*
X144042093Y-172443350D01*
X144157187Y-172357190D01*
X144157190Y-172357187D01*
X144243350Y-172242093D01*
X144243354Y-172242086D01*
X144293596Y-172107379D01*
X144293598Y-172107372D01*
X144299999Y-172047844D01*
X144300000Y-172047827D01*
X144300000Y-171750000D01*
X142450000Y-171750000D01*
X142450000Y-172500000D01*
X141950000Y-172500000D01*
X141950000Y-171750000D01*
X140100000Y-171750000D01*
X140100000Y-172047844D01*
X137999999Y-172047844D01*
X138000000Y-172047827D01*
X138000000Y-171750000D01*
X136150000Y-171750000D01*
X136150000Y-172500000D01*
X135650000Y-172500000D01*
X135650000Y-171750000D01*
X133800000Y-171750000D01*
X133800000Y-172047844D01*
X131200500Y-172047844D01*
X131200499Y-170952155D01*
X133800000Y-170952155D01*
X133800000Y-171250000D01*
X135650000Y-171250000D01*
X136150000Y-171250000D01*
X138000000Y-171250000D01*
X138000000Y-170952172D01*
X137999999Y-170952155D01*
X140100000Y-170952155D01*
X140100000Y-171250000D01*
X141950000Y-171250000D01*
X142450000Y-171250000D01*
X144300000Y-171250000D01*
X144300000Y-170952172D01*
X144299999Y-170952155D01*
X144293598Y-170892627D01*
X144293596Y-170892620D01*
X144243354Y-170757913D01*
X144243350Y-170757906D01*
X144157190Y-170642812D01*
X144157187Y-170642809D01*
X144042093Y-170556649D01*
X144042086Y-170556645D01*
X143907379Y-170506403D01*
X143907372Y-170506401D01*
X143847844Y-170500000D01*
X142450000Y-170500000D01*
X142450000Y-171250000D01*
X141950000Y-171250000D01*
X141950000Y-170500000D01*
X140552155Y-170500000D01*
X140492627Y-170506401D01*
X140492620Y-170506403D01*
X140357913Y-170556645D01*
X140357906Y-170556649D01*
X140242812Y-170642809D01*
X140242809Y-170642812D01*
X140156649Y-170757906D01*
X140156645Y-170757913D01*
X140106403Y-170892620D01*
X140106401Y-170892627D01*
X140100000Y-170952155D01*
X137999999Y-170952155D01*
X137993598Y-170892627D01*
X137993596Y-170892620D01*
X137943354Y-170757913D01*
X137943350Y-170757906D01*
X137857190Y-170642812D01*
X137857187Y-170642809D01*
X137742093Y-170556649D01*
X137742086Y-170556645D01*
X137607379Y-170506403D01*
X137607372Y-170506401D01*
X137547844Y-170500000D01*
X136150000Y-170500000D01*
X136150000Y-171250000D01*
X135650000Y-171250000D01*
X135650000Y-170500000D01*
X134252155Y-170500000D01*
X134192627Y-170506401D01*
X134192620Y-170506403D01*
X134057913Y-170556645D01*
X134057906Y-170556649D01*
X133942812Y-170642809D01*
X133942809Y-170642812D01*
X133856649Y-170757906D01*
X133856645Y-170757913D01*
X133806403Y-170892620D01*
X133806401Y-170892627D01*
X133800000Y-170952155D01*
X131200499Y-170952155D01*
X131200499Y-170952128D01*
X131194091Y-170892517D01*
X131143884Y-170757906D01*
X131143797Y-170757671D01*
X131143793Y-170757664D01*
X131057547Y-170642455D01*
X131057544Y-170642452D01*
X130942335Y-170556206D01*
X130942328Y-170556202D01*
X130807482Y-170505908D01*
X130807483Y-170505908D01*
X130747883Y-170499501D01*
X130747881Y-170499500D01*
X130747873Y-170499500D01*
X130747865Y-170499500D01*
X129824500Y-170499500D01*
X129757461Y-170479815D01*
X129711706Y-170427011D01*
X129700500Y-170375500D01*
X129700500Y-168624499D01*
X129720185Y-168557460D01*
X129772989Y-168511705D01*
X129824500Y-168500499D01*
X130747871Y-168500499D01*
X130747872Y-168500499D01*
X130807483Y-168494091D01*
X130942331Y-168443796D01*
X131057546Y-168357546D01*
X131143796Y-168242331D01*
X131194091Y-168107483D01*
X131200500Y-168047873D01*
X131200500Y-168047844D01*
X133800000Y-168047844D01*
X133806401Y-168107372D01*
X133806403Y-168107379D01*
X133856645Y-168242086D01*
X133856649Y-168242093D01*
X133942809Y-168357187D01*
X133942812Y-168357190D01*
X134057906Y-168443350D01*
X134057913Y-168443354D01*
X134192620Y-168493596D01*
X134192627Y-168493598D01*
X134252155Y-168499999D01*
X134252172Y-168500000D01*
X135650000Y-168500000D01*
X136150000Y-168500000D01*
X137547828Y-168500000D01*
X137547844Y-168499999D01*
X137607372Y-168493598D01*
X137607379Y-168493596D01*
X137742086Y-168443354D01*
X137742093Y-168443350D01*
X137857187Y-168357190D01*
X137857190Y-168357187D01*
X137943350Y-168242093D01*
X137943354Y-168242086D01*
X137993596Y-168107379D01*
X137993598Y-168107372D01*
X137999999Y-168047844D01*
X140100000Y-168047844D01*
X140106401Y-168107372D01*
X140106403Y-168107379D01*
X140156645Y-168242086D01*
X140156649Y-168242093D01*
X140242809Y-168357187D01*
X140242812Y-168357190D01*
X140357906Y-168443350D01*
X140357913Y-168443354D01*
X140492620Y-168493596D01*
X140492627Y-168493598D01*
X140552155Y-168499999D01*
X140552172Y-168500000D01*
X141950000Y-168500000D01*
X142450000Y-168500000D01*
X143847828Y-168500000D01*
X143847844Y-168499999D01*
X143907372Y-168493598D01*
X143907379Y-168493596D01*
X144042086Y-168443354D01*
X144042093Y-168443350D01*
X144157187Y-168357190D01*
X144157190Y-168357187D01*
X144243350Y-168242093D01*
X144243354Y-168242086D01*
X144293596Y-168107379D01*
X144293598Y-168107372D01*
X144299999Y-168047844D01*
X144300000Y-168047827D01*
X144300000Y-167750000D01*
X142450000Y-167750000D01*
X142450000Y-168500000D01*
X141950000Y-168500000D01*
X141950000Y-167750000D01*
X140100000Y-167750000D01*
X140100000Y-168047844D01*
X137999999Y-168047844D01*
X138000000Y-168047827D01*
X138000000Y-167750000D01*
X136150000Y-167750000D01*
X136150000Y-168500000D01*
X135650000Y-168500000D01*
X135650000Y-167750000D01*
X133800000Y-167750000D01*
X133800000Y-168047844D01*
X131200500Y-168047844D01*
X131200499Y-166952155D01*
X133800000Y-166952155D01*
X133800000Y-167250000D01*
X135650000Y-167250000D01*
X136150000Y-167250000D01*
X138000000Y-167250000D01*
X138000000Y-166952172D01*
X137999999Y-166952155D01*
X140100000Y-166952155D01*
X140100000Y-167250000D01*
X141950000Y-167250000D01*
X142450000Y-167250000D01*
X144300000Y-167250000D01*
X144300000Y-166952172D01*
X144299999Y-166952155D01*
X144293598Y-166892627D01*
X144293596Y-166892620D01*
X144243354Y-166757913D01*
X144243350Y-166757906D01*
X144157190Y-166642812D01*
X144157187Y-166642809D01*
X144042093Y-166556649D01*
X144042086Y-166556645D01*
X143907379Y-166506403D01*
X143907372Y-166506401D01*
X143847844Y-166500000D01*
X142450000Y-166500000D01*
X142450000Y-167250000D01*
X141950000Y-167250000D01*
X141950000Y-166500000D01*
X140552155Y-166500000D01*
X140492627Y-166506401D01*
X140492620Y-166506403D01*
X140357913Y-166556645D01*
X140357906Y-166556649D01*
X140242812Y-166642809D01*
X140242809Y-166642812D01*
X140156649Y-166757906D01*
X140156645Y-166757913D01*
X140106403Y-166892620D01*
X140106401Y-166892627D01*
X140100000Y-166952155D01*
X137999999Y-166952155D01*
X137993598Y-166892627D01*
X137993596Y-166892620D01*
X137943354Y-166757913D01*
X137943350Y-166757906D01*
X137857190Y-166642812D01*
X137857187Y-166642809D01*
X137742093Y-166556649D01*
X137742086Y-166556645D01*
X137607379Y-166506403D01*
X137607372Y-166506401D01*
X137547844Y-166500000D01*
X136150000Y-166500000D01*
X136150000Y-167250000D01*
X135650000Y-167250000D01*
X135650000Y-166500000D01*
X134252155Y-166500000D01*
X134192627Y-166506401D01*
X134192620Y-166506403D01*
X134057913Y-166556645D01*
X134057906Y-166556649D01*
X133942812Y-166642809D01*
X133942809Y-166642812D01*
X133856649Y-166757906D01*
X133856645Y-166757913D01*
X133806403Y-166892620D01*
X133806401Y-166892627D01*
X133800000Y-166952155D01*
X131200499Y-166952155D01*
X131200499Y-166952128D01*
X131194091Y-166892517D01*
X131143884Y-166757906D01*
X131143797Y-166757671D01*
X131143793Y-166757664D01*
X131057547Y-166642455D01*
X131057544Y-166642452D01*
X130942335Y-166556206D01*
X130942328Y-166556202D01*
X130807482Y-166505908D01*
X130807483Y-166505908D01*
X130747883Y-166499501D01*
X130747881Y-166499500D01*
X130747873Y-166499500D01*
X130747865Y-166499500D01*
X128194202Y-166499500D01*
X128127163Y-166479815D01*
X128081408Y-166427011D01*
X128071464Y-166357853D01*
X128078020Y-166332168D01*
X128089090Y-166302485D01*
X128089091Y-166302483D01*
X128095500Y-166242873D01*
X128095500Y-165724500D01*
X128115185Y-165657461D01*
X128167989Y-165611706D01*
X128219500Y-165600500D01*
X128907199Y-165600500D01*
X128974238Y-165620185D01*
X129019993Y-165672989D01*
X129024903Y-165685492D01*
X129039739Y-165730263D01*
X129052685Y-165769331D01*
X129052687Y-165769336D01*
X129072710Y-165801798D01*
X129144788Y-165918656D01*
X129268844Y-166042712D01*
X129418166Y-166134814D01*
X129584703Y-166189999D01*
X129687491Y-166200500D01*
X130312508Y-166200499D01*
X130312516Y-166200498D01*
X130312519Y-166200498D01*
X130368802Y-166194748D01*
X130415297Y-166189999D01*
X130581834Y-166134814D01*
X130731156Y-166042712D01*
X130825175Y-165948692D01*
X130886494Y-165915210D01*
X130956186Y-165920194D01*
X131000534Y-165948695D01*
X131094154Y-166042315D01*
X131243375Y-166134356D01*
X131243380Y-166134358D01*
X131409802Y-166189505D01*
X131409809Y-166189506D01*
X131512519Y-166199999D01*
X132075000Y-166199999D01*
X132137472Y-166199999D01*
X132137486Y-166199998D01*
X132240197Y-166189505D01*
X132406619Y-166134358D01*
X132406624Y-166134356D01*
X132555845Y-166042315D01*
X132679815Y-165918345D01*
X132771856Y-165769124D01*
X132771858Y-165769119D01*
X132827005Y-165602697D01*
X132827006Y-165602690D01*
X132837499Y-165499986D01*
X132837500Y-165499973D01*
X132837500Y-165250000D01*
X132075000Y-165250000D01*
X132075000Y-166199999D01*
X131512519Y-166199999D01*
X131574999Y-166199998D01*
X131575000Y-166199998D01*
X131575000Y-164750000D01*
X132075000Y-164750000D01*
X132837499Y-164750000D01*
X132837499Y-164500028D01*
X132837498Y-164500013D01*
X132827005Y-164397302D01*
X132771858Y-164230880D01*
X132771856Y-164230875D01*
X132679815Y-164081654D01*
X132555845Y-163957684D01*
X132406624Y-163865643D01*
X132406619Y-163865641D01*
X132240197Y-163810494D01*
X132240190Y-163810493D01*
X132137486Y-163800000D01*
X132075000Y-163800000D01*
X132075000Y-164750000D01*
X131575000Y-164750000D01*
X131575000Y-163800000D01*
X131574999Y-163799999D01*
X131512528Y-163800000D01*
X131512511Y-163800001D01*
X131409802Y-163810494D01*
X131243380Y-163865641D01*
X131243375Y-163865643D01*
X131094157Y-163957682D01*
X131000534Y-164051305D01*
X130939210Y-164084789D01*
X130869519Y-164079805D01*
X130825172Y-164051304D01*
X130731157Y-163957289D01*
X130731156Y-163957288D01*
X130581834Y-163865186D01*
X130415297Y-163810001D01*
X130415295Y-163810000D01*
X130312510Y-163799500D01*
X129687498Y-163799500D01*
X129687480Y-163799501D01*
X129584703Y-163810000D01*
X129584700Y-163810001D01*
X129418168Y-163865185D01*
X129418163Y-163865187D01*
X129268842Y-163957289D01*
X129144789Y-164081342D01*
X129052687Y-164230663D01*
X129052685Y-164230668D01*
X129052615Y-164230880D01*
X129026097Y-164310908D01*
X129024905Y-164314504D01*
X128985132Y-164371949D01*
X128920616Y-164398772D01*
X128907199Y-164399500D01*
X127929760Y-164399500D01*
X127862721Y-164379815D01*
X127855449Y-164374767D01*
X127837331Y-164361204D01*
X127837328Y-164361202D01*
X127702482Y-164310908D01*
X127702483Y-164310908D01*
X127642883Y-164304501D01*
X127642881Y-164304500D01*
X127642873Y-164304500D01*
X127642864Y-164304500D01*
X126637129Y-164304500D01*
X126637123Y-164304501D01*
X126577516Y-164310908D01*
X126442671Y-164361202D01*
X126442669Y-164361203D01*
X126401680Y-164391888D01*
X126394449Y-164397302D01*
X126394311Y-164397405D01*
X126328847Y-164421822D01*
X126260574Y-164406971D01*
X126245689Y-164397405D01*
X126245551Y-164397302D01*
X126215449Y-164374767D01*
X126197330Y-164361203D01*
X126197328Y-164361202D01*
X126062482Y-164310908D01*
X126062483Y-164310908D01*
X126002883Y-164304501D01*
X126002881Y-164304500D01*
X126002873Y-164304500D01*
X126002865Y-164304500D01*
X125899500Y-164304500D01*
X125832461Y-164284815D01*
X125786706Y-164232011D01*
X125775500Y-164180500D01*
X125775500Y-162692507D01*
X125775900Y-162691144D01*
X125775530Y-162689772D01*
X125785714Y-162657720D01*
X125795185Y-162625468D01*
X125796397Y-162624098D01*
X125796689Y-162623183D01*
X125800175Y-162619834D01*
X125820384Y-162597026D01*
X125827042Y-162591509D01*
X125906156Y-162542712D01*
X126003920Y-162444947D01*
X126008384Y-162441249D01*
X126035363Y-162429640D01*
X126061142Y-162415564D01*
X126067088Y-162415989D01*
X126072565Y-162413633D01*
X126101536Y-162418452D01*
X126130834Y-162420548D01*
X126136667Y-162424297D01*
X126141487Y-162425099D01*
X126150208Y-162432999D01*
X126175181Y-162449049D01*
X126268844Y-162542712D01*
X126418166Y-162634814D01*
X126584703Y-162689999D01*
X126687491Y-162700500D01*
X127312508Y-162700499D01*
X127312516Y-162700498D01*
X127312519Y-162700498D01*
X127390745Y-162692507D01*
X127415297Y-162689999D01*
X127581834Y-162634814D01*
X127731156Y-162542712D01*
X127855212Y-162418656D01*
X127947314Y-162269334D01*
X127975095Y-162185495D01*
X128014868Y-162128051D01*
X128079384Y-162101228D01*
X128092801Y-162100500D01*
X128974281Y-162100500D01*
X129041320Y-162120185D01*
X129084765Y-162168205D01*
X129104947Y-162207814D01*
X129104948Y-162207815D01*
X129229890Y-162379786D01*
X129380213Y-162530109D01*
X129552179Y-162655048D01*
X129552181Y-162655049D01*
X129552184Y-162655051D01*
X129741588Y-162751557D01*
X129943757Y-162817246D01*
X130153713Y-162850500D01*
X130153714Y-162850500D01*
X130366286Y-162850500D01*
X130366287Y-162850500D01*
X130576243Y-162817246D01*
X130778412Y-162751557D01*
X130967816Y-162655051D01*
X131008534Y-162625468D01*
X131139786Y-162530109D01*
X131139788Y-162530106D01*
X131139792Y-162530104D01*
X131290104Y-162379792D01*
X131290106Y-162379788D01*
X131290109Y-162379786D01*
X131375890Y-162261717D01*
X131415051Y-162207816D01*
X131419793Y-162198508D01*
X131467763Y-162147711D01*
X131535583Y-162130911D01*
X131601719Y-162153445D01*
X131640763Y-162198500D01*
X131645373Y-162207547D01*
X131684728Y-162261716D01*
X132317037Y-161629408D01*
X132334075Y-161692993D01*
X132399901Y-161807007D01*
X132492993Y-161900099D01*
X132607007Y-161965925D01*
X132670590Y-161982962D01*
X132038282Y-162615269D01*
X132038282Y-162615270D01*
X132092449Y-162654624D01*
X132281782Y-162751095D01*
X132483870Y-162816757D01*
X132693754Y-162850000D01*
X132906246Y-162850000D01*
X133116127Y-162816757D01*
X133116130Y-162816757D01*
X133318217Y-162751095D01*
X133507554Y-162654622D01*
X133561716Y-162615270D01*
X133561717Y-162615270D01*
X132929408Y-161982962D01*
X132992993Y-161965925D01*
X133107007Y-161900099D01*
X133200099Y-161807007D01*
X133265925Y-161692993D01*
X133282962Y-161629409D01*
X133915270Y-162261717D01*
X133915270Y-162261716D01*
X133954622Y-162207555D01*
X133959232Y-162198507D01*
X134007205Y-162147709D01*
X134075025Y-162130912D01*
X134141161Y-162153447D01*
X134180204Y-162198504D01*
X134184949Y-162207817D01*
X134309890Y-162379786D01*
X134460213Y-162530109D01*
X134632179Y-162655048D01*
X134632181Y-162655049D01*
X134632184Y-162655051D01*
X134821588Y-162751557D01*
X135023757Y-162817246D01*
X135233713Y-162850500D01*
X135233714Y-162850500D01*
X135446286Y-162850500D01*
X135446287Y-162850500D01*
X135656243Y-162817246D01*
X135858412Y-162751557D01*
X136047816Y-162655051D01*
X136088534Y-162625468D01*
X136219786Y-162530109D01*
X136219788Y-162530106D01*
X136219792Y-162530104D01*
X136239476Y-162510419D01*
X136300796Y-162476934D01*
X136370488Y-162481917D01*
X136414838Y-162510419D01*
X137268793Y-163364374D01*
X137268803Y-163364385D01*
X137273133Y-163368715D01*
X137273134Y-163368716D01*
X137384938Y-163480520D01*
X137384940Y-163480521D01*
X137384944Y-163480524D01*
X137507542Y-163551305D01*
X137521870Y-163559577D01*
X137603106Y-163581344D01*
X137674596Y-163600500D01*
X137674597Y-163600500D01*
X143913331Y-163600500D01*
X143913347Y-163600501D01*
X143920943Y-163600501D01*
X144079054Y-163600501D01*
X144079057Y-163600501D01*
X144231785Y-163559577D01*
X144281904Y-163530639D01*
X144368716Y-163480520D01*
X144480520Y-163368716D01*
X144480520Y-163368714D01*
X144490728Y-163358507D01*
X144490730Y-163358504D01*
X145015478Y-162833755D01*
X145076799Y-162800272D01*
X145141473Y-162803506D01*
X145183757Y-162817246D01*
X145393713Y-162850500D01*
X145393714Y-162850500D01*
X145606286Y-162850500D01*
X145606287Y-162850500D01*
X145816243Y-162817246D01*
X146018412Y-162751557D01*
X146207816Y-162655051D01*
X146280379Y-162602331D01*
X146379784Y-162530110D01*
X146379784Y-162530109D01*
X146379792Y-162530104D01*
X146493329Y-162416566D01*
X146554648Y-162383084D01*
X146624340Y-162388068D01*
X146680274Y-162429939D01*
X146697189Y-162460917D01*
X146746202Y-162592328D01*
X146746206Y-162592335D01*
X146832452Y-162707544D01*
X146832455Y-162707547D01*
X146947664Y-162793793D01*
X146947673Y-162793798D01*
X147058832Y-162835257D01*
X147076558Y-162848526D01*
X147096703Y-162857726D01*
X147103984Y-162869056D01*
X147114766Y-162877127D01*
X147122504Y-162897874D01*
X147134477Y-162916504D01*
X147137628Y-162938421D01*
X147139184Y-162942592D01*
X147139500Y-162951439D01*
X147139500Y-163153330D01*
X147139499Y-163153348D01*
X147139499Y-163319054D01*
X147139498Y-163319054D01*
X147180423Y-163471785D01*
X147209358Y-163521900D01*
X147209359Y-163521904D01*
X147209360Y-163521904D01*
X147243676Y-163581343D01*
X147259479Y-163608714D01*
X147259481Y-163608717D01*
X147378349Y-163727585D01*
X147378355Y-163727590D01*
X147950681Y-164299916D01*
X147984166Y-164361239D01*
X147987000Y-164387597D01*
X147987000Y-165000001D01*
X147987001Y-165000019D01*
X147997500Y-165102796D01*
X147997501Y-165102799D01*
X148046279Y-165250000D01*
X148052686Y-165269334D01*
X148144788Y-165418656D01*
X148268844Y-165542712D01*
X148418166Y-165634814D01*
X148584703Y-165689999D01*
X148687491Y-165700500D01*
X149312508Y-165700499D01*
X149312516Y-165700498D01*
X149312519Y-165700498D01*
X149368802Y-165694748D01*
X149415297Y-165689999D01*
X149581834Y-165634814D01*
X149731156Y-165542712D01*
X149825175Y-165448692D01*
X149886494Y-165415210D01*
X149956186Y-165420194D01*
X150000534Y-165448695D01*
X150094154Y-165542315D01*
X150243375Y-165634356D01*
X150243380Y-165634358D01*
X150416230Y-165691635D01*
X150415694Y-165693251D01*
X150469544Y-165722418D01*
X150503237Y-165783627D01*
X150498489Y-165853336D01*
X150469843Y-165898078D01*
X150378210Y-165989711D01*
X150290609Y-166120814D01*
X150290602Y-166120827D01*
X150230264Y-166266498D01*
X150230261Y-166266508D01*
X150203769Y-166399692D01*
X150171384Y-166461603D01*
X150110668Y-166496177D01*
X150082152Y-166499500D01*
X147352129Y-166499500D01*
X147352123Y-166499501D01*
X147292516Y-166505908D01*
X147157671Y-166556202D01*
X147157664Y-166556206D01*
X147042455Y-166642452D01*
X147042452Y-166642455D01*
X146956206Y-166757664D01*
X146956202Y-166757671D01*
X146905908Y-166892517D01*
X146899501Y-166952116D01*
X146899501Y-166952123D01*
X146899500Y-166952135D01*
X146899500Y-168047870D01*
X146899501Y-168047876D01*
X146905908Y-168107483D01*
X146956202Y-168242328D01*
X146956206Y-168242335D01*
X147042452Y-168357544D01*
X147042455Y-168357547D01*
X147157664Y-168443793D01*
X147157671Y-168443797D01*
X147292517Y-168494091D01*
X147292516Y-168494091D01*
X147299444Y-168494835D01*
X147352127Y-168500500D01*
X148275500Y-168500499D01*
X148342539Y-168520183D01*
X148388294Y-168572987D01*
X148399500Y-168624499D01*
X148399500Y-170375500D01*
X148379815Y-170442539D01*
X148327011Y-170488294D01*
X148275500Y-170499500D01*
X147352129Y-170499500D01*
X147352123Y-170499501D01*
X147292516Y-170505908D01*
X147157671Y-170556202D01*
X147157664Y-170556206D01*
X147042455Y-170642452D01*
X147042452Y-170642455D01*
X146956206Y-170757664D01*
X146956202Y-170757671D01*
X146905908Y-170892517D01*
X146899501Y-170952116D01*
X146899501Y-170952123D01*
X146899500Y-170952135D01*
X146899500Y-172047870D01*
X146899501Y-172047876D01*
X146905908Y-172107483D01*
X146956202Y-172242328D01*
X146956206Y-172242335D01*
X147042452Y-172357544D01*
X147042455Y-172357547D01*
X147157664Y-172443793D01*
X147157671Y-172443797D01*
X147292517Y-172494091D01*
X147292516Y-172494091D01*
X147299444Y-172494835D01*
X147352127Y-172500500D01*
X150647872Y-172500499D01*
X150707483Y-172494091D01*
X150842331Y-172443796D01*
X150957546Y-172357546D01*
X151043796Y-172242331D01*
X151094091Y-172107483D01*
X151100500Y-172047873D01*
X151100499Y-170952128D01*
X151094091Y-170892517D01*
X151043884Y-170757906D01*
X151043797Y-170757671D01*
X151043793Y-170757664D01*
X150957547Y-170642455D01*
X150957544Y-170642452D01*
X150842335Y-170556206D01*
X150842328Y-170556202D01*
X150707482Y-170505908D01*
X150707483Y-170505908D01*
X150647883Y-170499501D01*
X150647881Y-170499500D01*
X150647873Y-170499500D01*
X150647865Y-170499500D01*
X149724500Y-170499500D01*
X149657461Y-170479815D01*
X149611706Y-170427011D01*
X149600500Y-170375500D01*
X149600500Y-168624499D01*
X149620185Y-168557460D01*
X149672989Y-168511705D01*
X149724500Y-168500499D01*
X150647871Y-168500499D01*
X150647872Y-168500499D01*
X150707483Y-168494091D01*
X150842331Y-168443796D01*
X150957546Y-168357546D01*
X151043796Y-168242331D01*
X151049886Y-168226002D01*
X151066609Y-168181167D01*
X151108480Y-168125233D01*
X151173944Y-168100816D01*
X151182791Y-168100500D01*
X151738994Y-168100500D01*
X151806033Y-168120185D01*
X151851788Y-168172989D01*
X151855171Y-168181156D01*
X151855175Y-168181167D01*
X151855176Y-168181168D01*
X151861205Y-168197333D01*
X151861205Y-168197334D01*
X151947452Y-168312544D01*
X151947455Y-168312547D01*
X152062664Y-168398793D01*
X152062671Y-168398797D01*
X152197517Y-168449091D01*
X152197516Y-168449091D01*
X152204444Y-168449835D01*
X152257127Y-168455500D01*
X153742872Y-168455499D01*
X153802483Y-168449091D01*
X153937331Y-168398796D01*
X154052546Y-168312546D01*
X154138796Y-168197331D01*
X154189091Y-168062483D01*
X154195500Y-168002873D01*
X154195499Y-166997128D01*
X154189091Y-166937517D01*
X154138796Y-166802669D01*
X154102282Y-166753892D01*
X154077865Y-166688431D01*
X154092716Y-166620158D01*
X154102283Y-166605271D01*
X154138352Y-166557089D01*
X154138354Y-166557086D01*
X154188596Y-166422379D01*
X154188598Y-166422372D01*
X154194999Y-166362844D01*
X154195000Y-166362827D01*
X154195000Y-166110000D01*
X151768443Y-166110000D01*
X151701404Y-166090315D01*
X151665341Y-166054890D01*
X151621792Y-165989715D01*
X151621786Y-165989707D01*
X151510292Y-165878213D01*
X151510288Y-165878210D01*
X151431304Y-165825434D01*
X151411551Y-165801798D01*
X151390200Y-165779579D01*
X151389343Y-165775224D01*
X151386499Y-165771821D01*
X151382660Y-165741255D01*
X151376712Y-165711023D01*
X151378344Y-165706897D01*
X151377792Y-165702496D01*
X151391087Y-165674707D01*
X151402428Y-165646058D01*
X151406569Y-165642348D01*
X151407947Y-165639469D01*
X151427877Y-165621604D01*
X151608682Y-165491795D01*
X151632497Y-165483448D01*
X151654642Y-165471357D01*
X151664906Y-165472091D01*
X151674620Y-165468687D01*
X151699164Y-165474540D01*
X151724334Y-165476341D01*
X151732573Y-165482509D01*
X151742584Y-165484897D01*
X151760068Y-165503092D01*
X151780267Y-165518213D01*
X151783862Y-165527854D01*
X151790995Y-165535276D01*
X151795866Y-165560036D01*
X151804684Y-165583677D01*
X151805000Y-165592523D01*
X151805000Y-165610000D01*
X152750000Y-165610000D01*
X153250000Y-165610000D01*
X154195000Y-165610000D01*
X154195000Y-165357172D01*
X154194999Y-165357155D01*
X154188598Y-165297627D01*
X154188596Y-165297620D01*
X154138354Y-165162913D01*
X154138350Y-165162906D01*
X154052190Y-165047812D01*
X154052187Y-165047809D01*
X153937093Y-164961649D01*
X153937086Y-164961645D01*
X153802379Y-164911403D01*
X153802372Y-164911401D01*
X153742844Y-164905000D01*
X153250000Y-164905000D01*
X153250000Y-165610000D01*
X152750000Y-165610000D01*
X152750000Y-164905000D01*
X152257155Y-164905000D01*
X152197627Y-164911401D01*
X152197620Y-164911403D01*
X152062913Y-164961645D01*
X152062910Y-164961647D01*
X152035811Y-164981934D01*
X151970347Y-165006351D01*
X151902074Y-164991499D01*
X151852668Y-164942094D01*
X151837500Y-164882667D01*
X151837500Y-164750000D01*
X150949000Y-164750000D01*
X150881961Y-164730315D01*
X150836206Y-164677511D01*
X150825000Y-164626000D01*
X150825000Y-164500000D01*
X150699000Y-164500000D01*
X150631961Y-164480315D01*
X150586206Y-164427511D01*
X150575000Y-164376000D01*
X150575000Y-164250000D01*
X151075000Y-164250000D01*
X151837499Y-164250000D01*
X151837499Y-164000028D01*
X151837498Y-164000013D01*
X151827005Y-163897302D01*
X151771858Y-163730880D01*
X151771856Y-163730875D01*
X151679815Y-163581654D01*
X151555845Y-163457684D01*
X151406624Y-163365643D01*
X151406619Y-163365641D01*
X151240197Y-163310494D01*
X151240190Y-163310493D01*
X151137486Y-163300000D01*
X151075000Y-163300000D01*
X151075000Y-164250000D01*
X150575000Y-164250000D01*
X150575000Y-163300000D01*
X150574999Y-163299999D01*
X150512528Y-163300000D01*
X150512511Y-163300001D01*
X150409802Y-163310494D01*
X150243380Y-163365641D01*
X150243375Y-163365643D01*
X150094157Y-163457682D01*
X150000534Y-163551305D01*
X149939210Y-163584789D01*
X149869519Y-163579805D01*
X149825172Y-163551304D01*
X149731157Y-163457289D01*
X149731156Y-163457288D01*
X149587557Y-163368716D01*
X149581836Y-163365187D01*
X149581831Y-163365185D01*
X149561660Y-163358501D01*
X149415297Y-163310001D01*
X149415295Y-163310000D01*
X149312516Y-163299500D01*
X148700097Y-163299500D01*
X148633058Y-163279815D01*
X148612416Y-163263181D01*
X148411415Y-163062180D01*
X148377930Y-163000857D01*
X148382914Y-162931165D01*
X148424786Y-162875232D01*
X148490250Y-162850815D01*
X148499096Y-162850499D01*
X148937871Y-162850499D01*
X148937872Y-162850499D01*
X148997483Y-162844091D01*
X149132331Y-162793796D01*
X149247546Y-162707546D01*
X149333796Y-162592331D01*
X149384091Y-162457483D01*
X149390500Y-162397873D01*
X149390499Y-160602128D01*
X149384091Y-160542517D01*
X149382810Y-160539083D01*
X149333797Y-160407671D01*
X149333793Y-160407664D01*
X149247547Y-160292455D01*
X149247544Y-160292452D01*
X149132335Y-160206206D01*
X149132328Y-160206202D01*
X148997482Y-160155908D01*
X148997483Y-160155908D01*
X148937883Y-160149501D01*
X148937881Y-160149500D01*
X148937873Y-160149500D01*
X148937865Y-160149500D01*
X148724500Y-160149500D01*
X148715814Y-160146949D01*
X148706853Y-160148238D01*
X148682812Y-160137259D01*
X148657461Y-160129815D01*
X148651533Y-160122974D01*
X148643297Y-160119213D01*
X148629007Y-160096978D01*
X148611706Y-160077011D01*
X148609418Y-160066496D01*
X148605523Y-160060435D01*
X148600500Y-160025500D01*
X148600500Y-159917800D01*
X148620185Y-159850761D01*
X148672989Y-159805006D01*
X148685482Y-159800099D01*
X148769334Y-159772314D01*
X148918656Y-159680212D01*
X149042712Y-159556156D01*
X149088740Y-159481532D01*
X149140685Y-159434809D01*
X149209647Y-159423586D01*
X149273730Y-159451429D01*
X149281958Y-159458949D01*
X150282719Y-160459710D01*
X150316204Y-160521033D01*
X150311220Y-160590725D01*
X150300578Y-160612486D01*
X150227688Y-160730661D01*
X150227685Y-160730668D01*
X150204214Y-160801499D01*
X150172501Y-160897203D01*
X150172501Y-160897204D01*
X150172500Y-160897204D01*
X150162000Y-160999983D01*
X150162000Y-162000001D01*
X150162001Y-162000019D01*
X150172500Y-162102796D01*
X150172501Y-162102799D01*
X150225162Y-162261716D01*
X150227686Y-162269334D01*
X150319788Y-162418656D01*
X150443844Y-162542712D01*
X150593166Y-162634814D01*
X150759703Y-162689999D01*
X150862491Y-162700500D01*
X151487508Y-162700499D01*
X151487516Y-162700498D01*
X151487519Y-162700498D01*
X151565745Y-162692507D01*
X151590297Y-162689999D01*
X151756834Y-162634814D01*
X151906156Y-162542712D01*
X151999819Y-162449049D01*
X152061142Y-162415564D01*
X152130834Y-162420548D01*
X152175181Y-162449049D01*
X152268844Y-162542712D01*
X152418166Y-162634814D01*
X152584703Y-162689999D01*
X152687491Y-162700500D01*
X153312508Y-162700499D01*
X153312516Y-162700498D01*
X153312519Y-162700498D01*
X153390745Y-162692507D01*
X153415297Y-162689999D01*
X153581834Y-162634814D01*
X153731156Y-162542712D01*
X153797066Y-162476801D01*
X153858385Y-162443319D01*
X153928077Y-162448303D01*
X153984011Y-162490174D01*
X154000926Y-162521152D01*
X154031202Y-162602328D01*
X154031206Y-162602335D01*
X154117452Y-162717544D01*
X154117455Y-162717547D01*
X154232664Y-162803793D01*
X154232671Y-162803797D01*
X154367517Y-162854091D01*
X154367516Y-162854091D01*
X154374444Y-162854835D01*
X154427127Y-162860500D01*
X155572872Y-162860499D01*
X155632483Y-162854091D01*
X155767331Y-162803796D01*
X155882546Y-162717546D01*
X155968796Y-162602331D01*
X156019091Y-162467483D01*
X156025500Y-162407873D01*
X156025500Y-162407844D01*
X156895000Y-162407844D01*
X156901401Y-162467372D01*
X156901403Y-162467379D01*
X156951645Y-162602086D01*
X156951649Y-162602093D01*
X157037809Y-162717187D01*
X157037812Y-162717190D01*
X157152906Y-162803350D01*
X157152913Y-162803354D01*
X157287620Y-162853596D01*
X157287627Y-162853598D01*
X157347155Y-162859999D01*
X157347172Y-162860000D01*
X157670000Y-162860000D01*
X157670000Y-161750000D01*
X156895000Y-161750000D01*
X156895000Y-162407844D01*
X156025500Y-162407844D01*
X156025499Y-161499999D01*
X156025499Y-160592155D01*
X156895000Y-160592155D01*
X156895000Y-161250000D01*
X157670000Y-161250000D01*
X157670000Y-160140000D01*
X157347155Y-160140000D01*
X157287627Y-160146401D01*
X157287620Y-160146403D01*
X157152913Y-160196645D01*
X157152906Y-160196649D01*
X157037812Y-160282809D01*
X157037809Y-160282812D01*
X156951649Y-160397906D01*
X156951645Y-160397913D01*
X156901403Y-160532620D01*
X156901401Y-160532627D01*
X156895000Y-160592155D01*
X156025499Y-160592155D01*
X156025499Y-160592129D01*
X156025498Y-160592123D01*
X156024647Y-160584210D01*
X156019797Y-160539083D01*
X156019091Y-160532516D01*
X155968797Y-160397671D01*
X155968793Y-160397664D01*
X155882547Y-160282455D01*
X155882544Y-160282452D01*
X155767335Y-160196206D01*
X155767328Y-160196202D01*
X155632482Y-160145908D01*
X155632483Y-160145908D01*
X155572883Y-160139501D01*
X155572881Y-160139500D01*
X155572873Y-160139500D01*
X155572864Y-160139500D01*
X154427129Y-160139500D01*
X154427123Y-160139501D01*
X154367516Y-160145908D01*
X154232671Y-160196202D01*
X154232664Y-160196206D01*
X154117455Y-160282452D01*
X154117452Y-160282455D01*
X154031206Y-160397664D01*
X154031202Y-160397671D01*
X154000926Y-160478847D01*
X153959055Y-160534781D01*
X153893590Y-160559198D01*
X153825317Y-160544346D01*
X153797063Y-160523195D01*
X153731157Y-160457289D01*
X153731156Y-160457288D01*
X153581834Y-160365186D01*
X153415297Y-160310001D01*
X153415295Y-160310000D01*
X153312510Y-160299500D01*
X152687498Y-160299500D01*
X152687480Y-160299501D01*
X152584703Y-160310000D01*
X152584700Y-160310001D01*
X152418168Y-160365185D01*
X152418163Y-160365187D01*
X152268842Y-160457289D01*
X152175181Y-160550951D01*
X152113858Y-160584436D01*
X152044166Y-160579452D01*
X151999819Y-160550951D01*
X151906158Y-160457290D01*
X151906156Y-160457288D01*
X151802338Y-160393253D01*
X151788497Y-160377865D01*
X151771419Y-160366179D01*
X151762726Y-160349212D01*
X151755616Y-160341307D01*
X151753203Y-160335950D01*
X151749877Y-160328073D01*
X151734577Y-160270971D01*
X151705639Y-160220851D01*
X151655520Y-160134040D01*
X151543716Y-160022236D01*
X151543715Y-160022235D01*
X151539385Y-160017905D01*
X151539374Y-160017895D01*
X149181056Y-157659577D01*
X149147571Y-157598254D01*
X149151030Y-157532894D01*
X149189999Y-157415297D01*
X149199225Y-157324986D01*
X151847501Y-157324986D01*
X151857994Y-157427697D01*
X151913141Y-157594119D01*
X151913143Y-157594124D01*
X152005184Y-157743345D01*
X152129154Y-157867315D01*
X152278375Y-157959356D01*
X152278380Y-157959358D01*
X152444802Y-158014505D01*
X152444809Y-158014506D01*
X152547519Y-158024999D01*
X152772499Y-158024999D01*
X153272500Y-158024999D01*
X153497472Y-158024999D01*
X153497486Y-158024998D01*
X153600197Y-158014505D01*
X153766619Y-157959358D01*
X153766624Y-157959356D01*
X153915845Y-157867315D01*
X154039815Y-157743345D01*
X154131856Y-157594124D01*
X154131858Y-157594119D01*
X154187005Y-157427697D01*
X154187006Y-157427690D01*
X154197499Y-157324986D01*
X155352501Y-157324986D01*
X155362994Y-157427697D01*
X155418141Y-157594119D01*
X155418143Y-157594124D01*
X155510184Y-157743345D01*
X155634154Y-157867315D01*
X155783375Y-157959356D01*
X155783380Y-157959358D01*
X155949802Y-158014505D01*
X155949809Y-158014506D01*
X156052519Y-158024999D01*
X156352499Y-158024999D01*
X156852500Y-158024999D01*
X157152472Y-158024999D01*
X157152486Y-158024998D01*
X157255197Y-158014505D01*
X157421619Y-157959358D01*
X157421624Y-157959356D01*
X157570845Y-157867315D01*
X157694815Y-157743345D01*
X157786856Y-157594124D01*
X157786858Y-157594119D01*
X157842005Y-157427697D01*
X157842006Y-157427690D01*
X157852499Y-157324986D01*
X157852500Y-157324973D01*
X157852500Y-156875000D01*
X156852500Y-156875000D01*
X156852500Y-158024999D01*
X156352499Y-158024999D01*
X156352500Y-158024998D01*
X156352500Y-156875000D01*
X155352501Y-156875000D01*
X155352501Y-157324986D01*
X154197499Y-157324986D01*
X154197500Y-157324973D01*
X154197500Y-156875000D01*
X153272500Y-156875000D01*
X153272500Y-158024999D01*
X152772499Y-158024999D01*
X152772500Y-158024998D01*
X152772500Y-156875000D01*
X151847501Y-156875000D01*
X151847501Y-157324986D01*
X149199225Y-157324986D01*
X149200500Y-157312509D01*
X149200499Y-156687492D01*
X149189999Y-156584703D01*
X149189997Y-156584699D01*
X149188653Y-156578416D01*
X149193871Y-156508742D01*
X149235928Y-156452948D01*
X149301474Y-156428750D01*
X149369697Y-156443830D01*
X149415446Y-156487366D01*
X149457684Y-156555845D01*
X149581654Y-156679815D01*
X149730875Y-156771856D01*
X149730880Y-156771858D01*
X149897302Y-156827005D01*
X149897309Y-156827006D01*
X150000019Y-156837499D01*
X150249999Y-156837499D01*
X150250000Y-156837498D01*
X150250000Y-155949000D01*
X150269685Y-155881961D01*
X150322489Y-155836206D01*
X150374000Y-155825000D01*
X150626000Y-155825000D01*
X150693039Y-155844685D01*
X150738794Y-155897489D01*
X150750000Y-155949000D01*
X150750000Y-156837499D01*
X150999972Y-156837499D01*
X150999986Y-156837498D01*
X151102697Y-156827005D01*
X151269119Y-156771858D01*
X151269124Y-156771856D01*
X151356278Y-156718099D01*
X151418345Y-156679815D01*
X151542315Y-156555845D01*
X151634357Y-156406621D01*
X151637348Y-156400207D01*
X151683514Y-156347762D01*
X151750705Y-156328602D01*
X151817589Y-156348810D01*
X151837417Y-156364917D01*
X151847500Y-156375000D01*
X152772500Y-156375000D01*
X152772500Y-155280000D01*
X152753819Y-155261319D01*
X152720334Y-155199996D01*
X152717500Y-155173638D01*
X152717500Y-155095000D01*
X153217500Y-155095000D01*
X153236181Y-155113681D01*
X153269666Y-155175004D01*
X153272500Y-155201362D01*
X153272500Y-156375000D01*
X154197499Y-156375000D01*
X154197499Y-155925029D01*
X154197498Y-155925013D01*
X155352500Y-155925013D01*
X155352500Y-156375000D01*
X156352500Y-156375000D01*
X156852500Y-156375000D01*
X157852499Y-156375000D01*
X157852499Y-155925028D01*
X157852498Y-155925013D01*
X157842005Y-155822302D01*
X157786858Y-155655880D01*
X157786856Y-155655875D01*
X157694815Y-155506654D01*
X157570845Y-155382684D01*
X157421624Y-155290643D01*
X157421619Y-155290641D01*
X157255197Y-155235494D01*
X157255190Y-155235493D01*
X157152486Y-155225000D01*
X156852500Y-155225000D01*
X156852500Y-156375000D01*
X156352500Y-156375000D01*
X156352500Y-155225000D01*
X156052528Y-155225000D01*
X156052512Y-155225001D01*
X155949802Y-155235494D01*
X155783380Y-155290641D01*
X155783375Y-155290643D01*
X155634154Y-155382684D01*
X155510184Y-155506654D01*
X155418143Y-155655875D01*
X155418141Y-155655880D01*
X155362994Y-155822302D01*
X155362993Y-155822309D01*
X155352500Y-155925013D01*
X154197498Y-155925013D01*
X154197498Y-155925012D01*
X154187005Y-155822302D01*
X154131858Y-155655880D01*
X154131856Y-155655875D01*
X154039815Y-155506654D01*
X153915845Y-155382684D01*
X153766624Y-155290643D01*
X153766619Y-155290641D01*
X153739983Y-155281815D01*
X153682538Y-155242042D01*
X153655715Y-155177526D01*
X153668030Y-155108750D01*
X153714837Y-155057992D01*
X153802377Y-155005072D01*
X153922572Y-154884877D01*
X154010519Y-154739395D01*
X154061090Y-154577106D01*
X154067500Y-154506572D01*
X154067500Y-154500000D01*
X153217500Y-154500000D01*
X153217500Y-155095000D01*
X152717500Y-155095000D01*
X152717500Y-154374000D01*
X152737185Y-154306961D01*
X152789989Y-154261206D01*
X152841500Y-154250000D01*
X152967500Y-154250000D01*
X152967500Y-154124000D01*
X152987185Y-154056961D01*
X153039989Y-154011206D01*
X153091500Y-154000000D01*
X154067499Y-154000000D01*
X154067499Y-153993417D01*
X154061091Y-153922897D01*
X154061090Y-153922892D01*
X154010518Y-153760603D01*
X153969795Y-153693238D01*
X153967964Y-153686304D01*
X153963254Y-153680897D01*
X153959163Y-153652970D01*
X153951959Y-153625683D01*
X153953920Y-153617175D01*
X153953128Y-153611765D01*
X153958919Y-153595494D01*
X153962982Y-153577874D01*
X153966000Y-153571218D01*
X154011791Y-153495471D01*
X154036910Y-153414858D01*
X154040078Y-153407873D01*
X154050807Y-153395424D01*
X154065325Y-153371408D01*
X154226006Y-153210728D01*
X154226011Y-153210724D01*
X154236214Y-153200520D01*
X154236216Y-153200520D01*
X154348020Y-153088716D01*
X154406745Y-152987000D01*
X154427077Y-152951785D01*
X154468000Y-152799057D01*
X154468000Y-152640943D01*
X154468000Y-150544341D01*
X154427077Y-150391613D01*
X154398139Y-150341493D01*
X154348020Y-150254682D01*
X154236216Y-150142878D01*
X154236215Y-150142877D01*
X154231885Y-150138547D01*
X154231874Y-150138537D01*
X154104318Y-150010981D01*
X154070833Y-149949658D01*
X154067999Y-149923300D01*
X154067999Y-149734191D01*
X154061678Y-149664624D01*
X154061676Y-149664616D01*
X154039646Y-149593920D01*
X154011791Y-149504529D01*
X153969794Y-149435057D01*
X153951959Y-149367505D01*
X153969796Y-149306759D01*
X154010518Y-149239398D01*
X154010520Y-149239393D01*
X154061090Y-149077106D01*
X154067500Y-149006572D01*
X154067500Y-149000000D01*
X153091500Y-149000000D01*
X153024461Y-148980315D01*
X152978706Y-148927511D01*
X152967500Y-148876000D01*
X152967500Y-148750000D01*
X152841500Y-148750000D01*
X152774461Y-148730315D01*
X152728706Y-148677511D01*
X152717500Y-148626000D01*
X152717500Y-147905000D01*
X153217500Y-147905000D01*
X153217500Y-148500000D01*
X154067499Y-148500000D01*
X154067499Y-148493417D01*
X154061091Y-148422897D01*
X154061090Y-148422892D01*
X154010518Y-148260603D01*
X153922572Y-148115122D01*
X153802377Y-147994927D01*
X153714837Y-147942007D01*
X153667649Y-147890479D01*
X153655811Y-147821619D01*
X153683080Y-147757291D01*
X153739986Y-147718183D01*
X153766620Y-147709357D01*
X153766624Y-147709356D01*
X153915845Y-147617315D01*
X154039815Y-147493345D01*
X154131856Y-147344124D01*
X154131858Y-147344119D01*
X154187005Y-147177697D01*
X154187006Y-147177690D01*
X154197499Y-147074986D01*
X155352501Y-147074986D01*
X155362994Y-147177697D01*
X155418141Y-147344119D01*
X155418143Y-147344124D01*
X155510184Y-147493345D01*
X155634154Y-147617315D01*
X155783375Y-147709356D01*
X155783380Y-147709358D01*
X155949802Y-147764505D01*
X155949809Y-147764506D01*
X156052519Y-147774999D01*
X156352499Y-147774999D01*
X156852500Y-147774999D01*
X157152472Y-147774999D01*
X157152486Y-147774998D01*
X157255197Y-147764505D01*
X157421619Y-147709358D01*
X157421624Y-147709356D01*
X157570845Y-147617315D01*
X157694815Y-147493345D01*
X157786856Y-147344124D01*
X157786858Y-147344119D01*
X157842005Y-147177697D01*
X157842006Y-147177690D01*
X157852499Y-147074986D01*
X157852500Y-147074973D01*
X157852500Y-146625000D01*
X156852500Y-146625000D01*
X156852500Y-147774999D01*
X156352499Y-147774999D01*
X156352500Y-147774998D01*
X156352500Y-146625000D01*
X155352501Y-146625000D01*
X155352501Y-147074986D01*
X154197499Y-147074986D01*
X154197500Y-147074973D01*
X154197500Y-146625000D01*
X153272500Y-146625000D01*
X153272500Y-147798638D01*
X153252815Y-147865677D01*
X153236181Y-147886319D01*
X153217500Y-147905000D01*
X152717500Y-147905000D01*
X152717500Y-147826362D01*
X152737185Y-147759323D01*
X152753819Y-147738681D01*
X152772500Y-147720000D01*
X152772500Y-146125000D01*
X153272500Y-146125000D01*
X154197499Y-146125000D01*
X154197499Y-145675029D01*
X154197498Y-145675013D01*
X155352500Y-145675013D01*
X155352500Y-146125000D01*
X156352500Y-146125000D01*
X156852500Y-146125000D01*
X157852499Y-146125000D01*
X157852499Y-145675028D01*
X157852498Y-145675013D01*
X157842005Y-145572302D01*
X157786858Y-145405880D01*
X157786856Y-145405875D01*
X157694815Y-145256654D01*
X157570845Y-145132684D01*
X157421624Y-145040643D01*
X157421619Y-145040641D01*
X157255197Y-144985494D01*
X157255190Y-144985493D01*
X157152486Y-144975000D01*
X156852500Y-144975000D01*
X156852500Y-146125000D01*
X156352500Y-146125000D01*
X156352500Y-144975000D01*
X156052528Y-144975000D01*
X156052512Y-144975001D01*
X155949802Y-144985494D01*
X155783380Y-145040641D01*
X155783375Y-145040643D01*
X155634154Y-145132684D01*
X155510184Y-145256654D01*
X155418143Y-145405875D01*
X155418141Y-145405880D01*
X155362994Y-145572302D01*
X155362993Y-145572309D01*
X155352500Y-145675013D01*
X154197498Y-145675013D01*
X154197498Y-145675012D01*
X154187005Y-145572302D01*
X154131858Y-145405880D01*
X154131856Y-145405875D01*
X154039815Y-145256654D01*
X153915845Y-145132684D01*
X153766624Y-145040643D01*
X153766619Y-145040641D01*
X153600197Y-144985494D01*
X153600190Y-144985493D01*
X153497486Y-144975000D01*
X153272500Y-144975000D01*
X153272500Y-146125000D01*
X152772500Y-146125000D01*
X152772500Y-144975000D01*
X152547529Y-144975000D01*
X152547512Y-144975001D01*
X152444802Y-144985494D01*
X152278380Y-145040641D01*
X152278375Y-145040643D01*
X152129154Y-145132684D01*
X152005184Y-145256654D01*
X151913143Y-145405875D01*
X151913141Y-145405880D01*
X151857994Y-145572302D01*
X151857993Y-145572309D01*
X151847500Y-145675013D01*
X151847500Y-145910516D01*
X151827815Y-145977555D01*
X151775011Y-146023310D01*
X151705853Y-146033254D01*
X151642297Y-146004229D01*
X151616768Y-145973637D01*
X151580738Y-145912714D01*
X151580731Y-145912705D01*
X151467294Y-145799268D01*
X151467285Y-145799261D01*
X151329191Y-145717593D01*
X151329188Y-145717592D01*
X151175129Y-145672833D01*
X151175123Y-145672832D01*
X151139135Y-145670000D01*
X150750000Y-145670000D01*
X150750000Y-146586000D01*
X150730315Y-146653039D01*
X150677511Y-146698794D01*
X150626000Y-146710000D01*
X150500000Y-146710000D01*
X150500000Y-146836000D01*
X150480315Y-146903039D01*
X150427511Y-146948794D01*
X150376000Y-146960000D01*
X149290000Y-146960000D01*
X149290000Y-147179135D01*
X149292832Y-147215123D01*
X149292833Y-147215129D01*
X149337592Y-147369188D01*
X149337593Y-147369191D01*
X149419261Y-147507285D01*
X149419268Y-147507294D01*
X149428939Y-147516965D01*
X149462424Y-147578288D01*
X149457440Y-147647980D01*
X149442205Y-147676658D01*
X149436221Y-147685045D01*
X149418865Y-147702402D01*
X149394743Y-147743189D01*
X149391660Y-147747512D01*
X149368186Y-147765939D01*
X149346376Y-147786304D01*
X149340458Y-147787706D01*
X149336702Y-147790656D01*
X149322248Y-147792023D01*
X149290713Y-147799500D01*
X145624499Y-147799500D01*
X145557460Y-147779815D01*
X145511705Y-147727011D01*
X145500499Y-147675500D01*
X145500499Y-147448877D01*
X145500498Y-147448876D01*
X145497600Y-147406111D01*
X145451641Y-147221307D01*
X145412259Y-147141900D01*
X145367032Y-147050707D01*
X145367030Y-147050704D01*
X145247722Y-146902278D01*
X145247721Y-146902277D01*
X145099295Y-146782969D01*
X145099292Y-146782967D01*
X144928697Y-146698360D01*
X144743892Y-146652400D01*
X144722506Y-146650950D01*
X144701123Y-146649500D01*
X144701120Y-146649500D01*
X143298877Y-146649500D01*
X143298874Y-146649501D01*
X143256113Y-146652399D01*
X143256112Y-146652399D01*
X143071303Y-146698360D01*
X142900707Y-146782967D01*
X142900704Y-146782969D01*
X142752278Y-146902277D01*
X142752277Y-146902278D01*
X142632969Y-147050704D01*
X142632967Y-147050707D01*
X142548360Y-147221302D01*
X142502400Y-147406107D01*
X142499500Y-147448879D01*
X142499500Y-148351122D01*
X142499501Y-148351125D01*
X142502399Y-148393886D01*
X142502399Y-148393887D01*
X142548360Y-148578696D01*
X142632967Y-148749292D01*
X142632969Y-148749295D01*
X142752277Y-148897721D01*
X142752278Y-148897722D01*
X142821486Y-148953353D01*
X142861405Y-149010696D01*
X142863985Y-149080518D01*
X142828406Y-149140651D01*
X142821486Y-149146647D01*
X142752278Y-149202277D01*
X142632969Y-149350704D01*
X142632967Y-149350707D01*
X142593348Y-149430594D01*
X142545927Y-149481907D01*
X142482260Y-149499500D01*
X139690519Y-149499500D01*
X139623480Y-149479815D01*
X139577725Y-149427011D01*
X139567781Y-149357853D01*
X139596806Y-149294297D01*
X139602838Y-149287819D01*
X142649793Y-146240864D01*
X149290000Y-146240864D01*
X149290000Y-146460000D01*
X150250000Y-146460000D01*
X150250000Y-145670000D01*
X149860864Y-145670000D01*
X149824876Y-145672832D01*
X149824870Y-145672833D01*
X149670811Y-145717592D01*
X149670808Y-145717593D01*
X149532714Y-145799261D01*
X149532705Y-145799268D01*
X149419268Y-145912705D01*
X149419261Y-145912714D01*
X149337593Y-146050808D01*
X149337592Y-146050811D01*
X149292833Y-146204870D01*
X149292832Y-146204876D01*
X149290000Y-146240864D01*
X142649793Y-146240864D01*
X142739901Y-146150756D01*
X148369110Y-140521546D01*
X148369113Y-140521543D01*
X148420605Y-140444480D01*
X148436332Y-140420943D01*
X148445775Y-140406811D01*
X148498580Y-140279328D01*
X148525500Y-140143993D01*
X148525500Y-139624730D01*
X148545185Y-139557691D01*
X148561819Y-139537049D01*
X148620133Y-139478735D01*
X148680212Y-139418656D01*
X148772314Y-139269334D01*
X148800095Y-139185495D01*
X148839868Y-139128052D01*
X148904384Y-139101229D01*
X148917801Y-139100501D01*
X149079054Y-139100501D01*
X149079057Y-139100501D01*
X149231785Y-139059577D01*
X149300344Y-139019994D01*
X149368716Y-138980520D01*
X149480520Y-138868716D01*
X149480521Y-138868714D01*
X149514662Y-138834572D01*
X149575983Y-138801089D01*
X149578150Y-138800638D01*
X149642608Y-138787816D01*
X149733497Y-138769737D01*
X149879179Y-138709394D01*
X150010289Y-138621789D01*
X150121789Y-138510289D01*
X150209394Y-138379179D01*
X150210964Y-138375390D01*
X150269735Y-138233501D01*
X150269737Y-138233497D01*
X150279128Y-138186286D01*
X150296231Y-138100308D01*
X150328616Y-138038397D01*
X150389332Y-138003823D01*
X150417848Y-138000500D01*
X154530166Y-138000500D01*
X154597205Y-138020185D01*
X154642960Y-138072989D01*
X154652904Y-138142147D01*
X154652656Y-138143781D01*
X154649500Y-138163713D01*
X154649500Y-138163716D01*
X154649500Y-138376286D01*
X154681191Y-138576379D01*
X154682754Y-138586243D01*
X154748249Y-138787816D01*
X154748444Y-138788414D01*
X154844951Y-138977820D01*
X154969890Y-139149786D01*
X155120213Y-139300109D01*
X155292182Y-139425050D01*
X155300946Y-139429516D01*
X155351742Y-139477491D01*
X155368536Y-139545312D01*
X155345998Y-139611447D01*
X155300946Y-139650484D01*
X155292182Y-139654949D01*
X155120213Y-139779890D01*
X154969890Y-139930213D01*
X154844951Y-140102179D01*
X154748444Y-140291585D01*
X154682753Y-140493760D01*
X154649500Y-140703713D01*
X154649500Y-140916286D01*
X154682048Y-141121789D01*
X154682754Y-141126243D01*
X154745308Y-141318764D01*
X154748444Y-141328414D01*
X154844951Y-141517820D01*
X154969890Y-141689786D01*
X155120213Y-141840109D01*
X155292179Y-141965048D01*
X155292181Y-141965049D01*
X155292184Y-141965051D01*
X155481588Y-142061557D01*
X155683757Y-142127246D01*
X155893713Y-142160500D01*
X155893714Y-142160500D01*
X156106286Y-142160500D01*
X156106287Y-142160500D01*
X156316243Y-142127246D01*
X156518412Y-142061557D01*
X156707816Y-141965051D01*
X156746760Y-141936757D01*
X156879786Y-141840109D01*
X156879788Y-141840106D01*
X156879792Y-141840104D01*
X157030104Y-141689792D01*
X157030106Y-141689788D01*
X157030109Y-141689786D01*
X157155048Y-141517820D01*
X157155047Y-141517820D01*
X157155051Y-141517816D01*
X157251557Y-141328412D01*
X157317246Y-141126243D01*
X157350500Y-140916287D01*
X157350500Y-140703713D01*
X157317246Y-140493757D01*
X157251557Y-140291588D01*
X157155051Y-140102184D01*
X157155049Y-140102181D01*
X157155048Y-140102179D01*
X157030109Y-139930213D01*
X156879786Y-139779890D01*
X156707820Y-139654951D01*
X156707115Y-139654591D01*
X156699054Y-139650485D01*
X156648259Y-139602512D01*
X156631463Y-139534692D01*
X156653999Y-139468556D01*
X156699054Y-139429515D01*
X156707816Y-139425051D01*
X156803426Y-139355587D01*
X156879786Y-139300109D01*
X156879788Y-139300106D01*
X156879792Y-139300104D01*
X157030104Y-139149792D01*
X157030106Y-139149788D01*
X157030109Y-139149786D01*
X157148280Y-138987135D01*
X157155051Y-138977816D01*
X157251557Y-138788412D01*
X157317246Y-138586243D01*
X157350500Y-138376287D01*
X157350500Y-138163713D01*
X157317246Y-137953757D01*
X157251557Y-137751588D01*
X157155051Y-137562184D01*
X157155049Y-137562181D01*
X157155048Y-137562179D01*
X157030109Y-137390213D01*
X156879786Y-137239890D01*
X156707820Y-137114951D01*
X156707115Y-137114591D01*
X156699054Y-137110485D01*
X156648259Y-137062512D01*
X156631463Y-136994692D01*
X156653999Y-136928556D01*
X156699054Y-136889515D01*
X156707816Y-136885051D01*
X156785731Y-136828443D01*
X156879786Y-136760109D01*
X156879788Y-136760106D01*
X156879792Y-136760104D01*
X157030104Y-136609792D01*
X157030106Y-136609788D01*
X157030109Y-136609786D01*
X157155048Y-136437820D01*
X157155049Y-136437819D01*
X157155051Y-136437816D01*
X157251557Y-136248412D01*
X157317246Y-136046243D01*
X157350500Y-135836287D01*
X157350500Y-135623713D01*
X157317246Y-135413757D01*
X157251557Y-135211588D01*
X157155051Y-135022184D01*
X157155049Y-135022181D01*
X157155048Y-135022179D01*
X157030109Y-134850213D01*
X156916569Y-134736673D01*
X156883084Y-134675350D01*
X156888068Y-134605658D01*
X156929940Y-134549725D01*
X156960915Y-134532810D01*
X157092331Y-134483796D01*
X157207546Y-134397546D01*
X157293796Y-134282331D01*
X157344091Y-134147483D01*
X157350500Y-134087873D01*
X157350499Y-132292128D01*
X157344091Y-132232517D01*
X157306334Y-132131286D01*
X157293797Y-132097671D01*
X157293793Y-132097664D01*
X157207547Y-131982455D01*
X157207544Y-131982452D01*
X157092335Y-131896206D01*
X157092328Y-131896202D01*
X156957482Y-131845908D01*
X156957483Y-131845908D01*
X156897883Y-131839501D01*
X156897881Y-131839500D01*
X156897873Y-131839500D01*
X156897864Y-131839500D01*
X155102129Y-131839500D01*
X155102123Y-131839501D01*
X155042516Y-131845908D01*
X154907671Y-131896202D01*
X154907664Y-131896206D01*
X154792455Y-131982452D01*
X154792452Y-131982455D01*
X154706206Y-132097664D01*
X154706202Y-132097671D01*
X154655908Y-132232517D01*
X154649501Y-132292116D01*
X154649501Y-132292123D01*
X154649500Y-132292135D01*
X154649500Y-132465500D01*
X154629815Y-132532539D01*
X154577011Y-132578294D01*
X154525500Y-132589500D01*
X153230942Y-132589500D01*
X153078214Y-132630423D01*
X153060897Y-132640422D01*
X153060895Y-132640423D01*
X152987345Y-132682887D01*
X152925345Y-132699500D01*
X152921155Y-132699500D01*
X152766510Y-132730261D01*
X152766498Y-132730264D01*
X152620827Y-132790602D01*
X152620814Y-132790609D01*
X152489711Y-132878210D01*
X152489707Y-132878213D01*
X152378213Y-132989707D01*
X152378210Y-132989711D01*
X152290609Y-133120814D01*
X152290602Y-133120827D01*
X152230264Y-133266498D01*
X152230261Y-133266510D01*
X152199500Y-133421153D01*
X152199500Y-133578846D01*
X152230261Y-133733489D01*
X152230264Y-133733501D01*
X152290602Y-133879172D01*
X152290609Y-133879185D01*
X152378210Y-134010288D01*
X152378213Y-134010292D01*
X152489707Y-134121786D01*
X152489711Y-134121789D01*
X152620814Y-134209390D01*
X152620827Y-134209397D01*
X152766498Y-134269735D01*
X152766503Y-134269737D01*
X152887440Y-134293793D01*
X152921153Y-134300499D01*
X152921156Y-134300500D01*
X153050903Y-134300500D01*
X153072148Y-134306738D01*
X153094237Y-134308318D01*
X153105020Y-134316390D01*
X153117942Y-134320185D01*
X153132441Y-134336918D01*
X153150170Y-134350190D01*
X153154877Y-134362810D01*
X153163697Y-134372989D01*
X153166848Y-134394906D01*
X153174587Y-134415654D01*
X153171724Y-134428814D01*
X153173641Y-134442147D01*
X153164441Y-134462290D01*
X153159735Y-134483927D01*
X153146465Y-134501653D01*
X153144616Y-134505703D01*
X153138601Y-134512163D01*
X153055855Y-134594910D01*
X152985339Y-134665426D01*
X152924016Y-134698910D01*
X152921850Y-134699361D01*
X152766508Y-134730261D01*
X152766498Y-134730264D01*
X152620827Y-134790602D01*
X152620814Y-134790609D01*
X152489711Y-134878210D01*
X152489707Y-134878213D01*
X152378213Y-134989707D01*
X152378210Y-134989711D01*
X152290609Y-135120814D01*
X152290602Y-135120827D01*
X152230264Y-135266498D01*
X152230261Y-135266510D01*
X152199500Y-135421153D01*
X152199500Y-135578846D01*
X152230261Y-135733489D01*
X152230264Y-135733501D01*
X152290602Y-135879172D01*
X152290609Y-135879185D01*
X152378210Y-136010288D01*
X152378213Y-136010292D01*
X152489707Y-136121786D01*
X152489711Y-136121789D01*
X152620814Y-136209390D01*
X152620827Y-136209397D01*
X152715024Y-136248414D01*
X152766503Y-136269737D01*
X152918644Y-136300000D01*
X152921153Y-136300499D01*
X152921156Y-136300500D01*
X152921158Y-136300500D01*
X153078844Y-136300500D01*
X153078845Y-136300499D01*
X153233497Y-136269737D01*
X153373281Y-136211837D01*
X153379172Y-136209397D01*
X153379172Y-136209396D01*
X153379179Y-136209394D01*
X153510289Y-136121789D01*
X153621789Y-136010289D01*
X153709394Y-135879179D01*
X153769737Y-135733497D01*
X153796391Y-135599500D01*
X153800638Y-135578150D01*
X153833023Y-135516239D01*
X153834514Y-135514720D01*
X154212417Y-135136819D01*
X154239344Y-135122115D01*
X154265163Y-135105523D01*
X154271363Y-135104631D01*
X154273740Y-135103334D01*
X154300098Y-135100500D01*
X154469903Y-135100500D01*
X154536942Y-135120185D01*
X154557584Y-135136819D01*
X154666241Y-135245476D01*
X154699726Y-135306799D01*
X154696492Y-135371473D01*
X154682753Y-135413757D01*
X154656607Y-135578842D01*
X154649500Y-135623713D01*
X154649500Y-135836287D01*
X154656294Y-135879185D01*
X154679327Y-136024610D01*
X154682754Y-136046243D01*
X154748443Y-136248412D01*
X154837909Y-136424000D01*
X154844951Y-136437819D01*
X154964681Y-136602615D01*
X154988161Y-136668421D01*
X154972335Y-136736475D01*
X154922229Y-136785170D01*
X154864363Y-136799500D01*
X151886555Y-136799500D01*
X151819516Y-136779815D01*
X151773761Y-136727011D01*
X151763817Y-136657853D01*
X151768840Y-136639588D01*
X151767969Y-136639324D01*
X151769731Y-136633509D01*
X151769737Y-136633497D01*
X151800500Y-136478842D01*
X151800500Y-136321158D01*
X151800500Y-136321155D01*
X151800499Y-136321153D01*
X151796291Y-136300000D01*
X151769737Y-136166503D01*
X151751215Y-136121786D01*
X151709397Y-136020827D01*
X151709390Y-136020814D01*
X151621398Y-135889125D01*
X151600520Y-135822447D01*
X151600500Y-135820234D01*
X151600500Y-135089059D01*
X151600501Y-135089046D01*
X151600501Y-134920945D01*
X151600501Y-134920943D01*
X151559577Y-134768215D01*
X151518443Y-134696970D01*
X151480520Y-134631284D01*
X151368716Y-134519480D01*
X151368715Y-134519479D01*
X151364385Y-134515149D01*
X151364374Y-134515139D01*
X148987590Y-132138355D01*
X148980521Y-132131286D01*
X148980520Y-132131284D01*
X148961814Y-132112578D01*
X148928332Y-132051257D01*
X148928332Y-132051252D01*
X148925499Y-132024901D01*
X148925499Y-131999998D01*
X148925498Y-131999981D01*
X148914999Y-131897203D01*
X148914998Y-131897200D01*
X148895878Y-131839500D01*
X148859814Y-131730666D01*
X148767712Y-131581344D01*
X148643656Y-131457288D01*
X148494334Y-131365186D01*
X148327797Y-131310001D01*
X148327795Y-131310000D01*
X148225010Y-131299500D01*
X147599998Y-131299500D01*
X147599980Y-131299501D01*
X147497203Y-131310000D01*
X147497200Y-131310001D01*
X147330668Y-131365185D01*
X147330663Y-131365187D01*
X147181342Y-131457289D01*
X147087681Y-131550951D01*
X147026358Y-131584436D01*
X146956666Y-131579452D01*
X146912319Y-131550951D01*
X146818657Y-131457289D01*
X146818656Y-131457288D01*
X146669334Y-131365186D01*
X146502797Y-131310001D01*
X146502795Y-131310000D01*
X146400010Y-131299500D01*
X145774998Y-131299500D01*
X145774980Y-131299501D01*
X145672203Y-131310000D01*
X145672200Y-131310001D01*
X145505668Y-131365185D01*
X145505663Y-131365187D01*
X145356342Y-131457289D01*
X145232289Y-131581342D01*
X145140187Y-131730663D01*
X145140186Y-131730666D01*
X145085001Y-131897203D01*
X145085001Y-131897204D01*
X145085000Y-131897204D01*
X145074500Y-131999983D01*
X145074500Y-133000001D01*
X145074501Y-133000019D01*
X145085000Y-133102796D01*
X145085001Y-133102799D01*
X145117045Y-133199500D01*
X145140186Y-133269334D01*
X145232288Y-133418656D01*
X145356344Y-133542712D01*
X145419166Y-133581460D01*
X145465891Y-133633407D01*
X145477114Y-133702369D01*
X145453337Y-133761309D01*
X145381206Y-133857664D01*
X145381202Y-133857671D01*
X145330908Y-133992517D01*
X145324501Y-134052116D01*
X145324500Y-134052135D01*
X145324500Y-134075500D01*
X145304815Y-134142539D01*
X145252011Y-134188294D01*
X145200500Y-134199500D01*
X144424500Y-134199500D01*
X144357461Y-134179815D01*
X144311706Y-134127011D01*
X144300500Y-134075500D01*
X144300500Y-133921155D01*
X144300499Y-133921153D01*
X144292148Y-133879172D01*
X144269737Y-133766503D01*
X144225411Y-133659489D01*
X144209397Y-133620827D01*
X144209390Y-133620814D01*
X144121398Y-133489125D01*
X144100520Y-133422447D01*
X144100500Y-133420234D01*
X144100500Y-130420945D01*
X144100500Y-130420943D01*
X144059577Y-130268216D01*
X144032870Y-130221958D01*
X143980524Y-130131290D01*
X143980521Y-130131286D01*
X143980520Y-130131284D01*
X143868716Y-130019480D01*
X143868715Y-130019479D01*
X143864385Y-130015149D01*
X143864374Y-130015139D01*
X142487590Y-128638355D01*
X142487588Y-128638352D01*
X142368717Y-128519481D01*
X142368716Y-128519480D01*
X142281904Y-128469360D01*
X142281904Y-128469359D01*
X142281900Y-128469358D01*
X142231785Y-128440423D01*
X142079057Y-128399499D01*
X141920943Y-128399499D01*
X141913347Y-128399499D01*
X141913331Y-128399500D01*
X135961671Y-128399500D01*
X135961655Y-128399499D01*
X135954059Y-128399499D01*
X135795944Y-128399499D01*
X135719580Y-128419961D01*
X135643215Y-128440423D01*
X135643210Y-128440426D01*
X135506291Y-128519475D01*
X135506283Y-128519481D01*
X133449710Y-130576054D01*
X133388387Y-130609539D01*
X133327435Y-130607450D01*
X133223627Y-130577291D01*
X133223625Y-130577290D01*
X133223620Y-130577290D01*
X133188163Y-130574500D01*
X132811849Y-130574500D01*
X132811824Y-130574501D01*
X132776375Y-130577290D01*
X132634594Y-130618481D01*
X132565406Y-130618481D01*
X132482789Y-130594479D01*
X132423627Y-130577291D01*
X132423625Y-130577290D01*
X132423620Y-130577290D01*
X132388163Y-130574500D01*
X132011849Y-130574500D01*
X132011824Y-130574501D01*
X131976372Y-130577291D01*
X131824614Y-130621380D01*
X131824609Y-130621382D01*
X131688583Y-130701827D01*
X131688574Y-130701834D01*
X131576834Y-130813574D01*
X131576827Y-130813583D01*
X131496382Y-130949609D01*
X131496380Y-130949614D01*
X131452292Y-131101366D01*
X131452290Y-131101379D01*
X131451594Y-131110228D01*
X131426710Y-131175517D01*
X131370479Y-131216988D01*
X131327976Y-131224500D01*
X129922621Y-131224500D01*
X129855582Y-131204815D01*
X129809827Y-131152011D01*
X129800182Y-131084932D01*
X129799903Y-131084905D01*
X129800014Y-131083769D01*
X129799883Y-131082853D01*
X129800405Y-131079802D01*
X129800500Y-131078843D01*
X129800500Y-130921155D01*
X129800499Y-130921153D01*
X129769738Y-130766510D01*
X129769737Y-130766503D01*
X129747236Y-130712181D01*
X129709397Y-130620827D01*
X129709390Y-130620814D01*
X129621789Y-130489711D01*
X129621786Y-130489707D01*
X129515500Y-130383421D01*
X129495793Y-130357738D01*
X129480522Y-130331287D01*
X129480518Y-130331282D01*
X129336916Y-130187680D01*
X129303431Y-130126357D01*
X129308415Y-130056665D01*
X129336912Y-130012323D01*
X129480520Y-129868716D01*
X129559577Y-129731784D01*
X129600501Y-129579057D01*
X129600501Y-129420942D01*
X129600501Y-129413347D01*
X129600500Y-129413329D01*
X129600500Y-119840096D01*
X129620185Y-119773057D01*
X129636814Y-119752420D01*
X140055478Y-109333755D01*
X140116799Y-109300272D01*
X140181473Y-109303506D01*
X140223757Y-109317246D01*
X140433713Y-109350500D01*
X140433714Y-109350500D01*
X140646286Y-109350500D01*
X140646287Y-109350500D01*
X140856243Y-109317246D01*
X141058412Y-109251557D01*
X141247816Y-109155051D01*
X141334138Y-109092335D01*
X141419786Y-109030109D01*
X141419788Y-109030106D01*
X141419792Y-109030104D01*
X141570104Y-108879792D01*
X141570106Y-108879788D01*
X141570109Y-108879786D01*
X141695048Y-108707820D01*
X141695047Y-108707820D01*
X141695051Y-108707816D01*
X141699514Y-108699054D01*
X141747488Y-108648259D01*
X141815308Y-108631463D01*
X141881444Y-108653999D01*
X141920486Y-108699056D01*
X141924951Y-108707820D01*
X142049890Y-108879786D01*
X142200213Y-109030109D01*
X142372179Y-109155048D01*
X142372181Y-109155049D01*
X142372184Y-109155051D01*
X142561588Y-109251557D01*
X142763757Y-109317246D01*
X142973713Y-109350500D01*
X142973714Y-109350500D01*
X143186286Y-109350500D01*
X143186287Y-109350500D01*
X143396243Y-109317246D01*
X143598412Y-109251557D01*
X143787816Y-109155051D01*
X143874138Y-109092335D01*
X143959786Y-109030109D01*
X143959788Y-109030106D01*
X143959792Y-109030104D01*
X144110104Y-108879792D01*
X144110106Y-108879788D01*
X144110109Y-108879786D01*
X144235048Y-108707820D01*
X144235047Y-108707820D01*
X144235051Y-108707816D01*
X144331557Y-108518412D01*
X144397246Y-108316243D01*
X144430500Y-108106287D01*
X144430500Y-107893713D01*
X144397246Y-107683757D01*
X144331557Y-107481588D01*
X144235051Y-107292184D01*
X144235049Y-107292181D01*
X144235048Y-107292179D01*
X144110109Y-107120213D01*
X143959786Y-106969890D01*
X143787820Y-106844951D01*
X143598414Y-106748444D01*
X143598413Y-106748443D01*
X143598412Y-106748443D01*
X143396243Y-106682754D01*
X143396241Y-106682753D01*
X143396240Y-106682753D01*
X143234957Y-106657208D01*
X143186287Y-106649500D01*
X142973713Y-106649500D01*
X142945006Y-106654046D01*
X142763757Y-106682753D01*
X142721473Y-106696492D01*
X142651632Y-106698486D01*
X142595476Y-106666241D01*
X142067590Y-106138355D01*
X142067588Y-106138352D01*
X141948717Y-106019481D01*
X141948716Y-106019480D01*
X141861904Y-105969360D01*
X141861904Y-105969359D01*
X141861900Y-105969358D01*
X141811785Y-105940423D01*
X141659057Y-105899499D01*
X141500943Y-105899499D01*
X141493347Y-105899499D01*
X141493331Y-105899500D01*
X134580940Y-105899500D01*
X134540019Y-105910464D01*
X134540019Y-105910465D01*
X134502751Y-105920451D01*
X134428214Y-105940423D01*
X134428209Y-105940426D01*
X134291290Y-106019475D01*
X134291282Y-106019481D01*
X125519481Y-114791282D01*
X125519479Y-114791285D01*
X125469361Y-114878094D01*
X125469359Y-114878096D01*
X125440425Y-114928209D01*
X125440424Y-114928210D01*
X125440423Y-114928215D01*
X125399499Y-115080943D01*
X125399499Y-115080945D01*
X125399499Y-115249046D01*
X125399500Y-115249059D01*
X125399500Y-128955164D01*
X125379815Y-129022203D01*
X125344391Y-129058266D01*
X125239710Y-129128210D01*
X125128213Y-129239707D01*
X125128210Y-129239711D01*
X125040609Y-129370814D01*
X125040602Y-129370827D01*
X124980264Y-129516498D01*
X124980261Y-129516510D01*
X124949500Y-129671153D01*
X124949500Y-129828846D01*
X124980261Y-129983489D01*
X124980264Y-129983501D01*
X125040602Y-130129172D01*
X125040609Y-130129185D01*
X125128210Y-130260288D01*
X125128213Y-130260292D01*
X125239707Y-130371786D01*
X125239711Y-130371789D01*
X125370814Y-130459390D01*
X125370827Y-130459397D01*
X125444013Y-130489711D01*
X125516503Y-130519737D01*
X125671153Y-130550499D01*
X125671156Y-130550500D01*
X125671158Y-130550500D01*
X125828844Y-130550500D01*
X125828845Y-130550499D01*
X125983497Y-130519737D01*
X126129179Y-130459394D01*
X126260289Y-130371789D01*
X126300796Y-130331282D01*
X126376097Y-130255982D01*
X126377178Y-130257063D01*
X126428694Y-130221958D01*
X126498538Y-130220074D01*
X126554505Y-130252269D01*
X127270949Y-130968713D01*
X127270951Y-130968716D01*
X127290833Y-130988598D01*
X127315055Y-131012821D01*
X127348539Y-131074144D01*
X127345957Y-131110228D01*
X127343554Y-131143834D01*
X127301682Y-131199767D01*
X127301681Y-131199767D01*
X127301680Y-131199769D01*
X127260633Y-131215077D01*
X127236218Y-131224184D01*
X127227372Y-131224500D01*
X123761669Y-131224500D01*
X123761653Y-131224499D01*
X123754057Y-131224499D01*
X123595943Y-131224499D01*
X123488587Y-131253265D01*
X123443210Y-131265424D01*
X123443209Y-131265425D01*
X123393096Y-131294359D01*
X123393095Y-131294360D01*
X123366006Y-131310000D01*
X123306285Y-131344479D01*
X123306282Y-131344481D01*
X123194480Y-131456283D01*
X123194480Y-131456284D01*
X123194478Y-131456286D01*
X123099813Y-131550951D01*
X123037582Y-131613182D01*
X122976259Y-131646666D01*
X122949901Y-131649500D01*
X121602129Y-131649500D01*
X121602123Y-131649501D01*
X121542516Y-131655908D01*
X121407671Y-131706202D01*
X121407664Y-131706206D01*
X121292455Y-131792452D01*
X121292452Y-131792455D01*
X121206206Y-131907664D01*
X121206202Y-131907671D01*
X121155908Y-132042517D01*
X121149501Y-132102116D01*
X121149500Y-132102135D01*
X119500500Y-132102135D01*
X119500500Y-104624500D01*
X119520185Y-104557461D01*
X119572989Y-104511706D01*
X119624500Y-104500500D01*
X158875500Y-104500500D01*
X158942539Y-104520185D01*
G37*
%TD.AperFunction*%
%TD*%
M02*
