M48
; DRILL file KiCad 10.0.3 date 2026-09-23T19:52:47
; FORMAT={-:-/ absolute / metric / decimal}
; #@! TF.CreationDate,2026-09-23T19:52:47+03:00
; #@! TF.GenerationSoftware,Kicad,Pcbnew,10.0.3
; #@! TF.FileFunction,Plated,1,2,PTH
FMAT,2
METRIC
; #@! TA.AperFunction,Plated,PTH,ViaDrill
T1C0.300
; #@! TA.AperFunction,Plated,PTH,ComponentDrill
T2C1.000
%
G90
G05
T1
X125.75Y-129.75
X126.1Y-135.5
X127.0Y-135.5
X127.0Y-142.5
X127.5Y-129.5
X127.791Y-142.381
X128.0Y-135.5
X128.4Y-136.6
X128.5Y-130.0
X129.0Y-131.0
X129.0Y-135.5
X129.1Y-144.5
X129.6Y-143.875
X132.5Y-145.0
X135.0Y-158.0
X135.5Y-146.5
X135.566Y-157.434
X137.5Y-156.5
X139.0Y-159.0
X140.5Y-129.9
X141.0Y-145.5
X141.02Y-159.502
X141.5Y-141.5
X141.5Y-144.0
X141.549Y-144.8
X143.5Y-134.0
X143.955Y-142.955
X144.5Y-137.0
X144.5Y-138.0
X144.5Y-145.5
X145.5Y-140.5
X148.6Y-155.566
X149.5Y-138.0
X151.0Y-136.4
X151.0Y-166.5
X153.0Y-133.5
X153.0Y-135.5
T2
X122.5Y-133.0
X122.5Y-135.54
X122.5Y-138.08
X122.5Y-140.62
X130.26Y-161.5
X132.8Y-161.5
X135.34Y-161.5
X135.46Y-108.0
X137.88Y-161.5
X138.0Y-108.0
X140.42Y-161.5
X140.54Y-108.0
X142.96Y-161.5
X143.08Y-108.0
X145.5Y-161.5
X148.04Y-161.5
X156.0Y-133.19
X156.0Y-135.73
X156.0Y-138.27
X156.0Y-140.81
M30
