M48
; DRILL file KiCad 10.0.3 date 2026-09-23T15:40:30
; FORMAT={-:-/ absolute / metric / decimal}
; #@! TF.CreationDate,2026-09-23T15:40:30+03:00
; #@! TF.GenerationSoftware,Kicad,Pcbnew,10.0.3
; #@! TF.FileFunction,Plated,1,2,PTH
FMAT,2
METRIC
; #@! TA.AperFunction,Plated,PTH,ViaDrill
T1C0.300
; #@! TA.AperFunction,Plated,PTH,ComponentDrill
T2C1.000
%
G90
G05
T1
X131.0Y-153.5
X131.0Y-156.0
X132.285Y-133.52
X132.5Y-153.5
X132.91Y-133.02
X133.0Y-154.5
X133.0Y-158.5
X133.5Y-139.0
X133.51Y-134.51
X134.5Y-153.0
X134.825Y-133.75
X134.825Y-138.5
X134.849Y-137.676
X134.911Y-131.411
X135.0Y-132.5
X135.0Y-140.5
X135.4Y-144.674
X135.53Y-128.53
X136.4Y-158.5
X136.5Y-127.5
X136.5Y-135.0
X136.5Y-138.5
X137.0Y-159.5
X137.537Y-142.537
X137.8Y-132.325
X138.0Y-143.5
X139.0Y-159.5
X140.098Y-136.23
X140.2Y-140.675
X140.39Y-146.0
X140.664Y-135.664
X141.0Y-143.0
X141.5Y-169.5
X142.0Y-153.0
X142.5Y-164.5
X142.53Y-144.53
X143.175Y-139.3
X145.5Y-157.0
X149.5Y-135.5
X149.5Y-137.5
T2
X122.5Y-133.0
X122.5Y-135.54
X122.5Y-138.08
X122.5Y-140.62
X130.46Y-161.5
X133.0Y-161.5
X135.54Y-161.5
X135.69Y-108.0
X138.08Y-161.5
X138.23Y-108.0
X140.62Y-161.5
X140.77Y-108.0
X143.16Y-161.5
X143.31Y-108.0
X145.7Y-161.5
X148.24Y-161.5
X156.0Y-133.0
X156.0Y-135.54
X156.0Y-138.08
X156.0Y-140.62
M30
