%TF.GenerationSoftware,KiCad,Pcbnew,10.0.3*%
%TF.CreationDate,2026-09-23T19:52:52+03:00*%
%TF.ProjectId,FirstPCB,46697273-7450-4434-922e-6b696361645f,rev?*%
%TF.SameCoordinates,Original*%
%TF.FileFunction,Soldermask,Top*%
%TF.FilePolarity,Negative*%
%FSLAX46Y46*%
G04 Gerber Fmt 4.6, Leading zero omitted, Abs format (unit mm)*
G04 Created by KiCad (PCBNEW 10.0.3) date 2026-09-23 19:52:52*
%MOMM*%
%LPD*%
G01*
G04 APERTURE LIST*
G04 Aperture macros list*
%AMRoundRect*
0 Rectangle with rounded corners*
0 $1 Rounding radius*
0 $2 $3 $4 $5 $6 $7 $8 $9 X,Y pos of 4 corners*
0 Add a 4 corners polygon primitive as box body*
4,1,4,$2,$3,$4,$5,$6,$7,$8,$9,$2,$3,0*
0 Add four circle primitives for the rounded corners*
1,1,$1+$1,$2,$3*
1,1,$1+$1,$4,$5*
1,1,$1+$1,$6,$7*
1,1,$1+$1,$8,$9*
0 Add four rect primitives between the rounded corners*
20,1,$1+$1,$2,$3,$4,$5,0*
20,1,$1+$1,$4,$5,$6,$7,0*
20,1,$1+$1,$6,$7,$8,$9,0*
20,1,$1+$1,$8,$9,$2,$3,0*%
G04 Aperture macros list end*
%ADD10R,1.390000X0.910000*%
%ADD11R,1.700000X1.700000*%
%ADD12C,1.700000*%
%ADD13RoundRect,0.250000X0.262500X0.450000X-0.262500X0.450000X-0.262500X-0.450000X0.262500X-0.450000X0*%
%ADD14RoundRect,0.250000X0.450000X-0.262500X0.450000X0.262500X-0.450000X0.262500X-0.450000X-0.262500X0*%
%ADD15RoundRect,0.125000X0.625000X-0.125000X0.625000X0.125000X-0.625000X0.125000X-0.625000X-0.125000X0*%
%ADD16RoundRect,0.125000X0.125000X-0.625000X0.125000X0.625000X-0.125000X0.625000X-0.125000X-0.625000X0*%
%ADD17R,3.200000X1.000000*%
%ADD18RoundRect,0.250000X-0.262500X-0.450000X0.262500X-0.450000X0.262500X0.450000X-0.262500X0.450000X0*%
%ADD19RoundRect,0.160500X-0.651500X0.481500X-0.651500X-0.481500X0.651500X-0.481500X0.651500X0.481500X0*%
%ADD20R,0.910000X1.390000*%
%ADD21R,0.400000X0.800000*%
%ADD22R,1.700000X0.800000*%
%ADD23R,0.940000X1.430000*%
%ADD24RoundRect,0.175000X0.425000X-0.175000X0.425000X0.175000X-0.425000X0.175000X-0.425000X-0.175000X0*%
%ADD25RoundRect,0.190000X-0.410000X0.190000X-0.410000X-0.190000X0.410000X-0.190000X0.410000X0.190000X0*%
%ADD26RoundRect,0.200000X-0.400000X0.200000X-0.400000X-0.200000X0.400000X-0.200000X0.400000X0.200000X0*%
%ADD27RoundRect,0.175000X-0.425000X0.175000X-0.425000X-0.175000X0.425000X-0.175000X0.425000X0.175000X0*%
%ADD28RoundRect,0.190000X0.410000X-0.190000X0.410000X0.190000X-0.410000X0.190000X-0.410000X-0.190000X0*%
%ADD29RoundRect,0.200000X0.400000X-0.200000X0.400000X0.200000X-0.400000X0.200000X-0.400000X-0.200000X0*%
%ADD30RoundRect,0.250000X0.425000X-0.650000X0.425000X0.650000X-0.425000X0.650000X-0.425000X-0.650000X0*%
%ADD31RoundRect,0.250000X0.500000X-0.650000X0.500000X0.650000X-0.500000X0.650000X-0.500000X-0.650000X0*%
%ADD32RoundRect,0.160500X0.651500X-0.481500X0.651500X0.481500X-0.651500X0.481500X-0.651500X-0.481500X0*%
%ADD33RoundRect,0.102000X-0.525000X-0.860000X0.525000X-0.860000X0.525000X0.860000X-0.525000X0.860000X0*%
%ADD34RoundRect,0.250000X-0.450000X0.262500X-0.450000X-0.262500X0.450000X-0.262500X0.450000X0.262500X0*%
%ADD35RoundRect,0.375000X0.625000X0.375000X-0.625000X0.375000X-0.625000X-0.375000X0.625000X-0.375000X0*%
%ADD36RoundRect,0.500000X0.500000X1.400000X-0.500000X1.400000X-0.500000X-1.400000X0.500000X-1.400000X0*%
G04 APERTURE END LIST*
D10*
%TO.C,C4*%
X153000000Y-165860000D03*
X153000000Y-167500000D03*
%TD*%
D11*
%TO.C,J4*%
X156000000Y-133190000D03*
D12*
X156000000Y-135730000D03*
X156000000Y-138270000D03*
X156000000Y-140810000D03*
%TD*%
D11*
%TO.C,J3*%
X122500000Y-133000000D03*
D12*
X122500000Y-135540000D03*
X122500000Y-138080000D03*
X122500000Y-140620000D03*
%TD*%
D13*
%TO.C,R1*%
X125175000Y-161500000D03*
X127000000Y-161500000D03*
%TD*%
%TO.C,R4*%
X149000000Y-164500000D03*
X150825000Y-164500000D03*
%TD*%
D11*
%TO.C,J1*%
X148040000Y-161500000D03*
D12*
X145500000Y-161500000D03*
X142960000Y-161500000D03*
X140420000Y-161500000D03*
X137880000Y-161500000D03*
X135340000Y-161500000D03*
X132800000Y-161500000D03*
X130260000Y-161500000D03*
%TD*%
D14*
%TO.C,R8*%
X150500000Y-154000000D03*
X150500000Y-155825000D03*
%TD*%
D15*
%TO.C,U1*%
X130825000Y-138800000D03*
X130825000Y-138000000D03*
X130825000Y-137200000D03*
X130825000Y-136400000D03*
X130825000Y-135600000D03*
X130825000Y-134800000D03*
X130825000Y-134000000D03*
X130825000Y-133200000D03*
D16*
X132200000Y-131825000D03*
X133000000Y-131825000D03*
X133800000Y-131825000D03*
X134600000Y-131825000D03*
X135400000Y-131825000D03*
X136200000Y-131825000D03*
X137000000Y-131825000D03*
X137800000Y-131825000D03*
D15*
X139175000Y-133200000D03*
X139175000Y-134000000D03*
X139175000Y-134800000D03*
X139175000Y-135600000D03*
X139175000Y-136400000D03*
X139175000Y-137200000D03*
X139175000Y-138000000D03*
X139175000Y-138800000D03*
D16*
X137800000Y-140175000D03*
X137000000Y-140175000D03*
X136200000Y-140175000D03*
X135400000Y-140175000D03*
X134600000Y-140175000D03*
X133800000Y-140175000D03*
X133000000Y-140175000D03*
X132200000Y-140175000D03*
%TD*%
D17*
%TO.C,S1*%
X142200000Y-167500000D03*
X142200000Y-171500000D03*
X149000000Y-171500000D03*
X149000000Y-167500000D03*
%TD*%
D18*
%TO.C,R5*%
X151175000Y-161500000D03*
X153000000Y-161500000D03*
%TD*%
D19*
%TO.C,C6*%
X147000000Y-150710000D03*
X147000000Y-152500000D03*
%TD*%
D20*
%TO.C,C5*%
X125500000Y-165500000D03*
X127140000Y-165500000D03*
%TD*%
D13*
%TO.C,R6*%
X147912500Y-132500000D03*
X146087500Y-132500000D03*
%TD*%
D21*
%TO.C,IC1*%
X146975000Y-134500000D03*
X146025000Y-134500000D03*
X146025000Y-136500000D03*
X146975000Y-136500000D03*
D22*
X146500000Y-135500000D03*
%TD*%
D20*
%TO.C,C1*%
X134360000Y-145000000D03*
X136000000Y-145000000D03*
%TD*%
D23*
%TO.C,C2*%
X136000000Y-143000000D03*
X134360000Y-143000000D03*
%TD*%
D24*
%TO.C,USB1*%
X152967500Y-152000000D03*
D25*
X152967500Y-149980000D03*
D26*
X152967500Y-148750000D03*
D27*
X152967500Y-151000000D03*
D28*
X152967500Y-153020000D03*
D29*
X152967500Y-154250000D03*
D30*
X153022500Y-156625000D03*
D31*
X156602500Y-156625000D03*
D30*
X153022500Y-146375000D03*
D31*
X156602500Y-146375000D03*
%TD*%
D32*
%TO.C,C3*%
X150500000Y-148500000D03*
X150500000Y-146710000D03*
%TD*%
D13*
%TO.C,R7*%
X147825000Y-138500000D03*
X146000000Y-138500000D03*
%TD*%
D33*
%TO.C,LED1*%
X155000000Y-161500000D03*
X157920000Y-161500000D03*
%TD*%
D34*
%TO.C,R9*%
X150500000Y-150500000D03*
X150500000Y-152325000D03*
%TD*%
D35*
%TO.C,U2*%
X144000000Y-152500000D03*
X144000000Y-150200000D03*
D36*
X137700000Y-150200000D03*
D35*
X144000000Y-147900000D03*
%TD*%
D17*
%TO.C,S2*%
X135900000Y-171500000D03*
X135900000Y-167500000D03*
X129100000Y-167500000D03*
X129100000Y-171500000D03*
%TD*%
D11*
%TO.C,J2*%
X135460000Y-108000000D03*
D12*
X138000000Y-108000000D03*
X140540000Y-108000000D03*
X143080000Y-108000000D03*
%TD*%
D18*
%TO.C,R2*%
X131825000Y-165000000D03*
X130000000Y-165000000D03*
%TD*%
D34*
%TO.C,R3*%
X148000000Y-157000000D03*
X148000000Y-158825000D03*
%TD*%
M02*
