%TF.GenerationSoftware,KiCad,Pcbnew,10.0.3*%
%TF.CreationDate,2026-09-23T19:52:52+03:00*%
%TF.ProjectId,FirstPCB,46697273-7450-4434-922e-6b696361645f,rev?*%
%TF.SameCoordinates,Original*%
%TF.FileFunction,Legend,Top*%
%TF.FilePolarity,Positive*%
%FSLAX46Y46*%
G04 Gerber Fmt 4.6, Leading zero omitted, Abs format (unit mm)*
G04 Created by KiCad (PCBNEW 10.0.3) date 2026-09-23 19:52:52*
%MOMM*%
%LPD*%
G01*
G04 APERTURE LIST*
%ADD10C,0.150000*%
%ADD11C,0.254000*%
%ADD12C,0.100000*%
%ADD13C,0.200000*%
%ADD14C,0.120000*%
%ADD15C,0.250000*%
%ADD16C,0.127000*%
%ADD17C,0.000000*%
G04 APERTURE END LIST*
D10*
X142999999Y-111669104D02*
X143476189Y-111669104D01*
X142904761Y-111954819D02*
X143238094Y-110954819D01*
X143238094Y-110954819D02*
X143571427Y-111954819D01*
X144333332Y-111288152D02*
X144333332Y-111954819D01*
X143904761Y-111288152D02*
X143904761Y-111811961D01*
X143904761Y-111811961D02*
X143952380Y-111907200D01*
X143952380Y-111907200D02*
X144047618Y-111954819D01*
X144047618Y-111954819D02*
X144190475Y-111954819D01*
X144190475Y-111954819D02*
X144285713Y-111907200D01*
X144285713Y-111907200D02*
X144333332Y-111859580D01*
X144666666Y-111288152D02*
X145047618Y-111288152D01*
X144809523Y-110954819D02*
X144809523Y-111811961D01*
X144809523Y-111811961D02*
X144857142Y-111907200D01*
X144857142Y-111907200D02*
X144952380Y-111954819D01*
X144952380Y-111954819D02*
X145047618Y-111954819D01*
X145380952Y-111954819D02*
X145380952Y-110954819D01*
X145809523Y-111954819D02*
X145809523Y-111431009D01*
X145809523Y-111431009D02*
X145761904Y-111335771D01*
X145761904Y-111335771D02*
X145666666Y-111288152D01*
X145666666Y-111288152D02*
X145523809Y-111288152D01*
X145523809Y-111288152D02*
X145428571Y-111335771D01*
X145428571Y-111335771D02*
X145380952Y-111383390D01*
X146428571Y-111954819D02*
X146333333Y-111907200D01*
X146333333Y-111907200D02*
X146285714Y-111859580D01*
X146285714Y-111859580D02*
X146238095Y-111764342D01*
X146238095Y-111764342D02*
X146238095Y-111478628D01*
X146238095Y-111478628D02*
X146285714Y-111383390D01*
X146285714Y-111383390D02*
X146333333Y-111335771D01*
X146333333Y-111335771D02*
X146428571Y-111288152D01*
X146428571Y-111288152D02*
X146571428Y-111288152D01*
X146571428Y-111288152D02*
X146666666Y-111335771D01*
X146666666Y-111335771D02*
X146714285Y-111383390D01*
X146714285Y-111383390D02*
X146761904Y-111478628D01*
X146761904Y-111478628D02*
X146761904Y-111764342D01*
X146761904Y-111764342D02*
X146714285Y-111859580D01*
X146714285Y-111859580D02*
X146666666Y-111907200D01*
X146666666Y-111907200D02*
X146571428Y-111954819D01*
X146571428Y-111954819D02*
X146428571Y-111954819D01*
X147190476Y-111954819D02*
X147190476Y-111288152D01*
X147190476Y-111478628D02*
X147238095Y-111383390D01*
X147238095Y-111383390D02*
X147285714Y-111335771D01*
X147285714Y-111335771D02*
X147380952Y-111288152D01*
X147380952Y-111288152D02*
X147476190Y-111288152D01*
X147809524Y-111859580D02*
X147857143Y-111907200D01*
X147857143Y-111907200D02*
X147809524Y-111954819D01*
X147809524Y-111954819D02*
X147761905Y-111907200D01*
X147761905Y-111907200D02*
X147809524Y-111859580D01*
X147809524Y-111859580D02*
X147809524Y-111954819D01*
X147809524Y-111335771D02*
X147857143Y-111383390D01*
X147857143Y-111383390D02*
X147809524Y-111431009D01*
X147809524Y-111431009D02*
X147761905Y-111383390D01*
X147761905Y-111383390D02*
X147809524Y-111335771D01*
X147809524Y-111335771D02*
X147809524Y-111431009D01*
X149571428Y-111002438D02*
X149476190Y-110954819D01*
X149476190Y-110954819D02*
X149333333Y-110954819D01*
X149333333Y-110954819D02*
X149190476Y-111002438D01*
X149190476Y-111002438D02*
X149095238Y-111097676D01*
X149095238Y-111097676D02*
X149047619Y-111192914D01*
X149047619Y-111192914D02*
X149000000Y-111383390D01*
X149000000Y-111383390D02*
X149000000Y-111526247D01*
X149000000Y-111526247D02*
X149047619Y-111716723D01*
X149047619Y-111716723D02*
X149095238Y-111811961D01*
X149095238Y-111811961D02*
X149190476Y-111907200D01*
X149190476Y-111907200D02*
X149333333Y-111954819D01*
X149333333Y-111954819D02*
X149428571Y-111954819D01*
X149428571Y-111954819D02*
X149571428Y-111907200D01*
X149571428Y-111907200D02*
X149619047Y-111859580D01*
X149619047Y-111859580D02*
X149619047Y-111526247D01*
X149619047Y-111526247D02*
X149428571Y-111526247D01*
X150047619Y-111954819D02*
X150047619Y-111288152D01*
X150047619Y-111478628D02*
X150095238Y-111383390D01*
X150095238Y-111383390D02*
X150142857Y-111335771D01*
X150142857Y-111335771D02*
X150238095Y-111288152D01*
X150238095Y-111288152D02*
X150333333Y-111288152D01*
X151095238Y-111954819D02*
X151095238Y-111431009D01*
X151095238Y-111431009D02*
X151047619Y-111335771D01*
X151047619Y-111335771D02*
X150952381Y-111288152D01*
X150952381Y-111288152D02*
X150761905Y-111288152D01*
X150761905Y-111288152D02*
X150666667Y-111335771D01*
X151095238Y-111907200D02*
X151000000Y-111954819D01*
X151000000Y-111954819D02*
X150761905Y-111954819D01*
X150761905Y-111954819D02*
X150666667Y-111907200D01*
X150666667Y-111907200D02*
X150619048Y-111811961D01*
X150619048Y-111811961D02*
X150619048Y-111716723D01*
X150619048Y-111716723D02*
X150666667Y-111621485D01*
X150666667Y-111621485D02*
X150761905Y-111573866D01*
X150761905Y-111573866D02*
X151000000Y-111573866D01*
X151000000Y-111573866D02*
X151095238Y-111526247D01*
X151571429Y-111288152D02*
X151571429Y-111954819D01*
X151571429Y-111383390D02*
X151619048Y-111335771D01*
X151619048Y-111335771D02*
X151714286Y-111288152D01*
X151714286Y-111288152D02*
X151857143Y-111288152D01*
X151857143Y-111288152D02*
X151952381Y-111335771D01*
X151952381Y-111335771D02*
X152000000Y-111431009D01*
X152000000Y-111431009D02*
X152000000Y-111954819D01*
X152476191Y-111954819D02*
X152476191Y-111288152D01*
X152476191Y-110954819D02*
X152428572Y-111002438D01*
X152428572Y-111002438D02*
X152476191Y-111050057D01*
X152476191Y-111050057D02*
X152523810Y-111002438D01*
X152523810Y-111002438D02*
X152476191Y-110954819D01*
X152476191Y-110954819D02*
X152476191Y-111050057D01*
X152809524Y-111288152D02*
X153190476Y-111288152D01*
X152952381Y-110954819D02*
X152952381Y-111811961D01*
X152952381Y-111811961D02*
X153000000Y-111907200D01*
X153000000Y-111907200D02*
X153095238Y-111954819D01*
X153095238Y-111954819D02*
X153190476Y-111954819D01*
X153666667Y-111954819D02*
X153571429Y-111907200D01*
X153571429Y-111907200D02*
X153523810Y-111859580D01*
X153523810Y-111859580D02*
X153476191Y-111764342D01*
X153476191Y-111764342D02*
X153476191Y-111478628D01*
X153476191Y-111478628D02*
X153523810Y-111383390D01*
X153523810Y-111383390D02*
X153571429Y-111335771D01*
X153571429Y-111335771D02*
X153666667Y-111288152D01*
X153666667Y-111288152D02*
X153809524Y-111288152D01*
X153809524Y-111288152D02*
X153904762Y-111335771D01*
X153904762Y-111335771D02*
X153952381Y-111383390D01*
X153952381Y-111383390D02*
X154000000Y-111478628D01*
X154000000Y-111478628D02*
X154000000Y-111764342D01*
X154000000Y-111764342D02*
X153952381Y-111859580D01*
X153952381Y-111859580D02*
X153904762Y-111907200D01*
X153904762Y-111907200D02*
X153809524Y-111954819D01*
X153809524Y-111954819D02*
X153666667Y-111954819D01*
X154333334Y-111288152D02*
X154571429Y-111954819D01*
X154571429Y-111954819D02*
X154809524Y-111288152D01*
X155190477Y-111954819D02*
X155190477Y-111288152D01*
X155190477Y-110954819D02*
X155142858Y-111002438D01*
X155142858Y-111002438D02*
X155190477Y-111050057D01*
X155190477Y-111050057D02*
X155238096Y-111002438D01*
X155238096Y-111002438D02*
X155190477Y-110954819D01*
X155190477Y-110954819D02*
X155190477Y-111050057D01*
X156095238Y-111907200D02*
X156000000Y-111954819D01*
X156000000Y-111954819D02*
X155809524Y-111954819D01*
X155809524Y-111954819D02*
X155714286Y-111907200D01*
X155714286Y-111907200D02*
X155666667Y-111859580D01*
X155666667Y-111859580D02*
X155619048Y-111764342D01*
X155619048Y-111764342D02*
X155619048Y-111478628D01*
X155619048Y-111478628D02*
X155666667Y-111383390D01*
X155666667Y-111383390D02*
X155714286Y-111335771D01*
X155714286Y-111335771D02*
X155809524Y-111288152D01*
X155809524Y-111288152D02*
X156000000Y-111288152D01*
X156000000Y-111288152D02*
X156095238Y-111335771D01*
X156523810Y-111954819D02*
X156523810Y-110954819D01*
X156952381Y-111954819D02*
X156952381Y-111431009D01*
X156952381Y-111431009D02*
X156904762Y-111335771D01*
X156904762Y-111335771D02*
X156809524Y-111288152D01*
X156809524Y-111288152D02*
X156666667Y-111288152D01*
X156666667Y-111288152D02*
X156571429Y-111335771D01*
X156571429Y-111335771D02*
X156523810Y-111383390D01*
D11*
X155953365Y-166711666D02*
X156013842Y-166772142D01*
X156013842Y-166772142D02*
X156074318Y-166953571D01*
X156074318Y-166953571D02*
X156074318Y-167074523D01*
X156074318Y-167074523D02*
X156013842Y-167255952D01*
X156013842Y-167255952D02*
X155892889Y-167376904D01*
X155892889Y-167376904D02*
X155771937Y-167437381D01*
X155771937Y-167437381D02*
X155530032Y-167497857D01*
X155530032Y-167497857D02*
X155348603Y-167497857D01*
X155348603Y-167497857D02*
X155106699Y-167437381D01*
X155106699Y-167437381D02*
X154985746Y-167376904D01*
X154985746Y-167376904D02*
X154864794Y-167255952D01*
X154864794Y-167255952D02*
X154804318Y-167074523D01*
X154804318Y-167074523D02*
X154804318Y-166953571D01*
X154804318Y-166953571D02*
X154864794Y-166772142D01*
X154864794Y-166772142D02*
X154925270Y-166711666D01*
X155227651Y-165623095D02*
X156074318Y-165623095D01*
X154743842Y-165925476D02*
X155650984Y-166227857D01*
X155650984Y-166227857D02*
X155650984Y-165441666D01*
D10*
X155666666Y-129874819D02*
X155666666Y-130589104D01*
X155666666Y-130589104D02*
X155619047Y-130731961D01*
X155619047Y-130731961D02*
X155523809Y-130827200D01*
X155523809Y-130827200D02*
X155380952Y-130874819D01*
X155380952Y-130874819D02*
X155285714Y-130874819D01*
X156571428Y-130208152D02*
X156571428Y-130874819D01*
X156333333Y-129827200D02*
X156095238Y-130541485D01*
X156095238Y-130541485D02*
X156714285Y-130541485D01*
X122166666Y-129684819D02*
X122166666Y-130399104D01*
X122166666Y-130399104D02*
X122119047Y-130541961D01*
X122119047Y-130541961D02*
X122023809Y-130637200D01*
X122023809Y-130637200D02*
X121880952Y-130684819D01*
X121880952Y-130684819D02*
X121785714Y-130684819D01*
X122547619Y-129684819D02*
X123166666Y-129684819D01*
X123166666Y-129684819D02*
X122833333Y-130065771D01*
X122833333Y-130065771D02*
X122976190Y-130065771D01*
X122976190Y-130065771D02*
X123071428Y-130113390D01*
X123071428Y-130113390D02*
X123119047Y-130161009D01*
X123119047Y-130161009D02*
X123166666Y-130256247D01*
X123166666Y-130256247D02*
X123166666Y-130494342D01*
X123166666Y-130494342D02*
X123119047Y-130589580D01*
X123119047Y-130589580D02*
X123071428Y-130637200D01*
X123071428Y-130637200D02*
X122976190Y-130684819D01*
X122976190Y-130684819D02*
X122690476Y-130684819D01*
X122690476Y-130684819D02*
X122595238Y-130637200D01*
X122595238Y-130637200D02*
X122547619Y-130589580D01*
X125920833Y-163604819D02*
X125587500Y-163128628D01*
X125349405Y-163604819D02*
X125349405Y-162604819D01*
X125349405Y-162604819D02*
X125730357Y-162604819D01*
X125730357Y-162604819D02*
X125825595Y-162652438D01*
X125825595Y-162652438D02*
X125873214Y-162700057D01*
X125873214Y-162700057D02*
X125920833Y-162795295D01*
X125920833Y-162795295D02*
X125920833Y-162938152D01*
X125920833Y-162938152D02*
X125873214Y-163033390D01*
X125873214Y-163033390D02*
X125825595Y-163081009D01*
X125825595Y-163081009D02*
X125730357Y-163128628D01*
X125730357Y-163128628D02*
X125349405Y-163128628D01*
X126873214Y-163604819D02*
X126301786Y-163604819D01*
X126587500Y-163604819D02*
X126587500Y-162604819D01*
X126587500Y-162604819D02*
X126492262Y-162747676D01*
X126492262Y-162747676D02*
X126397024Y-162842914D01*
X126397024Y-162842914D02*
X126301786Y-162890533D01*
X146333333Y-165454819D02*
X146000000Y-164978628D01*
X145761905Y-165454819D02*
X145761905Y-164454819D01*
X145761905Y-164454819D02*
X146142857Y-164454819D01*
X146142857Y-164454819D02*
X146238095Y-164502438D01*
X146238095Y-164502438D02*
X146285714Y-164550057D01*
X146285714Y-164550057D02*
X146333333Y-164645295D01*
X146333333Y-164645295D02*
X146333333Y-164788152D01*
X146333333Y-164788152D02*
X146285714Y-164883390D01*
X146285714Y-164883390D02*
X146238095Y-164931009D01*
X146238095Y-164931009D02*
X146142857Y-164978628D01*
X146142857Y-164978628D02*
X145761905Y-164978628D01*
X147190476Y-164788152D02*
X147190476Y-165454819D01*
X146952381Y-164407200D02*
X146714286Y-165121485D01*
X146714286Y-165121485D02*
X147333333Y-165121485D01*
X144166666Y-157954819D02*
X144166666Y-158669104D01*
X144166666Y-158669104D02*
X144119047Y-158811961D01*
X144119047Y-158811961D02*
X144023809Y-158907200D01*
X144023809Y-158907200D02*
X143880952Y-158954819D01*
X143880952Y-158954819D02*
X143785714Y-158954819D01*
X145166666Y-158954819D02*
X144595238Y-158954819D01*
X144880952Y-158954819D02*
X144880952Y-157954819D01*
X144880952Y-157954819D02*
X144785714Y-158097676D01*
X144785714Y-158097676D02*
X144690476Y-158192914D01*
X144690476Y-158192914D02*
X144595238Y-158240533D01*
X150954819Y-158166666D02*
X150478628Y-158499999D01*
X150954819Y-158738094D02*
X149954819Y-158738094D01*
X149954819Y-158738094D02*
X149954819Y-158357142D01*
X149954819Y-158357142D02*
X150002438Y-158261904D01*
X150002438Y-158261904D02*
X150050057Y-158214285D01*
X150050057Y-158214285D02*
X150145295Y-158166666D01*
X150145295Y-158166666D02*
X150288152Y-158166666D01*
X150288152Y-158166666D02*
X150383390Y-158214285D01*
X150383390Y-158214285D02*
X150431009Y-158261904D01*
X150431009Y-158261904D02*
X150478628Y-158357142D01*
X150478628Y-158357142D02*
X150478628Y-158738094D01*
X150383390Y-157595237D02*
X150335771Y-157690475D01*
X150335771Y-157690475D02*
X150288152Y-157738094D01*
X150288152Y-157738094D02*
X150192914Y-157785713D01*
X150192914Y-157785713D02*
X150145295Y-157785713D01*
X150145295Y-157785713D02*
X150050057Y-157738094D01*
X150050057Y-157738094D02*
X150002438Y-157690475D01*
X150002438Y-157690475D02*
X149954819Y-157595237D01*
X149954819Y-157595237D02*
X149954819Y-157404761D01*
X149954819Y-157404761D02*
X150002438Y-157309523D01*
X150002438Y-157309523D02*
X150050057Y-157261904D01*
X150050057Y-157261904D02*
X150145295Y-157214285D01*
X150145295Y-157214285D02*
X150192914Y-157214285D01*
X150192914Y-157214285D02*
X150288152Y-157261904D01*
X150288152Y-157261904D02*
X150335771Y-157309523D01*
X150335771Y-157309523D02*
X150383390Y-157404761D01*
X150383390Y-157404761D02*
X150383390Y-157595237D01*
X150383390Y-157595237D02*
X150431009Y-157690475D01*
X150431009Y-157690475D02*
X150478628Y-157738094D01*
X150478628Y-157738094D02*
X150573866Y-157785713D01*
X150573866Y-157785713D02*
X150764342Y-157785713D01*
X150764342Y-157785713D02*
X150859580Y-157738094D01*
X150859580Y-157738094D02*
X150907200Y-157690475D01*
X150907200Y-157690475D02*
X150954819Y-157595237D01*
X150954819Y-157595237D02*
X150954819Y-157404761D01*
X150954819Y-157404761D02*
X150907200Y-157309523D01*
X150907200Y-157309523D02*
X150859580Y-157261904D01*
X150859580Y-157261904D02*
X150764342Y-157214285D01*
X150764342Y-157214285D02*
X150573866Y-157214285D01*
X150573866Y-157214285D02*
X150478628Y-157261904D01*
X150478628Y-157261904D02*
X150431009Y-157309523D01*
X150431009Y-157309523D02*
X150383390Y-157404761D01*
X129954819Y-132261904D02*
X130764342Y-132261904D01*
X130764342Y-132261904D02*
X130859580Y-132214285D01*
X130859580Y-132214285D02*
X130907200Y-132166666D01*
X130907200Y-132166666D02*
X130954819Y-132071428D01*
X130954819Y-132071428D02*
X130954819Y-131880952D01*
X130954819Y-131880952D02*
X130907200Y-131785714D01*
X130907200Y-131785714D02*
X130859580Y-131738095D01*
X130859580Y-131738095D02*
X130764342Y-131690476D01*
X130764342Y-131690476D02*
X129954819Y-131690476D01*
X130954819Y-130690476D02*
X130954819Y-131261904D01*
X130954819Y-130976190D02*
X129954819Y-130976190D01*
X129954819Y-130976190D02*
X130097676Y-131071428D01*
X130097676Y-131071428D02*
X130192914Y-131166666D01*
X130192914Y-131166666D02*
X130240533Y-131261904D01*
X131857143Y-127407200D02*
X132000000Y-127454819D01*
X132000000Y-127454819D02*
X132238095Y-127454819D01*
X132238095Y-127454819D02*
X132333333Y-127407200D01*
X132333333Y-127407200D02*
X132380952Y-127359580D01*
X132380952Y-127359580D02*
X132428571Y-127264342D01*
X132428571Y-127264342D02*
X132428571Y-127169104D01*
X132428571Y-127169104D02*
X132380952Y-127073866D01*
X132380952Y-127073866D02*
X132333333Y-127026247D01*
X132333333Y-127026247D02*
X132238095Y-126978628D01*
X132238095Y-126978628D02*
X132047619Y-126931009D01*
X132047619Y-126931009D02*
X131952381Y-126883390D01*
X131952381Y-126883390D02*
X131904762Y-126835771D01*
X131904762Y-126835771D02*
X131857143Y-126740533D01*
X131857143Y-126740533D02*
X131857143Y-126645295D01*
X131857143Y-126645295D02*
X131904762Y-126550057D01*
X131904762Y-126550057D02*
X131952381Y-126502438D01*
X131952381Y-126502438D02*
X132047619Y-126454819D01*
X132047619Y-126454819D02*
X132285714Y-126454819D01*
X132285714Y-126454819D02*
X132428571Y-126502438D01*
X132714286Y-126454819D02*
X133285714Y-126454819D01*
X133000000Y-127454819D02*
X133000000Y-126454819D01*
X133619048Y-127454819D02*
X133619048Y-126454819D01*
X133619048Y-126454819D02*
X133952381Y-127169104D01*
X133952381Y-127169104D02*
X134285714Y-126454819D01*
X134285714Y-126454819D02*
X134285714Y-127454819D01*
X134666667Y-126454819D02*
X135285714Y-126454819D01*
X135285714Y-126454819D02*
X134952381Y-126835771D01*
X134952381Y-126835771D02*
X135095238Y-126835771D01*
X135095238Y-126835771D02*
X135190476Y-126883390D01*
X135190476Y-126883390D02*
X135238095Y-126931009D01*
X135238095Y-126931009D02*
X135285714Y-127026247D01*
X135285714Y-127026247D02*
X135285714Y-127264342D01*
X135285714Y-127264342D02*
X135238095Y-127359580D01*
X135238095Y-127359580D02*
X135190476Y-127407200D01*
X135190476Y-127407200D02*
X135095238Y-127454819D01*
X135095238Y-127454819D02*
X134809524Y-127454819D01*
X134809524Y-127454819D02*
X134714286Y-127407200D01*
X134714286Y-127407200D02*
X134666667Y-127359580D01*
X135666667Y-126550057D02*
X135714286Y-126502438D01*
X135714286Y-126502438D02*
X135809524Y-126454819D01*
X135809524Y-126454819D02*
X136047619Y-126454819D01*
X136047619Y-126454819D02*
X136142857Y-126502438D01*
X136142857Y-126502438D02*
X136190476Y-126550057D01*
X136190476Y-126550057D02*
X136238095Y-126645295D01*
X136238095Y-126645295D02*
X136238095Y-126740533D01*
X136238095Y-126740533D02*
X136190476Y-126883390D01*
X136190476Y-126883390D02*
X135619048Y-127454819D01*
X135619048Y-127454819D02*
X136238095Y-127454819D01*
X137190476Y-126502438D02*
X137095238Y-126454819D01*
X137095238Y-126454819D02*
X136952381Y-126454819D01*
X136952381Y-126454819D02*
X136809524Y-126502438D01*
X136809524Y-126502438D02*
X136714286Y-126597676D01*
X136714286Y-126597676D02*
X136666667Y-126692914D01*
X136666667Y-126692914D02*
X136619048Y-126883390D01*
X136619048Y-126883390D02*
X136619048Y-127026247D01*
X136619048Y-127026247D02*
X136666667Y-127216723D01*
X136666667Y-127216723D02*
X136714286Y-127311961D01*
X136714286Y-127311961D02*
X136809524Y-127407200D01*
X136809524Y-127407200D02*
X136952381Y-127454819D01*
X136952381Y-127454819D02*
X137047619Y-127454819D01*
X137047619Y-127454819D02*
X137190476Y-127407200D01*
X137190476Y-127407200D02*
X137238095Y-127359580D01*
X137238095Y-127359580D02*
X137238095Y-127026247D01*
X137238095Y-127026247D02*
X137047619Y-127026247D01*
X137857143Y-126454819D02*
X137952381Y-126454819D01*
X137952381Y-126454819D02*
X138047619Y-126502438D01*
X138047619Y-126502438D02*
X138095238Y-126550057D01*
X138095238Y-126550057D02*
X138142857Y-126645295D01*
X138142857Y-126645295D02*
X138190476Y-126835771D01*
X138190476Y-126835771D02*
X138190476Y-127073866D01*
X138190476Y-127073866D02*
X138142857Y-127264342D01*
X138142857Y-127264342D02*
X138095238Y-127359580D01*
X138095238Y-127359580D02*
X138047619Y-127407200D01*
X138047619Y-127407200D02*
X137952381Y-127454819D01*
X137952381Y-127454819D02*
X137857143Y-127454819D01*
X137857143Y-127454819D02*
X137761905Y-127407200D01*
X137761905Y-127407200D02*
X137714286Y-127359580D01*
X137714286Y-127359580D02*
X137666667Y-127264342D01*
X137666667Y-127264342D02*
X137619048Y-127073866D01*
X137619048Y-127073866D02*
X137619048Y-126835771D01*
X137619048Y-126835771D02*
X137666667Y-126645295D01*
X137666667Y-126645295D02*
X137714286Y-126550057D01*
X137714286Y-126550057D02*
X137761905Y-126502438D01*
X137761905Y-126502438D02*
X137857143Y-126454819D01*
X138952381Y-126931009D02*
X139095238Y-126978628D01*
X139095238Y-126978628D02*
X139142857Y-127026247D01*
X139142857Y-127026247D02*
X139190476Y-127121485D01*
X139190476Y-127121485D02*
X139190476Y-127264342D01*
X139190476Y-127264342D02*
X139142857Y-127359580D01*
X139142857Y-127359580D02*
X139095238Y-127407200D01*
X139095238Y-127407200D02*
X139000000Y-127454819D01*
X139000000Y-127454819D02*
X138619048Y-127454819D01*
X138619048Y-127454819D02*
X138619048Y-126454819D01*
X138619048Y-126454819D02*
X138952381Y-126454819D01*
X138952381Y-126454819D02*
X139047619Y-126502438D01*
X139047619Y-126502438D02*
X139095238Y-126550057D01*
X139095238Y-126550057D02*
X139142857Y-126645295D01*
X139142857Y-126645295D02*
X139142857Y-126740533D01*
X139142857Y-126740533D02*
X139095238Y-126835771D01*
X139095238Y-126835771D02*
X139047619Y-126883390D01*
X139047619Y-126883390D02*
X138952381Y-126931009D01*
X138952381Y-126931009D02*
X138619048Y-126931009D01*
X140142857Y-127454819D02*
X139571429Y-127454819D01*
X139857143Y-127454819D02*
X139857143Y-126454819D01*
X139857143Y-126454819D02*
X139761905Y-126597676D01*
X139761905Y-126597676D02*
X139666667Y-126692914D01*
X139666667Y-126692914D02*
X139571429Y-126740533D01*
D11*
X144332380Y-170042842D02*
X144513809Y-170103318D01*
X144513809Y-170103318D02*
X144816190Y-170103318D01*
X144816190Y-170103318D02*
X144937142Y-170042842D01*
X144937142Y-170042842D02*
X144997618Y-169982365D01*
X144997618Y-169982365D02*
X145058095Y-169861413D01*
X145058095Y-169861413D02*
X145058095Y-169740461D01*
X145058095Y-169740461D02*
X144997618Y-169619508D01*
X144997618Y-169619508D02*
X144937142Y-169559032D01*
X144937142Y-169559032D02*
X144816190Y-169498556D01*
X144816190Y-169498556D02*
X144574285Y-169438080D01*
X144574285Y-169438080D02*
X144453333Y-169377603D01*
X144453333Y-169377603D02*
X144392856Y-169317127D01*
X144392856Y-169317127D02*
X144332380Y-169196175D01*
X144332380Y-169196175D02*
X144332380Y-169075222D01*
X144332380Y-169075222D02*
X144392856Y-168954270D01*
X144392856Y-168954270D02*
X144453333Y-168893794D01*
X144453333Y-168893794D02*
X144574285Y-168833318D01*
X144574285Y-168833318D02*
X144876666Y-168833318D01*
X144876666Y-168833318D02*
X145058095Y-168893794D01*
X146267619Y-170103318D02*
X145541904Y-170103318D01*
X145904761Y-170103318D02*
X145904761Y-168833318D01*
X145904761Y-168833318D02*
X145783809Y-169014746D01*
X145783809Y-169014746D02*
X145662857Y-169135699D01*
X145662857Y-169135699D02*
X145541904Y-169196175D01*
D12*
X152866667Y-164364895D02*
X152600000Y-163983942D01*
X152409524Y-164364895D02*
X152409524Y-163564895D01*
X152409524Y-163564895D02*
X152714286Y-163564895D01*
X152714286Y-163564895D02*
X152790476Y-163602990D01*
X152790476Y-163602990D02*
X152828571Y-163641085D01*
X152828571Y-163641085D02*
X152866667Y-163717276D01*
X152866667Y-163717276D02*
X152866667Y-163831561D01*
X152866667Y-163831561D02*
X152828571Y-163907752D01*
X152828571Y-163907752D02*
X152790476Y-163945847D01*
X152790476Y-163945847D02*
X152714286Y-163983942D01*
X152714286Y-163983942D02*
X152409524Y-163983942D01*
X153590476Y-163564895D02*
X153209524Y-163564895D01*
X153209524Y-163564895D02*
X153171428Y-163945847D01*
X153171428Y-163945847D02*
X153209524Y-163907752D01*
X153209524Y-163907752D02*
X153285714Y-163869657D01*
X153285714Y-163869657D02*
X153476190Y-163869657D01*
X153476190Y-163869657D02*
X153552381Y-163907752D01*
X153552381Y-163907752D02*
X153590476Y-163945847D01*
X153590476Y-163945847D02*
X153628571Y-164022038D01*
X153628571Y-164022038D02*
X153628571Y-164212514D01*
X153628571Y-164212514D02*
X153590476Y-164288704D01*
X153590476Y-164288704D02*
X153552381Y-164326800D01*
X153552381Y-164326800D02*
X153476190Y-164364895D01*
X153476190Y-164364895D02*
X153285714Y-164364895D01*
X153285714Y-164364895D02*
X153209524Y-164326800D01*
X153209524Y-164326800D02*
X153171428Y-164288704D01*
D10*
X146786104Y-154633332D02*
X146824200Y-154671428D01*
X146824200Y-154671428D02*
X146862295Y-154785713D01*
X146862295Y-154785713D02*
X146862295Y-154861904D01*
X146862295Y-154861904D02*
X146824200Y-154976190D01*
X146824200Y-154976190D02*
X146748009Y-155052380D01*
X146748009Y-155052380D02*
X146671819Y-155090475D01*
X146671819Y-155090475D02*
X146519438Y-155128571D01*
X146519438Y-155128571D02*
X146405152Y-155128571D01*
X146405152Y-155128571D02*
X146252771Y-155090475D01*
X146252771Y-155090475D02*
X146176580Y-155052380D01*
X146176580Y-155052380D02*
X146100390Y-154976190D01*
X146100390Y-154976190D02*
X146062295Y-154861904D01*
X146062295Y-154861904D02*
X146062295Y-154785713D01*
X146062295Y-154785713D02*
X146100390Y-154671428D01*
X146100390Y-154671428D02*
X146138485Y-154633332D01*
X146062295Y-153947618D02*
X146062295Y-154099999D01*
X146062295Y-154099999D02*
X146100390Y-154176190D01*
X146100390Y-154176190D02*
X146138485Y-154214285D01*
X146138485Y-154214285D02*
X146252771Y-154290475D01*
X146252771Y-154290475D02*
X146405152Y-154328571D01*
X146405152Y-154328571D02*
X146709914Y-154328571D01*
X146709914Y-154328571D02*
X146786104Y-154290475D01*
X146786104Y-154290475D02*
X146824200Y-154252380D01*
X146824200Y-154252380D02*
X146862295Y-154176190D01*
X146862295Y-154176190D02*
X146862295Y-154023809D01*
X146862295Y-154023809D02*
X146824200Y-153947618D01*
X146824200Y-153947618D02*
X146786104Y-153909523D01*
X146786104Y-153909523D02*
X146709914Y-153871428D01*
X146709914Y-153871428D02*
X146519438Y-153871428D01*
X146519438Y-153871428D02*
X146443247Y-153909523D01*
X146443247Y-153909523D02*
X146405152Y-153947618D01*
X146405152Y-153947618D02*
X146367057Y-154023809D01*
X146367057Y-154023809D02*
X146367057Y-154176190D01*
X146367057Y-154176190D02*
X146405152Y-154252380D01*
X146405152Y-154252380D02*
X146443247Y-154290475D01*
X146443247Y-154290475D02*
X146519438Y-154328571D01*
X146833333Y-130954819D02*
X146500000Y-130478628D01*
X146261905Y-130954819D02*
X146261905Y-129954819D01*
X146261905Y-129954819D02*
X146642857Y-129954819D01*
X146642857Y-129954819D02*
X146738095Y-130002438D01*
X146738095Y-130002438D02*
X146785714Y-130050057D01*
X146785714Y-130050057D02*
X146833333Y-130145295D01*
X146833333Y-130145295D02*
X146833333Y-130288152D01*
X146833333Y-130288152D02*
X146785714Y-130383390D01*
X146785714Y-130383390D02*
X146738095Y-130431009D01*
X146738095Y-130431009D02*
X146642857Y-130478628D01*
X146642857Y-130478628D02*
X146261905Y-130478628D01*
X147690476Y-129954819D02*
X147500000Y-129954819D01*
X147500000Y-129954819D02*
X147404762Y-130002438D01*
X147404762Y-130002438D02*
X147357143Y-130050057D01*
X147357143Y-130050057D02*
X147261905Y-130192914D01*
X147261905Y-130192914D02*
X147214286Y-130383390D01*
X147214286Y-130383390D02*
X147214286Y-130764342D01*
X147214286Y-130764342D02*
X147261905Y-130859580D01*
X147261905Y-130859580D02*
X147309524Y-130907200D01*
X147309524Y-130907200D02*
X147404762Y-130954819D01*
X147404762Y-130954819D02*
X147595238Y-130954819D01*
X147595238Y-130954819D02*
X147690476Y-130907200D01*
X147690476Y-130907200D02*
X147738095Y-130859580D01*
X147738095Y-130859580D02*
X147785714Y-130764342D01*
X147785714Y-130764342D02*
X147785714Y-130526247D01*
X147785714Y-130526247D02*
X147738095Y-130431009D01*
X147738095Y-130431009D02*
X147690476Y-130383390D01*
X147690476Y-130383390D02*
X147595238Y-130335771D01*
X147595238Y-130335771D02*
X147404762Y-130335771D01*
X147404762Y-130335771D02*
X147309524Y-130383390D01*
X147309524Y-130383390D02*
X147261905Y-130431009D01*
X147261905Y-130431009D02*
X147214286Y-130526247D01*
D11*
X151574318Y-132739762D02*
X150304318Y-132739762D01*
X151453365Y-131409285D02*
X151513842Y-131469761D01*
X151513842Y-131469761D02*
X151574318Y-131651190D01*
X151574318Y-131651190D02*
X151574318Y-131772142D01*
X151574318Y-131772142D02*
X151513842Y-131953571D01*
X151513842Y-131953571D02*
X151392889Y-132074523D01*
X151392889Y-132074523D02*
X151271937Y-132135000D01*
X151271937Y-132135000D02*
X151030032Y-132195476D01*
X151030032Y-132195476D02*
X150848603Y-132195476D01*
X150848603Y-132195476D02*
X150606699Y-132135000D01*
X150606699Y-132135000D02*
X150485746Y-132074523D01*
X150485746Y-132074523D02*
X150364794Y-131953571D01*
X150364794Y-131953571D02*
X150304318Y-131772142D01*
X150304318Y-131772142D02*
X150304318Y-131651190D01*
X150304318Y-131651190D02*
X150364794Y-131469761D01*
X150364794Y-131469761D02*
X150425270Y-131409285D01*
X151574318Y-130199761D02*
X151574318Y-130925476D01*
X151574318Y-130562619D02*
X150304318Y-130562619D01*
X150304318Y-130562619D02*
X150485746Y-130683571D01*
X150485746Y-130683571D02*
X150606699Y-130804523D01*
X150606699Y-130804523D02*
X150667175Y-130925476D01*
D10*
X151761905Y-158954819D02*
X151761905Y-159764342D01*
X151761905Y-159764342D02*
X151809524Y-159859580D01*
X151809524Y-159859580D02*
X151857143Y-159907200D01*
X151857143Y-159907200D02*
X151952381Y-159954819D01*
X151952381Y-159954819D02*
X152142857Y-159954819D01*
X152142857Y-159954819D02*
X152238095Y-159907200D01*
X152238095Y-159907200D02*
X152285714Y-159859580D01*
X152285714Y-159859580D02*
X152333333Y-159764342D01*
X152333333Y-159764342D02*
X152333333Y-158954819D01*
X152761905Y-159907200D02*
X152904762Y-159954819D01*
X152904762Y-159954819D02*
X153142857Y-159954819D01*
X153142857Y-159954819D02*
X153238095Y-159907200D01*
X153238095Y-159907200D02*
X153285714Y-159859580D01*
X153285714Y-159859580D02*
X153333333Y-159764342D01*
X153333333Y-159764342D02*
X153333333Y-159669104D01*
X153333333Y-159669104D02*
X153285714Y-159573866D01*
X153285714Y-159573866D02*
X153238095Y-159526247D01*
X153238095Y-159526247D02*
X153142857Y-159478628D01*
X153142857Y-159478628D02*
X152952381Y-159431009D01*
X152952381Y-159431009D02*
X152857143Y-159383390D01*
X152857143Y-159383390D02*
X152809524Y-159335771D01*
X152809524Y-159335771D02*
X152761905Y-159240533D01*
X152761905Y-159240533D02*
X152761905Y-159145295D01*
X152761905Y-159145295D02*
X152809524Y-159050057D01*
X152809524Y-159050057D02*
X152857143Y-159002438D01*
X152857143Y-159002438D02*
X152952381Y-158954819D01*
X152952381Y-158954819D02*
X153190476Y-158954819D01*
X153190476Y-158954819D02*
X153333333Y-159002438D01*
X154095238Y-159431009D02*
X154238095Y-159478628D01*
X154238095Y-159478628D02*
X154285714Y-159526247D01*
X154285714Y-159526247D02*
X154333333Y-159621485D01*
X154333333Y-159621485D02*
X154333333Y-159764342D01*
X154333333Y-159764342D02*
X154285714Y-159859580D01*
X154285714Y-159859580D02*
X154238095Y-159907200D01*
X154238095Y-159907200D02*
X154142857Y-159954819D01*
X154142857Y-159954819D02*
X153761905Y-159954819D01*
X153761905Y-159954819D02*
X153761905Y-158954819D01*
X153761905Y-158954819D02*
X154095238Y-158954819D01*
X154095238Y-158954819D02*
X154190476Y-159002438D01*
X154190476Y-159002438D02*
X154238095Y-159050057D01*
X154238095Y-159050057D02*
X154285714Y-159145295D01*
X154285714Y-159145295D02*
X154285714Y-159240533D01*
X154285714Y-159240533D02*
X154238095Y-159335771D01*
X154238095Y-159335771D02*
X154190476Y-159383390D01*
X154190476Y-159383390D02*
X154095238Y-159431009D01*
X154095238Y-159431009D02*
X153761905Y-159431009D01*
X155285714Y-159954819D02*
X154714286Y-159954819D01*
X155000000Y-159954819D02*
X155000000Y-158954819D01*
X155000000Y-158954819D02*
X154904762Y-159097676D01*
X154904762Y-159097676D02*
X154809524Y-159192914D01*
X154809524Y-159192914D02*
X154714286Y-159240533D01*
X150366667Y-145286104D02*
X150328571Y-145324200D01*
X150328571Y-145324200D02*
X150214286Y-145362295D01*
X150214286Y-145362295D02*
X150138095Y-145362295D01*
X150138095Y-145362295D02*
X150023809Y-145324200D01*
X150023809Y-145324200D02*
X149947619Y-145248009D01*
X149947619Y-145248009D02*
X149909524Y-145171819D01*
X149909524Y-145171819D02*
X149871428Y-145019438D01*
X149871428Y-145019438D02*
X149871428Y-144905152D01*
X149871428Y-144905152D02*
X149909524Y-144752771D01*
X149909524Y-144752771D02*
X149947619Y-144676580D01*
X149947619Y-144676580D02*
X150023809Y-144600390D01*
X150023809Y-144600390D02*
X150138095Y-144562295D01*
X150138095Y-144562295D02*
X150214286Y-144562295D01*
X150214286Y-144562295D02*
X150328571Y-144600390D01*
X150328571Y-144600390D02*
X150366667Y-144638485D01*
X150633333Y-144562295D02*
X151128571Y-144562295D01*
X151128571Y-144562295D02*
X150861905Y-144867057D01*
X150861905Y-144867057D02*
X150976190Y-144867057D01*
X150976190Y-144867057D02*
X151052381Y-144905152D01*
X151052381Y-144905152D02*
X151090476Y-144943247D01*
X151090476Y-144943247D02*
X151128571Y-145019438D01*
X151128571Y-145019438D02*
X151128571Y-145209914D01*
X151128571Y-145209914D02*
X151090476Y-145286104D01*
X151090476Y-145286104D02*
X151052381Y-145324200D01*
X151052381Y-145324200D02*
X150976190Y-145362295D01*
X150976190Y-145362295D02*
X150747619Y-145362295D01*
X150747619Y-145362295D02*
X150671428Y-145324200D01*
X150671428Y-145324200D02*
X150633333Y-145286104D01*
X146745833Y-140954819D02*
X146412500Y-140478628D01*
X146174405Y-140954819D02*
X146174405Y-139954819D01*
X146174405Y-139954819D02*
X146555357Y-139954819D01*
X146555357Y-139954819D02*
X146650595Y-140002438D01*
X146650595Y-140002438D02*
X146698214Y-140050057D01*
X146698214Y-140050057D02*
X146745833Y-140145295D01*
X146745833Y-140145295D02*
X146745833Y-140288152D01*
X146745833Y-140288152D02*
X146698214Y-140383390D01*
X146698214Y-140383390D02*
X146650595Y-140431009D01*
X146650595Y-140431009D02*
X146555357Y-140478628D01*
X146555357Y-140478628D02*
X146174405Y-140478628D01*
X147079167Y-139954819D02*
X147745833Y-139954819D01*
X147745833Y-139954819D02*
X147317262Y-140954819D01*
D13*
X156604761Y-164359695D02*
X156223809Y-164359695D01*
X156223809Y-164359695D02*
X156223809Y-163559695D01*
X156871428Y-163940647D02*
X157138094Y-163940647D01*
X157252380Y-164359695D02*
X156871428Y-164359695D01*
X156871428Y-164359695D02*
X156871428Y-163559695D01*
X156871428Y-163559695D02*
X157252380Y-163559695D01*
X157595238Y-164359695D02*
X157595238Y-163559695D01*
X157595238Y-163559695D02*
X157785714Y-163559695D01*
X157785714Y-163559695D02*
X157900000Y-163597790D01*
X157900000Y-163597790D02*
X157976190Y-163673980D01*
X157976190Y-163673980D02*
X158014285Y-163750171D01*
X158014285Y-163750171D02*
X158052381Y-163902552D01*
X158052381Y-163902552D02*
X158052381Y-164016838D01*
X158052381Y-164016838D02*
X158014285Y-164169219D01*
X158014285Y-164169219D02*
X157976190Y-164245409D01*
X157976190Y-164245409D02*
X157900000Y-164321600D01*
X157900000Y-164321600D02*
X157785714Y-164359695D01*
X157785714Y-164359695D02*
X157595238Y-164359695D01*
X158814285Y-164359695D02*
X158357142Y-164359695D01*
X158585714Y-164359695D02*
X158585714Y-163559695D01*
X158585714Y-163559695D02*
X158509523Y-163673980D01*
X158509523Y-163673980D02*
X158433333Y-163750171D01*
X158433333Y-163750171D02*
X158357142Y-163788266D01*
D10*
X149454819Y-152666666D02*
X148978628Y-152999999D01*
X149454819Y-153238094D02*
X148454819Y-153238094D01*
X148454819Y-153238094D02*
X148454819Y-152857142D01*
X148454819Y-152857142D02*
X148502438Y-152761904D01*
X148502438Y-152761904D02*
X148550057Y-152714285D01*
X148550057Y-152714285D02*
X148645295Y-152666666D01*
X148645295Y-152666666D02*
X148788152Y-152666666D01*
X148788152Y-152666666D02*
X148883390Y-152714285D01*
X148883390Y-152714285D02*
X148931009Y-152761904D01*
X148931009Y-152761904D02*
X148978628Y-152857142D01*
X148978628Y-152857142D02*
X148978628Y-153238094D01*
X149454819Y-152190475D02*
X149454819Y-151999999D01*
X149454819Y-151999999D02*
X149407200Y-151904761D01*
X149407200Y-151904761D02*
X149359580Y-151857142D01*
X149359580Y-151857142D02*
X149216723Y-151761904D01*
X149216723Y-151761904D02*
X149026247Y-151714285D01*
X149026247Y-151714285D02*
X148645295Y-151714285D01*
X148645295Y-151714285D02*
X148550057Y-151761904D01*
X148550057Y-151761904D02*
X148502438Y-151809523D01*
X148502438Y-151809523D02*
X148454819Y-151904761D01*
X148454819Y-151904761D02*
X148454819Y-152095237D01*
X148454819Y-152095237D02*
X148502438Y-152190475D01*
X148502438Y-152190475D02*
X148550057Y-152238094D01*
X148550057Y-152238094D02*
X148645295Y-152285713D01*
X148645295Y-152285713D02*
X148883390Y-152285713D01*
X148883390Y-152285713D02*
X148978628Y-152238094D01*
X148978628Y-152238094D02*
X149026247Y-152190475D01*
X149026247Y-152190475D02*
X149073866Y-152095237D01*
X149073866Y-152095237D02*
X149073866Y-151904761D01*
X149073866Y-151904761D02*
X149026247Y-151809523D01*
X149026247Y-151809523D02*
X148978628Y-151761904D01*
X148978628Y-151761904D02*
X148883390Y-151714285D01*
D11*
X131832380Y-169984842D02*
X132013809Y-170045318D01*
X132013809Y-170045318D02*
X132316190Y-170045318D01*
X132316190Y-170045318D02*
X132437142Y-169984842D01*
X132437142Y-169984842D02*
X132497618Y-169924365D01*
X132497618Y-169924365D02*
X132558095Y-169803413D01*
X132558095Y-169803413D02*
X132558095Y-169682461D01*
X132558095Y-169682461D02*
X132497618Y-169561508D01*
X132497618Y-169561508D02*
X132437142Y-169501032D01*
X132437142Y-169501032D02*
X132316190Y-169440556D01*
X132316190Y-169440556D02*
X132074285Y-169380080D01*
X132074285Y-169380080D02*
X131953333Y-169319603D01*
X131953333Y-169319603D02*
X131892856Y-169259127D01*
X131892856Y-169259127D02*
X131832380Y-169138175D01*
X131832380Y-169138175D02*
X131832380Y-169017222D01*
X131832380Y-169017222D02*
X131892856Y-168896270D01*
X131892856Y-168896270D02*
X131953333Y-168835794D01*
X131953333Y-168835794D02*
X132074285Y-168775318D01*
X132074285Y-168775318D02*
X132376666Y-168775318D01*
X132376666Y-168775318D02*
X132558095Y-168835794D01*
X133041904Y-168896270D02*
X133102380Y-168835794D01*
X133102380Y-168835794D02*
X133223333Y-168775318D01*
X133223333Y-168775318D02*
X133525714Y-168775318D01*
X133525714Y-168775318D02*
X133646666Y-168835794D01*
X133646666Y-168835794D02*
X133707142Y-168896270D01*
X133707142Y-168896270D02*
X133767619Y-169017222D01*
X133767619Y-169017222D02*
X133767619Y-169138175D01*
X133767619Y-169138175D02*
X133707142Y-169319603D01*
X133707142Y-169319603D02*
X132981428Y-170045318D01*
X132981428Y-170045318D02*
X133767619Y-170045318D01*
D10*
X132144819Y-108333333D02*
X132859104Y-108333333D01*
X132859104Y-108333333D02*
X133001961Y-108380952D01*
X133001961Y-108380952D02*
X133097200Y-108476190D01*
X133097200Y-108476190D02*
X133144819Y-108619047D01*
X133144819Y-108619047D02*
X133144819Y-108714285D01*
X132240057Y-107904761D02*
X132192438Y-107857142D01*
X132192438Y-107857142D02*
X132144819Y-107761904D01*
X132144819Y-107761904D02*
X132144819Y-107523809D01*
X132144819Y-107523809D02*
X132192438Y-107428571D01*
X132192438Y-107428571D02*
X132240057Y-107380952D01*
X132240057Y-107380952D02*
X132335295Y-107333333D01*
X132335295Y-107333333D02*
X132430533Y-107333333D01*
X132430533Y-107333333D02*
X132573390Y-107380952D01*
X132573390Y-107380952D02*
X133144819Y-107952380D01*
X133144819Y-107952380D02*
X133144819Y-107333333D01*
X134333333Y-164954819D02*
X134000000Y-164478628D01*
X133761905Y-164954819D02*
X133761905Y-163954819D01*
X133761905Y-163954819D02*
X134142857Y-163954819D01*
X134142857Y-163954819D02*
X134238095Y-164002438D01*
X134238095Y-164002438D02*
X134285714Y-164050057D01*
X134285714Y-164050057D02*
X134333333Y-164145295D01*
X134333333Y-164145295D02*
X134333333Y-164288152D01*
X134333333Y-164288152D02*
X134285714Y-164383390D01*
X134285714Y-164383390D02*
X134238095Y-164431009D01*
X134238095Y-164431009D02*
X134142857Y-164478628D01*
X134142857Y-164478628D02*
X133761905Y-164478628D01*
X134714286Y-164050057D02*
X134761905Y-164002438D01*
X134761905Y-164002438D02*
X134857143Y-163954819D01*
X134857143Y-163954819D02*
X135095238Y-163954819D01*
X135095238Y-163954819D02*
X135190476Y-164002438D01*
X135190476Y-164002438D02*
X135238095Y-164050057D01*
X135238095Y-164050057D02*
X135285714Y-164145295D01*
X135285714Y-164145295D02*
X135285714Y-164240533D01*
X135285714Y-164240533D02*
X135238095Y-164383390D01*
X135238095Y-164383390D02*
X134666667Y-164954819D01*
X134666667Y-164954819D02*
X135285714Y-164954819D01*
X147833333Y-155954819D02*
X147500000Y-155478628D01*
X147261905Y-155954819D02*
X147261905Y-154954819D01*
X147261905Y-154954819D02*
X147642857Y-154954819D01*
X147642857Y-154954819D02*
X147738095Y-155002438D01*
X147738095Y-155002438D02*
X147785714Y-155050057D01*
X147785714Y-155050057D02*
X147833333Y-155145295D01*
X147833333Y-155145295D02*
X147833333Y-155288152D01*
X147833333Y-155288152D02*
X147785714Y-155383390D01*
X147785714Y-155383390D02*
X147738095Y-155431009D01*
X147738095Y-155431009D02*
X147642857Y-155478628D01*
X147642857Y-155478628D02*
X147261905Y-155478628D01*
X148166667Y-154954819D02*
X148785714Y-154954819D01*
X148785714Y-154954819D02*
X148452381Y-155335771D01*
X148452381Y-155335771D02*
X148595238Y-155335771D01*
X148595238Y-155335771D02*
X148690476Y-155383390D01*
X148690476Y-155383390D02*
X148738095Y-155431009D01*
X148738095Y-155431009D02*
X148785714Y-155526247D01*
X148785714Y-155526247D02*
X148785714Y-155764342D01*
X148785714Y-155764342D02*
X148738095Y-155859580D01*
X148738095Y-155859580D02*
X148690476Y-155907200D01*
X148690476Y-155907200D02*
X148595238Y-155954819D01*
X148595238Y-155954819D02*
X148309524Y-155954819D01*
X148309524Y-155954819D02*
X148214286Y-155907200D01*
X148214286Y-155907200D02*
X148166667Y-155859580D01*
%TO.C,C4*%
D13*
X152475000Y-166680000D02*
X153525000Y-166680000D01*
%TO.C,J4*%
D14*
X154670000Y-134460000D02*
X154670000Y-142140000D01*
X154670000Y-134460000D02*
X157330000Y-134460000D01*
X154670000Y-142140000D02*
X157330000Y-142140000D01*
X156000000Y-131860000D02*
X157330000Y-131860000D01*
X157330000Y-131860000D02*
X157330000Y-133190000D01*
X157330000Y-134460000D02*
X157330000Y-142140000D01*
%TO.C,J3*%
X121170000Y-134270000D02*
X121170000Y-141950000D01*
X121170000Y-134270000D02*
X123830000Y-134270000D01*
X121170000Y-141950000D02*
X123830000Y-141950000D01*
X122500000Y-131670000D02*
X123830000Y-131670000D01*
X123830000Y-131670000D02*
X123830000Y-133000000D01*
X123830000Y-134270000D02*
X123830000Y-141950000D01*
%TO.C,R1*%
X126314564Y-162235000D02*
X125860436Y-162235000D01*
X126314564Y-160765000D02*
X125860436Y-160765000D01*
%TO.C,R4*%
X150139564Y-165235000D02*
X149685436Y-165235000D01*
X150139564Y-163765000D02*
X149685436Y-163765000D01*
%TO.C,J1*%
X149370000Y-162830000D02*
X148040000Y-162830000D01*
X149370000Y-161500000D02*
X149370000Y-162830000D01*
X146770000Y-162830000D02*
X128930000Y-162830000D01*
X146770000Y-160170000D02*
X146770000Y-162830000D01*
X146770000Y-160170000D02*
X128930000Y-160170000D01*
X128930000Y-160170000D02*
X128930000Y-162830000D01*
%TO.C,R8*%
X151235000Y-155139564D02*
X151235000Y-154685436D01*
X149765000Y-155139564D02*
X149765000Y-154685436D01*
%TO.C,U1*%
X131680000Y-140250000D02*
X131210000Y-140590000D01*
X131210000Y-139910000D01*
X131680000Y-140250000D01*
G36*
X131680000Y-140250000D02*
G01*
X131210000Y-140590000D01*
X131210000Y-139910000D01*
X131680000Y-140250000D01*
G37*
X138610000Y-139610000D02*
X138310000Y-139610000D01*
X138610000Y-139310000D02*
X138610000Y-139610000D01*
X138610000Y-132390000D02*
X138610000Y-132690000D01*
X138310000Y-132390000D02*
X138610000Y-132390000D01*
X131690000Y-139610000D02*
X131390000Y-139610000D01*
X131390000Y-139610000D02*
X131390000Y-139310000D01*
X131390000Y-132690000D02*
X131390000Y-132390000D01*
X131390000Y-132390000D02*
X131690000Y-132390000D01*
%TO.C,S1*%
D11*
X142350000Y-166500000D02*
X148850000Y-166500000D01*
X142350000Y-168400000D02*
X142350000Y-170600000D01*
X142350000Y-172500000D02*
X148850000Y-172500000D01*
X148850000Y-168400000D02*
X148850000Y-170600000D01*
X140075000Y-166617000D02*
G75*
G02*
X139853000Y-166617000I-111000J0D01*
G01*
X139853000Y-166617000D02*
G75*
G02*
X140075000Y-166617000I111000J0D01*
G01*
%TO.C,R5*%
D14*
X151860436Y-162235000D02*
X152314564Y-162235000D01*
X151860436Y-160765000D02*
X152314564Y-160765000D01*
%TO.C,C5*%
D13*
X126320000Y-164975000D02*
X126320000Y-166025000D01*
%TO.C,R6*%
D14*
X147227064Y-131765000D02*
X146772936Y-131765000D01*
X147227064Y-133235000D02*
X146772936Y-133235000D01*
%TO.C,IC1*%
D15*
X147800000Y-134100000D02*
G75*
G02*
X147550000Y-134100000I-125000J0D01*
G01*
X147550000Y-134100000D02*
G75*
G02*
X147800000Y-134100000I125000J0D01*
G01*
%TO.C,C1*%
D13*
X135180000Y-144475000D02*
X135180000Y-145525000D01*
%TO.C,C2*%
X135180000Y-143525000D02*
X135180000Y-142475000D01*
%TO.C,USB1*%
D14*
X153960000Y-146900000D02*
X155590000Y-146900000D01*
X153960000Y-156100000D02*
X155590000Y-156100000D01*
%TO.C,R7*%
X147139564Y-137765000D02*
X146685436Y-137765000D01*
X147139564Y-139235000D02*
X146685436Y-139235000D01*
%TO.C,LED1*%
D16*
X155840000Y-160650000D02*
X157080000Y-160650000D01*
X155840000Y-162350000D02*
X157080000Y-162350000D01*
%TO.C,R9*%
D14*
X149765000Y-151185436D02*
X149765000Y-151639564D01*
X151235000Y-151185436D02*
X151235000Y-151639564D01*
%TO.C,U2*%
X138940000Y-146790000D02*
X138940000Y-148050000D01*
X138940000Y-153610000D02*
X138940000Y-152350000D01*
X142700000Y-146790000D02*
X138940000Y-146790000D01*
X142700000Y-153610000D02*
X138940000Y-153610000D01*
X143980000Y-153510000D02*
X144220000Y-153840000D01*
X143740000Y-153840000D01*
X143980000Y-153510000D01*
G36*
X144220000Y-153840000D02*
G01*
X143740000Y-153840000D01*
X143980000Y-153510000D01*
X144220000Y-153840000D01*
G37*
D17*
%TO.C,*%
G36*
X147668208Y-118777802D02*
G01*
X147697192Y-118806979D01*
X147708017Y-118845703D01*
X147696191Y-118887052D01*
X147665900Y-118917748D01*
X147624926Y-118934091D01*
X147581050Y-118932378D01*
X147553669Y-118919115D01*
X147534496Y-118890236D01*
X147529421Y-118849497D01*
X147538594Y-118808333D01*
X147551934Y-118787132D01*
X147587607Y-118764886D01*
X147629023Y-118762773D01*
X147668208Y-118777802D01*
G37*
G36*
X147659423Y-119151888D02*
G01*
X147689864Y-119181562D01*
X147700837Y-119222918D01*
X147694687Y-119254886D01*
X147677931Y-119278236D01*
X147650764Y-119300549D01*
X147623342Y-119314661D01*
X147608710Y-119315550D01*
X147595703Y-119310748D01*
X147585836Y-119307201D01*
X147550969Y-119283201D01*
X147534184Y-119247826D01*
X147534228Y-119208489D01*
X147549848Y-119172599D01*
X147579790Y-119147570D01*
X147614057Y-119140347D01*
X147659423Y-119151888D01*
G37*
G36*
X148095055Y-118759137D02*
G01*
X148122691Y-118779768D01*
X148149719Y-118822745D01*
X148154108Y-118868876D01*
X148138645Y-118911793D01*
X148106119Y-118945125D01*
X148059316Y-118962504D01*
X148042222Y-118963656D01*
X147998915Y-118955465D01*
X147966939Y-118927886D01*
X147944206Y-118881035D01*
X147943450Y-118832983D01*
X147961796Y-118790217D01*
X147996365Y-118759224D01*
X148044282Y-118746488D01*
X148047408Y-118746446D01*
X148095055Y-118759137D01*
G37*
G36*
X152816803Y-119342320D02*
G01*
X152859399Y-119373924D01*
X152890667Y-119417869D01*
X152904891Y-119467011D01*
X152902508Y-119497503D01*
X152877645Y-119546397D01*
X152835187Y-119582979D01*
X152782938Y-119603033D01*
X152728700Y-119602341D01*
X152715747Y-119598433D01*
X152664030Y-119567591D01*
X152633993Y-119520741D01*
X152627895Y-119497803D01*
X152629003Y-119438254D01*
X152652687Y-119387171D01*
X152694568Y-119349775D01*
X152750264Y-119331281D01*
X152768596Y-119330198D01*
X152816803Y-119342320D01*
G37*
G36*
X153310161Y-120780325D02*
G01*
X153340202Y-120806154D01*
X153341247Y-120807197D01*
X153375266Y-120855220D01*
X153382214Y-120903607D01*
X153362082Y-120951491D01*
X153342947Y-120973893D01*
X153294905Y-121006183D01*
X153243297Y-121014325D01*
X153194031Y-120998100D01*
X153171590Y-120980254D01*
X153145515Y-120941320D01*
X153138268Y-120893516D01*
X153148005Y-120836241D01*
X153177671Y-120797334D01*
X153227951Y-120776010D01*
X153242963Y-120773447D01*
X153282400Y-120771020D01*
X153310161Y-120780325D01*
G37*
G36*
X145874556Y-119701722D02*
G01*
X145926619Y-119720994D01*
X145962509Y-119755693D01*
X145981336Y-119799703D01*
X145982210Y-119846906D01*
X145964240Y-119891187D01*
X145926536Y-119926428D01*
X145908590Y-119935463D01*
X145865537Y-119950641D01*
X145834439Y-119952285D01*
X145803929Y-119940770D01*
X145800641Y-119939000D01*
X145762304Y-119908773D01*
X145743360Y-119867207D01*
X145739551Y-119824320D01*
X145743625Y-119782091D01*
X145760270Y-119752015D01*
X145782921Y-119730538D01*
X145818014Y-119706286D01*
X145850806Y-119699419D01*
X145874556Y-119701722D01*
G37*
G36*
X148083131Y-119131167D02*
G01*
X148138079Y-119152934D01*
X148180480Y-119192366D01*
X148189722Y-119207573D01*
X148209748Y-119272102D01*
X148205519Y-119335112D01*
X148178975Y-119391007D01*
X148132054Y-119434196D01*
X148106655Y-119447236D01*
X148057442Y-119462818D01*
X148014764Y-119461561D01*
X147970227Y-119446084D01*
X147924615Y-119413047D01*
X147896220Y-119365330D01*
X147885120Y-119309313D01*
X147891396Y-119251378D01*
X147915129Y-119197904D01*
X147956397Y-119155273D01*
X147966495Y-119148767D01*
X148023361Y-119129099D01*
X148083131Y-119131167D01*
G37*
G36*
X149600056Y-118235142D02*
G01*
X149635386Y-118247916D01*
X149653473Y-118256442D01*
X149713150Y-118297987D01*
X149753755Y-118352240D01*
X149774941Y-118413980D01*
X149776364Y-118477983D01*
X149757675Y-118539027D01*
X149718529Y-118591890D01*
X149677706Y-118621827D01*
X149610199Y-118651529D01*
X149550362Y-118658595D01*
X149491544Y-118643457D01*
X149473853Y-118635040D01*
X149416371Y-118592244D01*
X149379667Y-118537691D01*
X149363062Y-118476257D01*
X149365878Y-118412824D01*
X149387437Y-118352269D01*
X149427059Y-118299472D01*
X149484067Y-118259311D01*
X149528410Y-118242746D01*
X149568991Y-118233921D01*
X149600056Y-118235142D01*
G37*
G36*
X153089757Y-122322918D02*
G01*
X153132772Y-122338303D01*
X153152361Y-122347381D01*
X153204079Y-122385299D01*
X153243666Y-122437084D01*
X153266681Y-122494959D01*
X153268688Y-122551121D01*
X153244482Y-122617848D01*
X153202555Y-122672160D01*
X153148067Y-122711547D01*
X153086179Y-122733497D01*
X153022051Y-122735499D01*
X152960844Y-122715043D01*
X152948072Y-122707135D01*
X152889734Y-122653701D01*
X152855134Y-122590973D01*
X152845219Y-122522613D01*
X152860938Y-122452285D01*
X152874802Y-122424095D01*
X152908494Y-122385143D01*
X152957864Y-122350084D01*
X153012186Y-122325240D01*
X153056815Y-122316836D01*
X153089757Y-122322918D01*
G37*
G36*
X148583928Y-118731497D02*
G01*
X148608391Y-118757428D01*
X148637771Y-118806987D01*
X148663063Y-118855746D01*
X148699857Y-118933942D01*
X148721255Y-118995619D01*
X148728132Y-119045993D01*
X148721361Y-119090281D01*
X148707824Y-119122700D01*
X148672571Y-119163563D01*
X148621186Y-119189924D01*
X148562067Y-119198916D01*
X148510251Y-119190161D01*
X148456534Y-119157876D01*
X148419843Y-119106221D01*
X148405529Y-119058039D01*
X148404175Y-119032642D01*
X148409587Y-119003558D01*
X148423627Y-118965342D01*
X148448154Y-118912549D01*
X148470368Y-118868299D01*
X148507603Y-118797597D01*
X148536778Y-118751371D01*
X148561139Y-118729408D01*
X148583928Y-118731497D01*
G37*
G36*
X147162420Y-118787541D02*
G01*
X147180187Y-118814334D01*
X147203401Y-118857324D01*
X147229849Y-118911964D01*
X147257316Y-118973709D01*
X147283587Y-119038010D01*
X147303631Y-119092163D01*
X147322788Y-119168271D01*
X147321003Y-119230347D01*
X147297751Y-119282259D01*
X147274063Y-119309388D01*
X147222150Y-119342064D01*
X147160655Y-119355217D01*
X147099030Y-119347914D01*
X147061265Y-119330389D01*
X147015786Y-119285310D01*
X146992825Y-119225725D01*
X146991656Y-119163671D01*
X146999167Y-119133365D01*
X147015455Y-119085751D01*
X147037934Y-119026983D01*
X147064019Y-118963210D01*
X147091123Y-118900585D01*
X147116661Y-118845258D01*
X147138046Y-118803381D01*
X147152316Y-118781493D01*
X147162420Y-118787541D01*
G37*
G36*
X146633465Y-118730437D02*
G01*
X146666429Y-118759752D01*
X146700973Y-118801070D01*
X146731873Y-118848221D01*
X146752214Y-118890448D01*
X146767669Y-118959896D01*
X146758116Y-119020450D01*
X146723821Y-119070750D01*
X146715493Y-119078230D01*
X146685270Y-119100566D01*
X146661906Y-119112542D01*
X146658258Y-119113173D01*
X146632219Y-119116148D01*
X146615179Y-119119429D01*
X146581792Y-119119061D01*
X146554368Y-119111741D01*
X146496166Y-119075927D01*
X146461026Y-119026293D01*
X146449843Y-118964412D01*
X146452770Y-118933554D01*
X146465427Y-118895223D01*
X146489366Y-118849502D01*
X146520020Y-118802721D01*
X146552824Y-118761210D01*
X146583214Y-118731297D01*
X146606625Y-118719312D01*
X146607305Y-118719295D01*
X146633465Y-118730437D01*
G37*
G36*
X147610336Y-119545586D02*
G01*
X147632605Y-119573155D01*
X147659436Y-119614451D01*
X147687522Y-119663963D01*
X147713558Y-119716184D01*
X147734237Y-119765603D01*
X147736116Y-119770838D01*
X147751223Y-119820852D01*
X147753977Y-119858626D01*
X147743976Y-119896301D01*
X147731024Y-119925290D01*
X147699675Y-119961825D01*
X147652066Y-119985708D01*
X147596745Y-119995323D01*
X147542256Y-119989055D01*
X147501263Y-119968712D01*
X147461338Y-119921902D01*
X147441273Y-119864252D01*
X147442125Y-119815753D01*
X147452115Y-119786109D01*
X147471626Y-119742939D01*
X147497277Y-119692366D01*
X147525686Y-119640513D01*
X147553469Y-119593507D01*
X147577245Y-119557470D01*
X147593632Y-119538528D01*
X147595936Y-119537254D01*
X147610336Y-119545586D01*
G37*
G36*
X152573621Y-123445502D02*
G01*
X152646266Y-123482585D01*
X152707031Y-123536880D01*
X152752335Y-123605959D01*
X152778599Y-123687397D01*
X152782551Y-123775261D01*
X152762623Y-123864193D01*
X152720401Y-123940153D01*
X152658715Y-124000464D01*
X152580394Y-124042454D01*
X152488267Y-124063446D01*
X152476715Y-124064407D01*
X152422935Y-124066517D01*
X152383649Y-124062292D01*
X152346478Y-124049301D01*
X152312024Y-124032068D01*
X152238321Y-123979383D01*
X152185052Y-123913320D01*
X152152154Y-123838196D01*
X152139567Y-123758331D01*
X152147228Y-123678040D01*
X152175075Y-123601642D01*
X152223047Y-123533454D01*
X152291081Y-123477794D01*
X152320193Y-123461792D01*
X152407004Y-123432678D01*
X152492673Y-123428057D01*
X152573621Y-123445502D01*
G37*
G36*
X145425718Y-119838299D02*
G01*
X145437942Y-119854495D01*
X145457781Y-119889895D01*
X145482470Y-119938614D01*
X145509244Y-119994767D01*
X145535337Y-120052470D01*
X145557985Y-120105838D01*
X145574422Y-120148986D01*
X145579832Y-120166297D01*
X145587212Y-120237793D01*
X145571119Y-120300652D01*
X145533973Y-120350910D01*
X145478193Y-120384604D01*
X145440429Y-120394642D01*
X145389185Y-120394314D01*
X145352646Y-120384087D01*
X145301326Y-120352918D01*
X145271260Y-120312462D01*
X145258636Y-120256466D01*
X145257616Y-120228158D01*
X145259263Y-120192051D01*
X145265544Y-120157049D01*
X145278472Y-120117014D01*
X145300057Y-120065810D01*
X145332311Y-119997301D01*
X145335354Y-119991010D01*
X145365005Y-119932201D01*
X145391417Y-119884277D01*
X145412057Y-119851519D01*
X145424391Y-119838206D01*
X145425718Y-119838299D01*
G37*
G36*
X145840802Y-118785179D02*
G01*
X145859811Y-118817258D01*
X145886163Y-118865838D01*
X145917672Y-118926920D01*
X145943925Y-118979656D01*
X145982302Y-119058981D01*
X146009756Y-119119032D01*
X146028020Y-119164560D01*
X146038824Y-119200313D01*
X146043899Y-119231042D01*
X146045003Y-119256961D01*
X146033390Y-119331099D01*
X145999764Y-119390359D01*
X145945948Y-119432869D01*
X145873763Y-119456755D01*
X145847357Y-119460136D01*
X145792280Y-119461124D01*
X145749120Y-119451231D01*
X145722005Y-119438440D01*
X145664556Y-119393674D01*
X145629778Y-119334093D01*
X145617452Y-119259314D01*
X145617421Y-119255174D01*
X145619166Y-119225494D01*
X145625587Y-119193703D01*
X145638393Y-119155154D01*
X145659294Y-119105201D01*
X145690000Y-119039196D01*
X145718580Y-118980267D01*
X145752562Y-118912197D01*
X145783065Y-118853566D01*
X145807911Y-118808367D01*
X145824922Y-118780595D01*
X145831319Y-118773597D01*
X145840802Y-118785179D01*
G37*
G36*
X151538011Y-123409069D02*
G01*
X151608836Y-123438553D01*
X151665359Y-123486283D01*
X151704274Y-123548743D01*
X151722277Y-123622414D01*
X151720172Y-123682205D01*
X151712914Y-123719471D01*
X151702094Y-123736993D01*
X151681845Y-123742081D01*
X151671937Y-123742277D01*
X151599381Y-123749896D01*
X151526093Y-123770304D01*
X151464395Y-123799824D01*
X151453073Y-123807565D01*
X151365937Y-123872557D01*
X151276577Y-123940044D01*
X151189959Y-124006213D01*
X151111049Y-124067252D01*
X151044813Y-124119347D01*
X151001775Y-124154087D01*
X150943442Y-124198122D01*
X150897463Y-124224555D01*
X150865517Y-124232928D01*
X150849280Y-124222784D01*
X150849955Y-124195493D01*
X150858557Y-124131337D01*
X150858026Y-124053574D01*
X150849111Y-123973887D01*
X150832561Y-123903959D01*
X150830980Y-123899280D01*
X150818114Y-123856344D01*
X150812320Y-123824294D01*
X150814335Y-123811038D01*
X150845619Y-123789324D01*
X150892496Y-123756109D01*
X150950222Y-123714821D01*
X151014053Y-123668891D01*
X151079244Y-123621750D01*
X151141053Y-123576826D01*
X151194735Y-123537550D01*
X151235546Y-123507352D01*
X151258044Y-123490221D01*
X151324678Y-123442891D01*
X151383819Y-123414713D01*
X151443073Y-123402277D01*
X151456191Y-123401348D01*
X151538011Y-123409069D01*
G37*
G36*
X149933600Y-117111312D02*
G01*
X150033826Y-117139745D01*
X150120096Y-117190852D01*
X150190786Y-117263500D01*
X150244271Y-117356560D01*
X150265879Y-117416416D01*
X150282959Y-117489392D01*
X150285445Y-117552785D01*
X150273420Y-117619853D01*
X150267323Y-117641576D01*
X150225144Y-117739968D01*
X150163890Y-117822305D01*
X150087202Y-117886813D01*
X149998723Y-117931719D01*
X149902094Y-117955249D01*
X149800957Y-117955629D01*
X149698952Y-117931087D01*
X149684490Y-117925430D01*
X149590893Y-117872614D01*
X149513268Y-117798756D01*
X149462145Y-117721486D01*
X149443572Y-117681436D01*
X149432643Y-117642817D01*
X149427416Y-117595797D01*
X149425985Y-117538215D01*
X149427122Y-117474229D01*
X149432672Y-117426722D01*
X149435338Y-117417400D01*
X149571404Y-117417400D01*
X149574580Y-117467180D01*
X149595156Y-117503476D01*
X149627338Y-117523429D01*
X149665334Y-117524180D01*
X149703350Y-117502871D01*
X149716225Y-117488869D01*
X149735545Y-117460686D01*
X149744314Y-117440743D01*
X149744361Y-117439915D01*
X149754061Y-117423079D01*
X149777480Y-117400683D01*
X149778300Y-117400033D01*
X149806599Y-117363637D01*
X149808964Y-117321098D01*
X149791106Y-117283299D01*
X149759607Y-117257789D01*
X149720136Y-117253353D01*
X149677457Y-117267084D01*
X149636330Y-117296073D01*
X149601520Y-117337416D01*
X149577788Y-117388204D01*
X149571404Y-117417400D01*
X149435338Y-117417400D01*
X149444564Y-117385137D01*
X149460900Y-117346982D01*
X149516852Y-117254845D01*
X149588063Y-117185034D01*
X149675060Y-117137199D01*
X149778372Y-117110986D01*
X149821043Y-117106684D01*
X149933600Y-117111312D01*
G37*
G36*
X153115483Y-121860790D02*
G01*
X153224477Y-121875684D01*
X153289684Y-121893062D01*
X153405168Y-121945129D01*
X153505795Y-122017625D01*
X153590048Y-122107330D01*
X153656411Y-122211025D01*
X153703369Y-122325490D01*
X153729404Y-122447506D01*
X153733001Y-122573853D01*
X153712643Y-122701313D01*
X153696065Y-122755896D01*
X153645998Y-122861559D01*
X153574144Y-122961104D01*
X153485862Y-123049006D01*
X153386509Y-123119744D01*
X153304475Y-123159566D01*
X153235297Y-123178718D01*
X153149840Y-123191201D01*
X153057066Y-123196727D01*
X152965938Y-123195009D01*
X152885422Y-123185760D01*
X152839605Y-123174462D01*
X152746465Y-123138357D01*
X152671252Y-123096744D01*
X152604741Y-123044242D01*
X152586110Y-123026553D01*
X152498144Y-122926080D01*
X152435544Y-122820746D01*
X152396564Y-122706373D01*
X152379459Y-122578783D01*
X152378431Y-122534046D01*
X152615607Y-122534046D01*
X152616696Y-122599951D01*
X152620883Y-122647025D01*
X152629547Y-122683533D01*
X152644067Y-122717741D01*
X152647312Y-122724105D01*
X152708375Y-122815469D01*
X152785810Y-122888666D01*
X152875794Y-122940653D01*
X152948039Y-122963640D01*
X153019111Y-122976454D01*
X153076766Y-122979359D01*
X153133028Y-122971926D01*
X153196616Y-122954750D01*
X153292465Y-122911921D01*
X153372740Y-122849727D01*
X153435869Y-122772069D01*
X153480279Y-122682846D01*
X153504396Y-122585957D01*
X153506648Y-122485302D01*
X153485461Y-122384780D01*
X153454829Y-122314711D01*
X153393766Y-122228726D01*
X153317058Y-122161828D01*
X153228793Y-122114643D01*
X153133056Y-122087801D01*
X153033936Y-122081931D01*
X152935518Y-122097660D01*
X152841890Y-122135618D01*
X152757139Y-122196433D01*
X152747169Y-122205871D01*
X152688047Y-122271387D01*
X152648589Y-122336385D01*
X152625701Y-122408578D01*
X152616292Y-122495682D01*
X152615607Y-122534046D01*
X152378431Y-122534046D01*
X152378320Y-122529222D01*
X152391356Y-122394164D01*
X152428627Y-122269069D01*
X152488337Y-122156173D01*
X152568691Y-122057717D01*
X152667893Y-121975937D01*
X152784149Y-121913073D01*
X152903799Y-121874061D01*
X153004531Y-121860049D01*
X153115483Y-121860790D01*
G37*
G36*
X151611031Y-117374412D02*
G01*
X151744507Y-117410843D01*
X151867023Y-117468615D01*
X151976702Y-117545315D01*
X152071673Y-117638531D01*
X152150061Y-117745851D01*
X152209993Y-117864864D01*
X152249595Y-117993157D01*
X152266993Y-118128320D01*
X152260314Y-118267939D01*
X152242610Y-118358237D01*
X152200102Y-118484995D01*
X152139830Y-118596344D01*
X152057651Y-118699514D01*
X152031925Y-118726153D01*
X151929935Y-118815041D01*
X151823948Y-118879913D01*
X151709451Y-118922572D01*
X151581927Y-118944821D01*
X151473294Y-118949187D01*
X151405754Y-118946728D01*
X151339269Y-118940917D01*
X151284602Y-118932815D01*
X151267626Y-118928948D01*
X151133587Y-118879055D01*
X151011440Y-118805465D01*
X150903621Y-118709935D01*
X150821220Y-118607199D01*
X150760767Y-118506278D01*
X150720129Y-118407284D01*
X150696800Y-118301844D01*
X150688271Y-118181586D01*
X150688114Y-118162694D01*
X150696844Y-118022967D01*
X150710921Y-117960662D01*
X151007326Y-117960662D01*
X151018665Y-118013955D01*
X151047637Y-118052091D01*
X151088368Y-118072366D01*
X151134983Y-118072076D01*
X151181608Y-118048517D01*
X151187411Y-118043561D01*
X151209624Y-118017684D01*
X151234587Y-117980627D01*
X151240714Y-117970139D01*
X151271205Y-117928993D01*
X151311122Y-117890548D01*
X151321857Y-117882506D01*
X151366273Y-117858164D01*
X151423201Y-117835362D01*
X151481277Y-117817980D01*
X151529136Y-117809898D01*
X151535034Y-117809727D01*
X151558413Y-117801011D01*
X151586378Y-117780210D01*
X151613032Y-117740083D01*
X151616930Y-117696529D01*
X151601040Y-117654811D01*
X151568327Y-117620192D01*
X151521758Y-117597935D01*
X151480572Y-117592517D01*
X151420688Y-117599832D01*
X151349395Y-117619341D01*
X151277333Y-117647393D01*
X151215141Y-117680336D01*
X151204867Y-117687159D01*
X151135824Y-117743083D01*
X151078129Y-117805329D01*
X151035417Y-117868859D01*
X151011328Y-117928637D01*
X151007326Y-117960662D01*
X150710921Y-117960662D01*
X150724891Y-117898834D01*
X150774267Y-117785439D01*
X150846985Y-117677925D01*
X150924843Y-117591349D01*
X151036022Y-117496158D01*
X151155132Y-117426736D01*
X151283533Y-117382509D01*
X151422588Y-117362901D01*
X151468466Y-117361732D01*
X151611031Y-117374412D01*
G37*
G36*
X149513784Y-119754696D02*
G01*
X149514192Y-119852562D01*
X149515238Y-119941695D01*
X149516825Y-120018439D01*
X149518856Y-120079139D01*
X149521234Y-120120140D01*
X149523861Y-120137785D01*
X149523965Y-120137948D01*
X149541089Y-120144063D01*
X149578844Y-120149291D01*
X149630710Y-120152885D01*
X149662908Y-120153894D01*
X149844649Y-120169985D01*
X150016716Y-120210707D01*
X150177419Y-120274990D01*
X150325068Y-120361765D01*
X150457973Y-120469961D01*
X150574444Y-120598509D01*
X150672793Y-120746338D01*
X150709655Y-120816729D01*
X150760318Y-120933234D01*
X150794192Y-121042498D01*
X150813539Y-121154622D01*
X150820626Y-121279709D01*
X150820757Y-121312239D01*
X150815340Y-121442686D01*
X150798748Y-121557265D01*
X150768698Y-121665760D01*
X150722908Y-121777955D01*
X150702037Y-121821326D01*
X150609779Y-121979703D01*
X150501277Y-122116351D01*
X150376348Y-122231429D01*
X150234810Y-122325098D01*
X150076480Y-122397520D01*
X150029450Y-122413903D01*
X149969749Y-122432191D01*
X149916398Y-122445065D01*
X149861030Y-122453851D01*
X149795277Y-122459876D01*
X149710770Y-122464466D01*
X149710422Y-122464482D01*
X149520363Y-122472956D01*
X149516694Y-122754650D01*
X149513025Y-123036344D01*
X149469179Y-123034495D01*
X149426029Y-123031456D01*
X149391395Y-123027438D01*
X149293799Y-123008903D01*
X149184879Y-122982450D01*
X149076805Y-122951351D01*
X148981747Y-122918873D01*
X148969128Y-122913992D01*
X148783425Y-122830245D01*
X148616122Y-122731595D01*
X148460738Y-122613766D01*
X148330948Y-122493079D01*
X148190727Y-122333364D01*
X148068742Y-122157005D01*
X147967241Y-121968165D01*
X147888474Y-121771009D01*
X147836165Y-121576964D01*
X147823362Y-121495422D01*
X147813837Y-121396174D01*
X147807913Y-121288071D01*
X147806430Y-121208019D01*
X148625720Y-121208019D01*
X148628619Y-121242598D01*
X148636456Y-121265046D01*
X148651207Y-121282864D01*
X148662462Y-121292958D01*
X148712052Y-121320690D01*
X148764237Y-121323018D01*
X148794649Y-121311928D01*
X148821621Y-121289888D01*
X148841282Y-121253944D01*
X148855864Y-121198993D01*
X148862961Y-121155789D01*
X148894254Y-121023537D01*
X148947944Y-120901409D01*
X149021640Y-120792589D01*
X149112948Y-120700264D01*
X149219474Y-120627620D01*
X149282071Y-120597866D01*
X149331963Y-120574603D01*
X149375380Y-120549367D01*
X149401577Y-120528840D01*
X149428190Y-120483722D01*
X149430466Y-120436396D01*
X149409936Y-120392896D01*
X149368134Y-120359255D01*
X149357207Y-120354179D01*
X149316463Y-120342897D01*
X149271982Y-120343803D01*
X149218129Y-120357945D01*
X149149270Y-120386367D01*
X149126670Y-120396961D01*
X149001899Y-120470462D01*
X148891011Y-120563537D01*
X148796344Y-120672653D01*
X148720236Y-120794277D01*
X148665025Y-120924876D01*
X148633049Y-121060919D01*
X148625782Y-121153807D01*
X148625720Y-121208019D01*
X147806430Y-121208019D01*
X147805910Y-121179963D01*
X147808151Y-121080702D01*
X147814957Y-120999137D01*
X147815124Y-120997880D01*
X147856979Y-120783872D01*
X147923218Y-120577967D01*
X148012241Y-120382151D01*
X148122446Y-120198410D01*
X148252235Y-120028731D01*
X148400005Y-119875101D01*
X148564158Y-119739506D01*
X148743092Y-119623932D01*
X148935208Y-119530367D01*
X149024853Y-119496210D01*
X149114027Y-119467849D01*
X149213966Y-119440598D01*
X149314554Y-119416920D01*
X149405677Y-119399278D01*
X149449091Y-119392917D01*
X149513576Y-119385020D01*
X149513784Y-119754696D01*
G37*
G36*
X147169869Y-116586056D02*
G01*
X147297768Y-116620796D01*
X147414410Y-116679487D01*
X147516083Y-116757616D01*
X147610697Y-116861290D01*
X147682056Y-116977953D01*
X147729147Y-117105448D01*
X147750957Y-117241620D01*
X147751884Y-117259881D01*
X147755532Y-117354876D01*
X147836986Y-117364918D01*
X147982001Y-117393909D01*
X148109419Y-117442647D01*
X148218519Y-117510577D01*
X148308580Y-117597146D01*
X148378881Y-117701800D01*
X148427018Y-117818467D01*
X148450324Y-117893790D01*
X148549303Y-117900128D01*
X148660594Y-117915897D01*
X148754115Y-117948901D01*
X148834522Y-118001069D01*
X148868773Y-118032419D01*
X148923356Y-118101467D01*
X148957733Y-118175614D01*
X148971782Y-118250514D01*
X148965382Y-118321815D01*
X148938414Y-118385170D01*
X148890756Y-118436229D01*
X148880166Y-118443650D01*
X148873209Y-118447513D01*
X148863772Y-118450954D01*
X148850317Y-118454003D01*
X148831304Y-118456686D01*
X148805195Y-118459033D01*
X148770453Y-118461070D01*
X148725539Y-118462827D01*
X148668915Y-118464330D01*
X148599043Y-118465609D01*
X148514383Y-118466690D01*
X148413399Y-118467602D01*
X148294551Y-118468372D01*
X148156302Y-118469029D01*
X147997113Y-118469601D01*
X147815446Y-118470115D01*
X147609763Y-118470600D01*
X147378525Y-118471083D01*
X147369229Y-118471101D01*
X147137255Y-118471553D01*
X146930879Y-118471910D01*
X146748547Y-118472147D01*
X146588706Y-118472243D01*
X146449803Y-118472174D01*
X146330283Y-118471916D01*
X146228594Y-118471447D01*
X146143182Y-118470744D01*
X146072493Y-118469782D01*
X146014974Y-118468540D01*
X145969073Y-118466994D01*
X145933234Y-118465121D01*
X145905905Y-118462897D01*
X145885533Y-118460300D01*
X145870563Y-118457306D01*
X145859443Y-118453892D01*
X145850619Y-118450035D01*
X145847475Y-118448412D01*
X145794850Y-118411179D01*
X145740097Y-118357395D01*
X145691022Y-118295777D01*
X145655434Y-118235041D01*
X145654493Y-118232957D01*
X145633325Y-118164396D01*
X145621347Y-118076651D01*
X145620351Y-118060877D01*
X145626562Y-117939861D01*
X145628041Y-117934417D01*
X147331355Y-117934417D01*
X147344309Y-117961586D01*
X147365994Y-117985667D01*
X147404817Y-118015979D01*
X147442676Y-118024660D01*
X147484640Y-118011307D01*
X147535779Y-117975516D01*
X147540238Y-117971823D01*
X147605351Y-117923363D01*
X147667429Y-117892479D01*
X147737520Y-117874668D01*
X147795546Y-117867711D01*
X147849789Y-117861378D01*
X147885279Y-117851839D01*
X147910409Y-117836238D01*
X147922359Y-117824579D01*
X147945372Y-117790964D01*
X147948851Y-117754086D01*
X147947485Y-117744108D01*
X147934369Y-117697682D01*
X147909082Y-117668364D01*
X147864787Y-117648979D01*
X147853922Y-117645897D01*
X147777708Y-117636270D01*
X147694541Y-117644006D01*
X147609449Y-117666624D01*
X147527458Y-117701642D01*
X147453594Y-117746578D01*
X147392884Y-117798951D01*
X147350354Y-117856281D01*
X147332988Y-117903070D01*
X147331355Y-117934417D01*
X145628041Y-117934417D01*
X145657160Y-117827261D01*
X145710130Y-117725169D01*
X145783453Y-117635680D01*
X145875113Y-117560885D01*
X145983093Y-117502880D01*
X146105376Y-117463758D01*
X146211304Y-117447532D01*
X146309727Y-117439201D01*
X146309928Y-117322407D01*
X146319967Y-117177994D01*
X146350401Y-117049477D01*
X146402497Y-116933486D01*
X146477521Y-116826647D01*
X146509687Y-116790519D01*
X146609046Y-116701356D01*
X146717452Y-116636569D01*
X146837323Y-116595150D01*
X146971079Y-116576094D01*
X147028694Y-116574506D01*
X147169869Y-116586056D01*
G37*
G36*
X153295362Y-120269092D02*
G01*
X153313616Y-120279876D01*
X153323985Y-120305655D01*
X153325311Y-120310662D01*
X153337208Y-120340128D01*
X153359239Y-120358327D01*
X153396204Y-120371651D01*
X153434777Y-120381169D01*
X153458574Y-120380380D01*
X153478320Y-120368292D01*
X153483680Y-120363572D01*
X153512757Y-120346221D01*
X153542816Y-120350368D01*
X153579970Y-120376991D01*
X153582599Y-120379361D01*
X153605247Y-120412433D01*
X153606345Y-120435329D01*
X153610987Y-120465129D01*
X153637902Y-120504019D01*
X153647980Y-120515167D01*
X153679283Y-120545742D01*
X153703416Y-120559223D01*
X153729806Y-120560006D01*
X153740379Y-120558273D01*
X153772621Y-120555579D01*
X153790772Y-120567142D01*
X153800832Y-120585567D01*
X153815683Y-120633250D01*
X153809605Y-120669646D01*
X153797511Y-120686849D01*
X153788507Y-120713588D01*
X153790893Y-120753421D01*
X153802024Y-120797424D01*
X153819255Y-120836672D01*
X153839940Y-120862239D01*
X153850941Y-120867132D01*
X153869484Y-120875947D01*
X153879081Y-120900137D01*
X153882254Y-120927491D01*
X153883262Y-120963625D01*
X153875888Y-120981722D01*
X153855058Y-120990697D01*
X153844921Y-120993054D01*
X153812196Y-121007401D01*
X153803474Y-121027591D01*
X153797917Y-121058980D01*
X153787394Y-121088318D01*
X153778518Y-121119963D01*
X153787241Y-121150001D01*
X153792991Y-121160308D01*
X153806425Y-121189258D01*
X153805399Y-121215610D01*
X153795735Y-121242038D01*
X153783681Y-121267642D01*
X153770367Y-121278941D01*
X153748013Y-121277684D01*
X153708835Y-121265624D01*
X153701657Y-121263204D01*
X153684243Y-121268793D01*
X153656273Y-121288248D01*
X153643483Y-121299241D01*
X153612583Y-121333981D01*
X153602364Y-121365847D01*
X153602757Y-121376561D01*
X153600673Y-121403370D01*
X153583468Y-121423899D01*
X153556689Y-121440399D01*
X153524355Y-121456813D01*
X153505099Y-121460145D01*
X153488345Y-121450642D01*
X153478786Y-121442228D01*
X153455635Y-121426635D01*
X153428016Y-121423470D01*
X153393150Y-121429087D01*
X153351799Y-121442290D01*
X153332613Y-121461124D01*
X153330442Y-121468382D01*
X153314221Y-121509184D01*
X153284434Y-121526830D01*
X153240135Y-121521763D01*
X153226825Y-121517056D01*
X153202518Y-121496291D01*
X153192612Y-121475322D01*
X153180078Y-121452779D01*
X153150959Y-121436648D01*
X153122056Y-121428032D01*
X153083466Y-121419297D01*
X153062148Y-121419717D01*
X153049263Y-121431005D01*
X153041976Y-121443568D01*
X153025074Y-121467270D01*
X153004782Y-121473016D01*
X152974065Y-121461164D01*
X152951603Y-121448145D01*
X152920022Y-121422860D01*
X152907663Y-121392601D01*
X152906503Y-121376923D01*
X152896198Y-121338120D01*
X152871470Y-121302806D01*
X152839044Y-121276948D01*
X152805641Y-121266512D01*
X152786805Y-121270708D01*
X152757333Y-121282973D01*
X152737787Y-121277650D01*
X152720046Y-121251193D01*
X152714005Y-121238904D01*
X152700641Y-121207514D01*
X152700433Y-121189188D01*
X152713760Y-121173034D01*
X152716382Y-121170638D01*
X152729675Y-121156197D01*
X152734032Y-121139644D01*
X152729670Y-121112714D01*
X152718921Y-121074304D01*
X152704006Y-121030492D01*
X152689754Y-121007703D01*
X152672239Y-121000197D01*
X152668099Y-121000026D01*
X152640598Y-120988270D01*
X152630951Y-120969455D01*
X152622585Y-120921529D01*
X152624037Y-120915636D01*
X152920612Y-120915636D01*
X152934020Y-120997306D01*
X152964982Y-121064886D01*
X153028600Y-121138339D01*
X153105454Y-121189906D01*
X153191434Y-121218587D01*
X153282433Y-121223387D01*
X153374339Y-121203307D01*
X153430144Y-121177830D01*
X153495630Y-121127438D01*
X153547128Y-121060258D01*
X153581375Y-120982969D01*
X153595105Y-120902248D01*
X153591031Y-120848663D01*
X153560678Y-120761393D01*
X153504742Y-120682711D01*
X153472242Y-120651077D01*
X153394952Y-120599486D01*
X153311097Y-120571825D01*
X153225116Y-120567227D01*
X153141444Y-120584829D01*
X153064521Y-120623767D01*
X152998783Y-120683175D01*
X152953494Y-120752133D01*
X152927001Y-120831121D01*
X152920612Y-120915636D01*
X152624037Y-120915636D01*
X152630139Y-120890878D01*
X152655518Y-120871524D01*
X152663121Y-120868399D01*
X152693340Y-120849817D01*
X152703848Y-120829054D01*
X152708355Y-120800010D01*
X152719271Y-120762454D01*
X152719973Y-120760488D01*
X152728966Y-120727066D01*
X152723632Y-120704321D01*
X152711266Y-120688456D01*
X152696164Y-120668044D01*
X152694034Y-120647387D01*
X152704107Y-120614941D01*
X152706024Y-120609904D01*
X152722202Y-120576137D01*
X152741435Y-120561570D01*
X152766726Y-120558792D01*
X152812445Y-120546965D01*
X152857035Y-120516551D01*
X152892192Y-120475149D01*
X152909618Y-120430361D01*
X152909923Y-120427682D01*
X152918907Y-120392822D01*
X152942803Y-120369115D01*
X152961244Y-120358865D01*
X152992923Y-120344562D01*
X153012253Y-120343393D01*
X153030749Y-120355546D01*
X153035910Y-120360079D01*
X153057832Y-120375159D01*
X153082126Y-120377340D01*
X153117046Y-120368963D01*
X153158642Y-120352322D01*
X153182865Y-120327712D01*
X153197953Y-120290673D01*
X153212057Y-120273933D01*
X153244438Y-120267289D01*
X153259635Y-120266916D01*
X153295362Y-120269092D01*
G37*
G36*
X152791828Y-118829811D02*
G01*
X152812634Y-118838808D01*
X152824861Y-118859781D01*
X152827593Y-118867276D01*
X152846133Y-118898180D01*
X152879547Y-118913643D01*
X152887786Y-118915371D01*
X152926500Y-118917926D01*
X152956982Y-118912233D01*
X152958201Y-118911638D01*
X152975646Y-118905166D01*
X152994871Y-118906445D01*
X153022010Y-118917516D01*
X153063194Y-118940416D01*
X153086608Y-118954323D01*
X153121848Y-118978962D01*
X153141712Y-119000119D01*
X153143825Y-119009482D01*
X153147084Y-119033809D01*
X153171098Y-119056098D01*
X153209532Y-119072469D01*
X153256053Y-119079043D01*
X153257405Y-119079049D01*
X153296339Y-119080900D01*
X153317238Y-119089552D01*
X153329132Y-119109647D01*
X153331875Y-119117352D01*
X153337554Y-119149311D01*
X153325372Y-119175523D01*
X153315050Y-119187336D01*
X153295639Y-119211563D01*
X153294507Y-119230698D01*
X153305294Y-119250850D01*
X153323015Y-119285673D01*
X153339814Y-119328598D01*
X153341443Y-119333592D01*
X153358989Y-119371152D01*
X153381035Y-119384406D01*
X153383424Y-119384500D01*
X153407724Y-119395476D01*
X153421061Y-119422644D01*
X153423455Y-119457364D01*
X153414923Y-119490996D01*
X153395483Y-119514900D01*
X153383135Y-119520193D01*
X153358208Y-119533116D01*
X153343324Y-119562130D01*
X153338742Y-119580777D01*
X153328151Y-119619261D01*
X153315908Y-119647323D01*
X153313481Y-119650756D01*
X153308607Y-119670701D01*
X153323292Y-119700334D01*
X153328890Y-119708173D01*
X153347702Y-119735998D01*
X153350849Y-119755877D01*
X153339053Y-119781510D01*
X153333282Y-119791397D01*
X153312801Y-119819949D01*
X153291487Y-119829043D01*
X153268063Y-119826504D01*
X153237918Y-119825334D01*
X153210264Y-119838515D01*
X153183215Y-119862136D01*
X153155793Y-119894414D01*
X153139630Y-119924431D01*
X153137839Y-119933582D01*
X153124250Y-119961211D01*
X153084754Y-119993234D01*
X153074243Y-119999835D01*
X153034223Y-120021972D01*
X153007041Y-120029862D01*
X152983919Y-120025686D01*
X152978865Y-120023529D01*
X152950962Y-120015622D01*
X152915737Y-120016759D01*
X152865118Y-120027415D01*
X152851403Y-120031006D01*
X152833170Y-120047387D01*
X152821197Y-120077259D01*
X152812761Y-120103911D01*
X152795811Y-120115179D01*
X152761884Y-120117376D01*
X152724742Y-120114764D01*
X152699236Y-120108597D01*
X152696784Y-120107195D01*
X152681388Y-120088111D01*
X152667446Y-120061899D01*
X152651746Y-120038432D01*
X152625159Y-120024961D01*
X152587675Y-120017765D01*
X152539049Y-120015110D01*
X152508210Y-120021959D01*
X152505298Y-120023968D01*
X152482833Y-120027156D01*
X152450206Y-120015811D01*
X152415495Y-119995150D01*
X152386774Y-119970394D01*
X152372121Y-119946760D01*
X152372236Y-119937981D01*
X152368272Y-119911527D01*
X152346388Y-119873661D01*
X152336340Y-119860476D01*
X152309955Y-119829154D01*
X152292013Y-119815839D01*
X152274330Y-119817075D01*
X152255052Y-119826122D01*
X152230213Y-119837075D01*
X152213978Y-119834046D01*
X152197160Y-119813161D01*
X152187370Y-119797579D01*
X152157609Y-119749425D01*
X152185849Y-119719366D01*
X152200974Y-119701777D01*
X152207132Y-119685403D01*
X152204581Y-119661935D01*
X152193580Y-119623067D01*
X152189288Y-119609153D01*
X152168727Y-119555225D01*
X152147240Y-119525273D01*
X152135504Y-119518278D01*
X152116809Y-119506079D01*
X152108286Y-119482375D01*
X152107808Y-119472788D01*
X152391609Y-119472788D01*
X152404468Y-119556516D01*
X152440314Y-119636876D01*
X152495051Y-119708572D01*
X152564586Y-119766307D01*
X152644821Y-119804785D01*
X152649458Y-119806236D01*
X152705541Y-119815695D01*
X152774799Y-119816790D01*
X152844721Y-119809965D01*
X152897780Y-119797450D01*
X152962417Y-119764152D01*
X153024718Y-119712506D01*
X153076025Y-119650570D01*
X153098405Y-119610780D01*
X153122597Y-119526262D01*
X153123580Y-119436794D01*
X153102780Y-119348837D01*
X153061624Y-119268852D01*
X153009988Y-119210443D01*
X152956654Y-119167533D01*
X152908730Y-119140475D01*
X152856776Y-119125873D01*
X152791351Y-119120333D01*
X152758151Y-119119893D01*
X152697812Y-119120911D01*
X152655377Y-119125390D01*
X152621639Y-119135244D01*
X152587396Y-119152387D01*
X152579273Y-119157095D01*
X152503198Y-119216082D01*
X152444424Y-119291084D01*
X152406169Y-119376684D01*
X152391655Y-119467467D01*
X152391609Y-119472788D01*
X152107808Y-119472788D01*
X152106521Y-119446972D01*
X152108478Y-119408526D01*
X152116632Y-119389490D01*
X152134407Y-119382262D01*
X152135772Y-119382051D01*
X152161031Y-119367404D01*
X152180874Y-119329674D01*
X152183033Y-119323410D01*
X152198100Y-119282564D01*
X152212863Y-119249419D01*
X152215799Y-119244050D01*
X152222700Y-119218079D01*
X152209265Y-119195466D01*
X152190007Y-119160869D01*
X152196052Y-119124522D01*
X152213531Y-119098010D01*
X152235584Y-119076766D01*
X152257523Y-119075735D01*
X152271730Y-119081323D01*
X152298473Y-119088549D01*
X152322866Y-119079081D01*
X152339860Y-119065672D01*
X152365768Y-119037411D01*
X152379971Y-119010721D01*
X152380215Y-119009583D01*
X152393604Y-118988515D01*
X152423149Y-118960631D01*
X152451795Y-118939348D01*
X152490542Y-118914871D01*
X152514405Y-118904949D01*
X152530038Y-118907604D01*
X152537652Y-118913822D01*
X152566134Y-118925263D01*
X152604458Y-118921096D01*
X152643033Y-118904670D01*
X152672263Y-118879333D01*
X152680521Y-118863941D01*
X152691436Y-118841296D01*
X152710022Y-118830773D01*
X152745226Y-118827937D01*
X152753200Y-118827900D01*
X152791828Y-118829811D01*
G37*
G36*
X149897087Y-118995516D02*
G01*
X149967900Y-119000812D01*
X150037140Y-119008032D01*
X150095280Y-119016082D01*
X150123710Y-119021497D01*
X150197607Y-119038615D01*
X150235587Y-119147074D01*
X150280130Y-119252244D01*
X150331158Y-119331169D01*
X150389076Y-119383955D01*
X150454290Y-119410705D01*
X150527205Y-119411524D01*
X150608227Y-119386517D01*
X150697762Y-119335788D01*
X150766878Y-119284087D01*
X150845725Y-119219865D01*
X150945477Y-119282038D01*
X151165111Y-119434877D01*
X151369355Y-119609819D01*
X151557287Y-119805992D01*
X151727608Y-120021994D01*
X151806189Y-120131925D01*
X151739072Y-120220600D01*
X151692987Y-120283563D01*
X151661080Y-120333397D01*
X151639540Y-120377308D01*
X151624554Y-120422501D01*
X151617914Y-120449668D01*
X151610684Y-120495713D01*
X151615126Y-120533227D01*
X151630008Y-120572441D01*
X151656309Y-120614410D01*
X151696923Y-120649976D01*
X151755161Y-120680949D01*
X151834331Y-120709141D01*
X151923538Y-120732987D01*
X151980037Y-120747542D01*
X152026641Y-120761341D01*
X152056929Y-120772389D01*
X152064523Y-120776786D01*
X152073461Y-120798567D01*
X152082866Y-120842618D01*
X152092219Y-120904077D01*
X152101003Y-120978082D01*
X152108701Y-121059770D01*
X152114793Y-121144277D01*
X152118763Y-121226742D01*
X152120096Y-121298617D01*
X152118533Y-121376090D01*
X152114210Y-121462689D01*
X152107681Y-121552744D01*
X152099498Y-121640584D01*
X152090212Y-121720540D01*
X152080376Y-121786941D01*
X152070542Y-121834116D01*
X152066772Y-121846227D01*
X152055305Y-121861442D01*
X152030063Y-121875512D01*
X151986547Y-121890385D01*
X151928824Y-121905866D01*
X151863297Y-121923902D01*
X151798635Y-121944353D01*
X151745613Y-121963729D01*
X151730763Y-121970080D01*
X151668509Y-122010569D01*
X151629668Y-122063737D01*
X151614224Y-122128547D01*
X151622157Y-122203959D01*
X151653452Y-122288935D01*
X151708091Y-122382436D01*
X151738374Y-122424499D01*
X151766476Y-122462786D01*
X151786550Y-122492485D01*
X151794281Y-122507205D01*
X151794281Y-122507241D01*
X151786233Y-122523247D01*
X151764276Y-122555977D01*
X151731690Y-122601136D01*
X151691752Y-122654431D01*
X151647744Y-122711567D01*
X151602945Y-122768252D01*
X151560633Y-122820190D01*
X151524089Y-122863087D01*
X151513365Y-122875065D01*
X151320225Y-123067203D01*
X151110430Y-123238550D01*
X151023183Y-123300265D01*
X150848434Y-123418740D01*
X150759096Y-123351119D01*
X150695437Y-123308204D01*
X150627570Y-123271209D01*
X150562707Y-123243456D01*
X150508064Y-123228262D01*
X150488010Y-123226403D01*
X150430268Y-123239006D01*
X150372581Y-123273820D01*
X150319911Y-123326352D01*
X150277221Y-123392109D01*
X150259380Y-123433431D01*
X150241205Y-123484340D01*
X150023328Y-123483479D01*
X149946918Y-123482440D01*
X149878231Y-123480133D01*
X149822691Y-123476845D01*
X149785721Y-123472863D01*
X149774907Y-123470341D01*
X149759148Y-123461560D01*
X149749975Y-123446686D01*
X149745640Y-123419250D01*
X149744395Y-123372781D01*
X149744361Y-123357281D01*
X149744536Y-123310376D01*
X149748059Y-123278669D01*
X149759426Y-123258636D01*
X149783135Y-123246752D01*
X149823682Y-123239494D01*
X149885565Y-123233337D01*
X149904779Y-123231568D01*
X149946841Y-123227823D01*
X149975722Y-123222793D01*
X149994356Y-123211943D01*
X150005679Y-123190739D01*
X150012627Y-123154646D01*
X150018136Y-123099131D01*
X150022384Y-123049920D01*
X150029890Y-122970539D01*
X150036667Y-122914443D01*
X150043598Y-122877815D01*
X150051570Y-122856838D01*
X150061467Y-122847693D01*
X150069585Y-122846285D01*
X150094031Y-122841890D01*
X150137840Y-122830029D01*
X150194924Y-122812692D01*
X150259193Y-122791867D01*
X150324559Y-122769542D01*
X150384934Y-122747705D01*
X150434227Y-122728346D01*
X150445455Y-122723534D01*
X150515283Y-122692786D01*
X150655021Y-122809326D01*
X150722247Y-122865283D01*
X150772356Y-122905520D01*
X150809277Y-122931470D01*
X150836936Y-122944569D01*
X150859264Y-122946251D01*
X150880186Y-122937951D01*
X150903633Y-122921103D01*
X150921561Y-122906671D01*
X150952898Y-122879593D01*
X150998651Y-122837629D01*
X151054134Y-122785191D01*
X151114666Y-122726691D01*
X151160557Y-122681496D01*
X151223446Y-122618452D01*
X151268885Y-122571251D01*
X151299154Y-122537084D01*
X151316534Y-122513142D01*
X151323306Y-122496616D01*
X151321751Y-122484698D01*
X151321221Y-122483642D01*
X151307647Y-122464545D01*
X151279805Y-122429691D01*
X151241441Y-122383636D01*
X151196301Y-122330936D01*
X151184528Y-122317407D01*
X151139751Y-122265475D01*
X151102232Y-122220739D01*
X151075228Y-122187175D01*
X151061995Y-122168761D01*
X151061197Y-122166784D01*
X151066368Y-122151245D01*
X151080362Y-122116450D01*
X151100905Y-122067917D01*
X151120344Y-122023317D01*
X151148968Y-121956168D01*
X151176879Y-121886851D01*
X151199887Y-121825937D01*
X151208774Y-121800330D01*
X151238056Y-121711456D01*
X151465260Y-121663529D01*
X151692464Y-121615603D01*
X151701012Y-121494466D01*
X151703404Y-121443364D01*
X151704583Y-121379680D01*
X151704666Y-121308752D01*
X151703767Y-121235918D01*
X151702002Y-121166514D01*
X151699487Y-121105880D01*
X151696338Y-121059352D01*
X151692669Y-121032269D01*
X151690907Y-121027873D01*
X151676272Y-121023149D01*
X151639557Y-121013890D01*
X151585250Y-121001155D01*
X151517838Y-120986003D01*
X151460822Y-120973571D01*
X151236786Y-120925334D01*
X151198422Y-120816729D01*
X151172214Y-120747546D01*
X151140549Y-120671024D01*
X151110627Y-120604479D01*
X151087973Y-120555320D01*
X151070783Y-120514860D01*
X151061854Y-120489805D01*
X151061197Y-120486020D01*
X151069524Y-120470880D01*
X151092433Y-120439193D01*
X151126821Y-120395014D01*
X151169581Y-120342396D01*
X151189796Y-120318153D01*
X151235273Y-120262958D01*
X151273739Y-120214235D01*
X151302068Y-120176100D01*
X151317139Y-120152672D01*
X151318765Y-120148170D01*
X151309441Y-120131006D01*
X151283341Y-120098946D01*
X151243841Y-120055295D01*
X151194312Y-120003356D01*
X151138129Y-119946435D01*
X151078665Y-119887835D01*
X151019294Y-119830859D01*
X150963389Y-119778813D01*
X150914324Y-119735001D01*
X150875473Y-119702725D01*
X150850209Y-119685291D01*
X150843979Y-119683164D01*
X150831051Y-119691374D01*
X150801069Y-119714026D01*
X150757817Y-119748157D01*
X150705078Y-119790800D01*
X150672425Y-119817611D01*
X150509564Y-119952058D01*
X150415445Y-119907330D01*
X150359694Y-119883097D01*
X150289420Y-119855756D01*
X150216189Y-119829711D01*
X150183419Y-119818975D01*
X150130952Y-119802837D01*
X150092832Y-119789808D01*
X150066353Y-119775511D01*
X150048807Y-119755569D01*
X150037489Y-119725603D01*
X150029689Y-119681237D01*
X150022703Y-119618093D01*
X150015489Y-119547408D01*
X150008454Y-119487797D01*
X150001253Y-119438579D01*
X149994857Y-119405815D01*
X149991188Y-119395702D01*
X149975320Y-119390532D01*
X149940292Y-119383191D01*
X149893878Y-119374953D01*
X149843849Y-119367090D01*
X149797979Y-119360874D01*
X149764041Y-119357579D01*
X149756955Y-119357349D01*
X149752216Y-119344524D01*
X149748342Y-119309037D01*
X149745637Y-119255375D01*
X149744404Y-119188020D01*
X149744361Y-119172001D01*
X149744361Y-118986654D01*
X149897087Y-118995516D01*
G37*
G36*
X156450722Y-121000000D02*
G01*
X156450722Y-127950722D01*
X149500000Y-127950722D01*
X142549279Y-127950722D01*
X142549279Y-126035979D01*
X150815077Y-126035979D01*
X150818886Y-126076335D01*
X150837594Y-126111401D01*
X150868313Y-126135763D01*
X150908158Y-126144003D01*
X150954135Y-126130762D01*
X150985447Y-126100719D01*
X150998160Y-126059742D01*
X150993008Y-126015956D01*
X150970726Y-125977490D01*
X150938216Y-125954772D01*
X150904796Y-125945465D01*
X150876888Y-125953088D01*
X150863701Y-125961070D01*
X150829053Y-125995752D01*
X150815077Y-126035979D01*
X142549279Y-126035979D01*
X142549279Y-125918221D01*
X147547949Y-125918221D01*
X147551187Y-125952732D01*
X147576299Y-125988113D01*
X147584792Y-125996875D01*
X147625140Y-126027854D01*
X147662842Y-126033658D01*
X147703780Y-126014483D01*
X147720551Y-126001412D01*
X147754310Y-125959277D01*
X147761849Y-125913939D01*
X147742971Y-125868852D01*
X147728998Y-125852670D01*
X147684688Y-125824056D01*
X147637892Y-125819374D01*
X147595187Y-125837746D01*
X147564971Y-125874621D01*
X147547949Y-125918221D01*
X142549279Y-125918221D01*
X142549279Y-125508301D01*
X146449703Y-125508301D01*
X146451550Y-125517973D01*
X146472651Y-125563290D01*
X146506374Y-125591202D01*
X146546191Y-125599682D01*
X146585575Y-125586703D01*
X146607406Y-125566368D01*
X146631527Y-125523184D01*
X146629875Y-125484434D01*
X146602248Y-125445428D01*
X146602221Y-125445401D01*
X146561902Y-125417567D01*
X146522311Y-125416664D01*
X146481610Y-125442711D01*
X146477505Y-125446701D01*
X146453597Y-125477832D01*
X146449703Y-125508301D01*
X142549279Y-125508301D01*
X142549279Y-124740719D01*
X145585120Y-124740719D01*
X145597287Y-124792066D01*
X145627630Y-124828633D01*
X145676711Y-124852326D01*
X145730839Y-124849637D01*
X145765731Y-124835617D01*
X145804604Y-124802436D01*
X145822039Y-124758118D01*
X145817515Y-124708841D01*
X145790512Y-124660778D01*
X145781322Y-124650800D01*
X145734135Y-124618866D01*
X145685384Y-124611533D01*
X145640605Y-124627818D01*
X145605331Y-124666739D01*
X145597092Y-124683485D01*
X145585120Y-124740719D01*
X142549279Y-124740719D01*
X142549279Y-123432637D01*
X145223677Y-123432637D01*
X145235029Y-123487732D01*
X145266246Y-123528315D01*
X145313070Y-123549897D01*
X145337101Y-123552218D01*
X145362150Y-123548398D01*
X145409288Y-123537618D01*
X145474652Y-123520902D01*
X145554381Y-123499273D01*
X145644612Y-123473753D01*
X145741482Y-123445366D01*
X145748381Y-123443307D01*
X145846450Y-123413864D01*
X145938786Y-123385878D01*
X146021361Y-123360591D01*
X146090146Y-123339244D01*
X146141112Y-123323079D01*
X146170231Y-123313337D01*
X146170866Y-123313105D01*
X146221905Y-123283408D01*
X146255089Y-123241790D01*
X146268526Y-123194100D01*
X146260325Y-123146190D01*
X146236231Y-123110945D01*
X146218924Y-123094737D01*
X146201417Y-123082710D01*
X146180854Y-123075278D01*
X146154375Y-123072856D01*
X146119122Y-123075859D01*
X146072238Y-123084702D01*
X146010864Y-123099798D01*
X145932143Y-123121563D01*
X145833215Y-123150411D01*
X145711223Y-123186757D01*
X145708947Y-123187438D01*
X145583736Y-123225086D01*
X145482129Y-123256379D01*
X145401667Y-123282560D01*
X145339886Y-123304874D01*
X145294327Y-123324563D01*
X145262527Y-123342872D01*
X145242026Y-123361044D01*
X145230361Y-123380322D01*
X145225073Y-123401952D01*
X145223699Y-123427175D01*
X145223677Y-123432637D01*
X142549279Y-123432637D01*
X142549279Y-121325067D01*
X144656034Y-121325067D01*
X144663618Y-121549086D01*
X144681081Y-121759632D01*
X144709008Y-121962828D01*
X144747984Y-122164794D01*
X144770652Y-122262533D01*
X144799014Y-122372759D01*
X144830045Y-122482671D01*
X144862613Y-122589143D01*
X144895584Y-122689049D01*
X144927826Y-122779265D01*
X144958208Y-122856664D01*
X144985597Y-122918120D01*
X145008861Y-122960509D01*
X145026868Y-122980703D01*
X145031254Y-122981969D01*
X145051763Y-122978183D01*
X145093050Y-122967809D01*
X145149944Y-122952237D01*
X145217270Y-122932860D01*
X145250828Y-122922899D01*
X145447675Y-122863902D01*
X145451362Y-122603944D01*
X145455049Y-122343987D01*
X145257909Y-122343987D01*
X145180113Y-122343116D01*
X145119244Y-122340645D01*
X145078522Y-122336791D01*
X145061165Y-122331768D01*
X145060770Y-122330806D01*
X145069084Y-122316644D01*
X145092191Y-122285295D01*
X145127336Y-122240289D01*
X145171764Y-122185157D01*
X145220283Y-122126350D01*
X145271276Y-122064836D01*
X145316005Y-122010175D01*
X145351633Y-121965895D01*
X145375320Y-121935521D01*
X145384176Y-121922761D01*
X145373287Y-121917619D01*
X145340406Y-121912837D01*
X145290691Y-121908961D01*
X145232274Y-121906613D01*
X145075993Y-121902779D01*
X145200744Y-121748534D01*
X145250239Y-121687296D01*
X145298313Y-121627742D01*
X145340127Y-121575873D01*
X145370840Y-121537689D01*
X145375945Y-121531324D01*
X145426396Y-121468359D01*
X145284310Y-121464506D01*
X145225897Y-121462324D01*
X145179134Y-121459440D01*
X145149637Y-121456272D01*
X145142223Y-121453934D01*
X145149810Y-121441145D01*
X145170636Y-121410658D01*
X145201801Y-121366609D01*
X145240405Y-121313134D01*
X145254222Y-121294207D01*
X145307910Y-121219806D01*
X145367742Y-121135204D01*
X145425852Y-121051605D01*
X145468039Y-120989671D01*
X145505938Y-120934001D01*
X145538569Y-120887450D01*
X145562941Y-120854182D01*
X145576065Y-120838359D01*
X145577235Y-120837617D01*
X145587377Y-120847918D01*
X145609290Y-120876268D01*
X145639617Y-120918171D01*
X145670585Y-120962667D01*
X145710662Y-121020653D01*
X145760942Y-121092578D01*
X145815744Y-121170357D01*
X145869388Y-121245909D01*
X145883810Y-121266098D01*
X145926779Y-121326646D01*
X145963551Y-121379402D01*
X145991462Y-121420469D01*
X146007851Y-121445951D01*
X146011064Y-121452303D01*
X145998423Y-121456068D01*
X145964235Y-121459734D01*
X145914103Y-121462823D01*
X145868195Y-121464506D01*
X145725327Y-121468359D01*
X145901753Y-121678781D01*
X145955266Y-121743046D01*
X146002289Y-121800358D01*
X146040196Y-121847447D01*
X146066360Y-121881042D01*
X146078155Y-121897872D01*
X146078561Y-121898968D01*
X146066014Y-121903036D01*
X146031553Y-121906941D01*
X145980409Y-121910244D01*
X145917819Y-121912507D01*
X145916303Y-121912543D01*
X145753664Y-121916355D01*
X145922894Y-122119989D01*
X145975119Y-122183319D01*
X146020822Y-122239671D01*
X146057344Y-122285690D01*
X146082023Y-122318017D01*
X146092201Y-122333296D01*
X146092321Y-122333805D01*
X146079599Y-122337348D01*
X146044414Y-122340355D01*
X145991452Y-122342591D01*
X145925400Y-122343822D01*
X145888883Y-122343987D01*
X145685249Y-122343987D01*
X145685249Y-122561197D01*
X145685747Y-122634537D01*
X145687123Y-122697299D01*
X145689201Y-122744941D01*
X145691804Y-122772919D01*
X145693687Y-122778407D01*
X145708721Y-122775062D01*
X145746078Y-122765700D01*
X145801857Y-122751328D01*
X145872155Y-122732958D01*
X145953070Y-122711597D01*
X145988957Y-122702062D01*
X146087300Y-122676440D01*
X146190023Y-122650640D01*
X146289590Y-122626487D01*
X146378466Y-122605808D01*
X146449113Y-122590430D01*
X146452272Y-122589784D01*
X146628755Y-122553852D01*
X146628755Y-122011105D01*
X146628755Y-121468359D01*
X146340273Y-121468603D01*
X146255077Y-121468315D01*
X146179858Y-121467373D01*
X146118557Y-121465882D01*
X146075118Y-121463950D01*
X146053483Y-121461682D01*
X146051791Y-121460814D01*
X146060477Y-121448908D01*
X146084902Y-121419673D01*
X146122610Y-121375935D01*
X146171149Y-121320521D01*
X146228063Y-121256257D01*
X146275788Y-121202814D01*
X146337444Y-121133741D01*
X146392608Y-121071424D01*
X146438829Y-121018675D01*
X146473654Y-120978308D01*
X146494631Y-120953134D01*
X146499803Y-120945878D01*
X146487008Y-120943759D01*
X146451686Y-120942466D01*
X146398449Y-120942054D01*
X146331911Y-120942579D01*
X146289381Y-120943328D01*
X146217296Y-120944160D01*
X146155866Y-120943569D01*
X146109701Y-120941705D01*
X146083409Y-120938715D01*
X146079080Y-120936540D01*
X146087980Y-120924002D01*
X146113016Y-120894292D01*
X146151803Y-120850092D01*
X146201961Y-120794087D01*
X146261104Y-120728959D01*
X146326851Y-120657392D01*
X146330150Y-120653822D01*
X146396139Y-120582064D01*
X146455638Y-120516679D01*
X146506269Y-120460337D01*
X146545649Y-120415710D01*
X146571399Y-120385471D01*
X146581137Y-120372290D01*
X146581161Y-120372127D01*
X146568408Y-120368537D01*
X146533264Y-120365501D01*
X146480485Y-120363266D01*
X146414828Y-120362075D01*
X146383344Y-120361946D01*
X146185448Y-120361946D01*
X146245473Y-120277098D01*
X146344106Y-120138174D01*
X146434630Y-120011669D01*
X146516085Y-119898879D01*
X146587514Y-119801100D01*
X146647957Y-119719628D01*
X146696458Y-119655758D01*
X146732056Y-119610787D01*
X146753795Y-119586009D01*
X146760040Y-119581347D01*
X146772079Y-119591943D01*
X146797452Y-119621745D01*
X146833843Y-119667770D01*
X146878936Y-119727038D01*
X146930413Y-119796567D01*
X146973977Y-119856659D01*
X147034253Y-119940412D01*
X147094640Y-120024067D01*
X147151622Y-120102771D01*
X147201682Y-120171668D01*
X147241303Y-120225906D01*
X147256799Y-120246958D01*
X147341818Y-120361946D01*
X147129682Y-120361946D01*
X146917546Y-120361946D01*
X147085390Y-120540196D01*
X147181116Y-120642125D01*
X147259322Y-120726037D01*
X147321353Y-120793441D01*
X147368555Y-120845845D01*
X147402274Y-120884758D01*
X147423854Y-120911690D01*
X147434642Y-120928149D01*
X147436505Y-120933935D01*
X147426850Y-120939601D01*
X147396660Y-120942667D01*
X147344093Y-120943178D01*
X147267306Y-120941176D01*
X147215901Y-120939099D01*
X146995297Y-120929408D01*
X147049395Y-120988461D01*
X147080793Y-121022313D01*
X147124824Y-121069230D01*
X147175331Y-121122674D01*
X147220039Y-121169695D01*
X147298252Y-121252481D01*
X147364242Y-121323949D01*
X147416497Y-121382388D01*
X147453505Y-121426085D01*
X147473755Y-121453324D01*
X147477231Y-121461106D01*
X147464316Y-121463993D01*
X147428181Y-121465933D01*
X147372742Y-121466877D01*
X147301917Y-121466775D01*
X147219621Y-121465577D01*
X147185355Y-121464804D01*
X146893479Y-121457581D01*
X146893479Y-121980294D01*
X146893479Y-122503007D01*
X147168386Y-122510967D01*
X147307119Y-122516676D01*
X147425210Y-122525680D01*
X147529065Y-122538931D01*
X147625093Y-122557378D01*
X147719700Y-122581974D01*
X147786447Y-122602681D01*
X147884470Y-122640501D01*
X147993918Y-122692338D01*
X148106390Y-122753662D01*
X148213482Y-122819944D01*
X148291769Y-122875104D01*
X148412962Y-122964054D01*
X148517028Y-123034582D01*
X148605693Y-123087805D01*
X148673011Y-123121505D01*
X148812397Y-123175326D01*
X148960852Y-123218724D01*
X149109901Y-123249773D01*
X149251072Y-123266547D01*
X149321612Y-123268991D01*
X149382391Y-123269536D01*
X149422624Y-123272197D01*
X149448902Y-123278311D01*
X149467818Y-123289215D01*
X149481125Y-123301324D01*
X149508466Y-123344563D01*
X149509671Y-123390743D01*
X149489197Y-123429985D01*
X149476829Y-123442993D01*
X149461280Y-123451513D01*
X149437144Y-123456400D01*
X149399013Y-123458506D01*
X149341480Y-123458685D01*
X149309320Y-123458382D01*
X149105181Y-123448589D01*
X148919758Y-123423365D01*
X148748857Y-123381851D01*
X148588285Y-123323187D01*
X148537499Y-123300226D01*
X148480514Y-123271733D01*
X148426063Y-123240804D01*
X148369487Y-123204274D01*
X148306128Y-123158981D01*
X148231327Y-123101759D01*
X148149225Y-123036523D01*
X148007866Y-122937742D01*
X147861891Y-122864205D01*
X147712903Y-122816157D01*
X147562508Y-122793841D01*
X147412310Y-122797501D01*
X147263912Y-122827381D01*
X147125035Y-122880768D01*
X147056006Y-122920785D01*
X146983061Y-122974594D01*
X146913824Y-123035610D01*
X146855922Y-123097244D01*
X146823946Y-123140839D01*
X146796236Y-123185676D01*
X146656006Y-123185676D01*
X146592971Y-123185927D01*
X146550982Y-123187650D01*
X146523935Y-123192299D01*
X146505725Y-123201328D01*
X146490247Y-123216190D01*
X146480630Y-123227445D01*
X146451495Y-123278685D01*
X146449185Y-123330059D01*
X146473728Y-123379710D01*
X146478217Y-123385160D01*
X146510950Y-123423250D01*
X146740878Y-123427512D01*
X146970807Y-123431774D01*
X147026693Y-123337704D01*
X147090100Y-123246412D01*
X147159254Y-123178140D01*
X147229854Y-123132955D01*
X147349762Y-123086725D01*
X147475900Y-123065670D01*
X147604297Y-123069801D01*
X147730982Y-123099129D01*
X147809534Y-123131228D01*
X147841974Y-123150102D01*
X147890047Y-123182091D01*
X147948206Y-123223325D01*
X148010904Y-123269933D01*
X148037006Y-123289984D01*
X148163280Y-123384149D01*
X148278174Y-123460710D01*
X148387819Y-123522811D01*
X148498350Y-123573597D01*
X148615897Y-123616212D01*
X148746553Y-123653791D01*
X148817912Y-123671088D01*
X148890043Y-123685812D01*
X148965997Y-123698215D01*
X149048822Y-123708549D01*
X149141568Y-123717065D01*
X149247284Y-123724016D01*
X149369019Y-123729653D01*
X149509823Y-123734228D01*
X149672746Y-123737993D01*
X149791876Y-123740124D01*
X149931318Y-123742436D01*
X150046311Y-123744506D01*
X150139553Y-123746508D01*
X150213745Y-123748615D01*
X150271584Y-123751002D01*
X150315770Y-123753842D01*
X150349002Y-123757309D01*
X150373978Y-123761576D01*
X150393398Y-123766819D01*
X150409961Y-123773209D01*
X150426365Y-123780921D01*
X150426500Y-123780988D01*
X150501542Y-123831980D01*
X150562601Y-123901872D01*
X150603790Y-123983647D01*
X150608211Y-123997600D01*
X150620996Y-124085390D01*
X150608461Y-124167638D01*
X150572334Y-124241184D01*
X150514340Y-124302869D01*
X150436208Y-124349533D01*
X150410322Y-124359702D01*
X150373129Y-124367520D01*
X150314502Y-124373587D01*
X150240107Y-124377845D01*
X150155608Y-124380236D01*
X150066671Y-124380705D01*
X149978960Y-124379193D01*
X149898140Y-124375644D01*
X149829877Y-124370001D01*
X149799012Y-124365866D01*
X149680264Y-124336485D01*
X149562065Y-124288998D01*
X149459273Y-124229938D01*
X149384607Y-124178473D01*
X148651523Y-124164041D01*
X148458672Y-124160215D01*
X148290950Y-124156791D01*
X148146340Y-124153671D01*
X148022825Y-124150760D01*
X147918386Y-124147961D01*
X147831008Y-124145181D01*
X147758671Y-124142321D01*
X147699359Y-124139287D01*
X147651054Y-124135983D01*
X147611739Y-124132313D01*
X147579396Y-124128182D01*
X147552008Y-124123492D01*
X147527558Y-124118149D01*
X147504028Y-124112057D01*
X147493134Y-124109026D01*
X147378514Y-124068717D01*
X150097328Y-124068717D01*
X150109380Y-124128157D01*
X150141692Y-124176793D01*
X150188498Y-124211320D01*
X150244031Y-124228433D01*
X150302526Y-124224826D01*
X150341431Y-124208629D01*
X150377366Y-124175513D01*
X150406710Y-124128049D01*
X150422248Y-124078803D01*
X150423143Y-124066289D01*
X150413220Y-124019515D01*
X150388057Y-123971542D01*
X150354564Y-123934191D01*
X150340533Y-123924950D01*
X150277933Y-123905645D01*
X150217571Y-123909875D01*
X150164532Y-123934633D01*
X150123900Y-123976912D01*
X150100761Y-124033709D01*
X150097328Y-124068717D01*
X147378514Y-124068717D01*
X147360733Y-124062464D01*
X147250130Y-124002502D01*
X147158273Y-123926686D01*
X147082114Y-123832562D01*
X147025799Y-123732938D01*
X146968145Y-123613308D01*
X146735199Y-123609599D01*
X146502253Y-123605890D01*
X146473868Y-123641975D01*
X146449539Y-123692073D01*
X146449398Y-123743999D01*
X146471809Y-123791190D01*
X146515136Y-123827086D01*
X146520688Y-123829864D01*
X146569431Y-123843564D01*
X146641955Y-123850267D01*
X146678321Y-123850914D01*
X146791662Y-123850946D01*
X146830480Y-123925237D01*
X146876959Y-123998210D01*
X146940298Y-124075600D01*
X147013153Y-124149518D01*
X147088180Y-124212074D01*
X147114653Y-124230520D01*
X147210426Y-124284292D01*
X147321600Y-124332258D01*
X147436452Y-124369783D01*
X147510274Y-124386899D01*
X147549978Y-124393263D01*
X147598002Y-124398904D01*
X147656389Y-124403901D01*
X147727184Y-124408334D01*
X147812432Y-124412282D01*
X147914177Y-124415825D01*
X148034463Y-124419042D01*
X148175336Y-124422013D01*
X148338840Y-124424817D01*
X148527019Y-124427534D01*
X148570070Y-124428103D01*
X148694709Y-124429876D01*
X148813204Y-124431839D01*
X148922289Y-124433920D01*
X149018695Y-124436042D01*
X149099157Y-124438132D01*
X149160407Y-124440116D01*
X149199179Y-124441919D01*
X149208124Y-124442620D01*
X149263226Y-124455100D01*
X149335803Y-124482112D01*
X149411758Y-124517180D01*
X149483625Y-124551675D01*
X149548023Y-124579002D01*
X149609585Y-124599978D01*
X149672947Y-124615419D01*
X149742743Y-124626139D01*
X149823607Y-124632956D01*
X149920175Y-124636683D01*
X150037080Y-124638138D01*
X150099750Y-124638268D01*
X150437220Y-124638268D01*
X150582907Y-124591586D01*
X150656442Y-124568649D01*
X150744362Y-124542174D01*
X150834831Y-124515682D01*
X150905078Y-124495730D01*
X150982024Y-124473436D01*
X151037852Y-124454810D01*
X151077941Y-124437590D01*
X151107669Y-124419515D01*
X151129075Y-124401536D01*
X151156360Y-124378177D01*
X151201112Y-124342627D01*
X151258638Y-124298385D01*
X151324247Y-124248952D01*
X151393249Y-124197827D01*
X151460951Y-124148510D01*
X151522663Y-124104500D01*
X151573692Y-124069299D01*
X151580583Y-124064698D01*
X151647615Y-124034167D01*
X151719003Y-124025117D01*
X151788752Y-124036203D01*
X151850869Y-124066080D01*
X151899361Y-124113401D01*
X151915031Y-124139802D01*
X151939647Y-124209545D01*
X151941009Y-124272096D01*
X151918156Y-124330057D01*
X151870127Y-124386031D01*
X151805501Y-124436234D01*
X151765706Y-124464086D01*
X151709955Y-124504237D01*
X151643907Y-124552555D01*
X151573221Y-124604908D01*
X151522943Y-124642548D01*
X151456754Y-124691606D01*
X151395146Y-124735908D01*
X151342522Y-124772392D01*
X151303281Y-124797998D01*
X151283720Y-124808931D01*
X151247324Y-124822907D01*
X151187769Y-124843710D01*
X151107926Y-124870448D01*
X151010666Y-124902228D01*
X150898861Y-124938157D01*
X150775382Y-124977344D01*
X150643100Y-125018894D01*
X150504888Y-125061917D01*
X150363615Y-125105518D01*
X150222154Y-125148807D01*
X150083375Y-125190889D01*
X149950151Y-125230874D01*
X149825352Y-125267867D01*
X149711851Y-125300977D01*
X149612517Y-125329311D01*
X149583998Y-125337277D01*
X149403271Y-125387444D01*
X149292122Y-125357663D01*
X149255142Y-125347114D01*
X149195685Y-125329357D01*
X149117142Y-125305436D01*
X149022902Y-125276398D01*
X148916353Y-125243291D01*
X148800886Y-125207160D01*
X148679890Y-125169052D01*
X148624372Y-125151484D01*
X148504038Y-125113378D01*
X148389458Y-125077152D01*
X148283722Y-125043778D01*
X148189917Y-125014229D01*
X148111132Y-124989476D01*
X148050454Y-124970492D01*
X148010971Y-124958249D01*
X147999893Y-124954885D01*
X147974044Y-124947022D01*
X147924964Y-124931927D01*
X147855349Y-124910436D01*
X147767894Y-124883382D01*
X147665294Y-124851600D01*
X147550243Y-124815924D01*
X147425437Y-124777190D01*
X147293571Y-124736231D01*
X147239658Y-124719476D01*
X146995158Y-124643596D01*
X146776117Y-124575871D01*
X146582138Y-124516180D01*
X146412819Y-124464403D01*
X146267761Y-124420420D01*
X146146566Y-124384110D01*
X146048832Y-124355354D01*
X145974161Y-124334032D01*
X145922153Y-124320023D01*
X145892408Y-124313206D01*
X145886068Y-124312453D01*
X145865574Y-124317999D01*
X145861732Y-124324447D01*
X145871290Y-124338468D01*
X145897809Y-124367551D01*
X145938054Y-124408606D01*
X145988793Y-124458545D01*
X146046791Y-124514280D01*
X146108816Y-124572723D01*
X146171633Y-124630785D01*
X146232008Y-124685378D01*
X146286709Y-124733414D01*
X146315678Y-124757986D01*
X146568233Y-124957461D01*
X146819247Y-125132952D01*
X147073197Y-125286950D01*
X147334557Y-125421945D01*
X147607804Y-125540431D01*
X147897414Y-125644897D01*
X147925227Y-125653953D01*
X148128304Y-125715178D01*
X148326841Y-125765663D01*
X148529583Y-125807290D01*
X148745272Y-125841941D01*
X148882309Y-125859895D01*
X149016288Y-125872339D01*
X149169614Y-125880097D01*
X149334901Y-125883245D01*
X149504766Y-125881860D01*
X149671826Y-125876021D01*
X149828695Y-125865804D01*
X149967990Y-125851288D01*
X149990298Y-125848271D01*
X150266605Y-125802765D01*
X150528144Y-125745360D01*
X150784157Y-125673602D01*
X151043887Y-125585037D01*
X151183378Y-125531569D01*
X151192678Y-125527472D01*
X151889311Y-125527472D01*
X151900677Y-125580557D01*
X151930611Y-125620276D01*
X151972865Y-125644269D01*
X152021191Y-125650178D01*
X152069341Y-125635645D01*
X152103127Y-125608183D01*
X152130103Y-125559308D01*
X152132019Y-125506588D01*
X152109188Y-125455841D01*
X152093989Y-125438186D01*
X152052395Y-125407105D01*
X152010157Y-125400496D01*
X151960144Y-125417363D01*
X151956917Y-125419007D01*
X151912342Y-125454101D01*
X151891390Y-125502030D01*
X151889311Y-125527472D01*
X151192678Y-125527472D01*
X151511841Y-125386861D01*
X151826701Y-125218892D01*
X152127132Y-125028359D01*
X152412308Y-124815959D01*
X152413147Y-124815231D01*
X152826322Y-124815231D01*
X152839906Y-124851882D01*
X152867351Y-124879685D01*
X152904478Y-124893571D01*
X152947109Y-124888468D01*
X152972340Y-124875072D01*
X152996903Y-124843592D01*
X153002805Y-124803146D01*
X152992590Y-124761726D01*
X152968805Y-124727321D01*
X152933994Y-124707922D01*
X152918539Y-124706146D01*
X152887650Y-124715161D01*
X152857449Y-124735664D01*
X152830777Y-124774802D01*
X152826322Y-124815231D01*
X152413147Y-124815231D01*
X152681403Y-124582386D01*
X152933591Y-124328339D01*
X153168045Y-124054514D01*
X153364997Y-123787306D01*
X153874473Y-123787306D01*
X153876247Y-123837698D01*
X153904617Y-123885894D01*
X153911035Y-123892653D01*
X153953056Y-123923907D01*
X153995740Y-123930309D01*
X154046081Y-123912878D01*
X154046864Y-123912474D01*
X154084966Y-123879331D01*
X154102452Y-123834085D01*
X154098283Y-123783446D01*
X154074001Y-123737320D01*
X154048755Y-123713173D01*
X154016604Y-123702993D01*
X153986745Y-123701550D01*
X153943860Y-123705333D01*
X153915544Y-123719941D01*
X153899489Y-123737320D01*
X153874473Y-123787306D01*
X153364997Y-123787306D01*
X153383940Y-123761606D01*
X153506963Y-123572582D01*
X153667602Y-123287849D01*
X153806309Y-122987434D01*
X153922893Y-122671917D01*
X154017161Y-122341883D01*
X154088922Y-121997912D01*
X154135380Y-121665206D01*
X154143368Y-121567677D01*
X154148731Y-121451528D01*
X154151562Y-121322276D01*
X154151952Y-121185439D01*
X154149991Y-121046532D01*
X154145771Y-120911074D01*
X154139382Y-120784581D01*
X154130915Y-120672570D01*
X154120462Y-120580559D01*
X154117136Y-120558792D01*
X154044858Y-120201958D01*
X153946889Y-119852040D01*
X153824042Y-119510593D01*
X153677133Y-119179169D01*
X153654851Y-119137285D01*
X153937889Y-119137285D01*
X153947884Y-119185840D01*
X153969776Y-119217871D01*
X154019881Y-119249424D01*
X154071320Y-119254006D01*
X154122326Y-119231618D01*
X154139471Y-119217666D01*
X154164857Y-119177685D01*
X154170717Y-119128534D01*
X154157211Y-119079743D01*
X154136694Y-119051280D01*
X154092232Y-119024075D01*
X154040440Y-119017772D01*
X153990963Y-119032591D01*
X153970651Y-119047476D01*
X153945496Y-119087626D01*
X153937889Y-119137285D01*
X153654851Y-119137285D01*
X153506977Y-118859322D01*
X153314387Y-118552606D01*
X153100180Y-118260573D01*
X152898442Y-118023825D01*
X153193067Y-118023825D01*
X153197725Y-118065472D01*
X153222921Y-118102832D01*
X153228341Y-118107406D01*
X153259963Y-118129190D01*
X153284268Y-118133771D01*
X153313446Y-118122832D01*
X153319038Y-118119935D01*
X153352289Y-118096116D01*
X153366626Y-118064551D01*
X153368846Y-118034794D01*
X153357755Y-117987361D01*
X153326389Y-117956355D01*
X153279478Y-117945484D01*
X153236227Y-117956599D01*
X153206662Y-117985124D01*
X153193067Y-118023825D01*
X152898442Y-118023825D01*
X152865169Y-117984778D01*
X152653293Y-117767770D01*
X152546499Y-117667057D01*
X152457846Y-117588024D01*
X152905062Y-117588024D01*
X152911591Y-117630272D01*
X152940487Y-117669811D01*
X152941635Y-117670811D01*
X152985358Y-117693501D01*
X153030524Y-117691730D01*
X153066103Y-117669684D01*
X153088739Y-117630883D01*
X153089703Y-117588371D01*
X153072162Y-117549400D01*
X153039283Y-117521225D01*
X152996843Y-117511064D01*
X152949970Y-117521816D01*
X152918615Y-117549671D01*
X152905062Y-117588024D01*
X152457846Y-117588024D01*
X152449082Y-117580211D01*
X152352848Y-117500401D01*
X152249600Y-117420800D01*
X152147248Y-117346083D01*
X151899596Y-117182338D01*
X151631041Y-117029949D01*
X151346136Y-116890826D01*
X151049433Y-116766881D01*
X150978487Y-116741939D01*
X151977552Y-116741939D01*
X152041182Y-116758335D01*
X152148730Y-116797084D01*
X152235980Y-116853212D01*
X152303883Y-116927764D01*
X152353390Y-117021788D01*
X152385453Y-117136330D01*
X152385658Y-117137421D01*
X152395367Y-117189175D01*
X152433049Y-117076867D01*
X152455727Y-117016948D01*
X152481800Y-116959566D01*
X152506343Y-116915355D01*
X152510941Y-116908602D01*
X152569733Y-116846737D01*
X152646624Y-116795369D01*
X152732993Y-116760163D01*
X152739674Y-116758316D01*
X152773310Y-116747237D01*
X152788161Y-116737818D01*
X152785302Y-116733683D01*
X152715073Y-116708363D01*
X152663941Y-116686596D01*
X152624809Y-116664793D01*
X152590579Y-116639367D01*
X152578939Y-116629385D01*
X152510074Y-116551142D01*
X152455306Y-116450414D01*
X152424769Y-116363923D01*
X152401227Y-116282469D01*
X152378516Y-116363923D01*
X152338160Y-116474494D01*
X152283361Y-116563723D01*
X152211280Y-116634560D01*
X152119078Y-116689956D01*
X152031855Y-116724183D01*
X151977552Y-116741939D01*
X150978487Y-116741939D01*
X150745485Y-116660024D01*
X150438844Y-116572166D01*
X150151630Y-116508500D01*
X150028139Y-116487219D01*
X149907064Y-116470939D01*
X149782302Y-116459179D01*
X149647749Y-116451462D01*
X149497298Y-116447308D01*
X149357456Y-116446226D01*
X149242325Y-116446489D01*
X149148658Y-116447721D01*
X149070775Y-116450246D01*
X149002997Y-116454389D01*
X148939642Y-116460477D01*
X148875033Y-116468835D01*
X148821219Y-116476965D01*
X148560057Y-116524318D01*
X148316779Y-116580999D01*
X148095346Y-116646077D01*
X148078565Y-116651661D01*
X147896510Y-116712814D01*
X147850344Y-116660549D01*
X147823941Y-116629145D01*
X147806962Y-116606052D01*
X147803612Y-116599205D01*
X147792342Y-116583425D01*
X147762857Y-116556694D01*
X147719938Y-116522498D01*
X147668367Y-116484321D01*
X147612923Y-116445649D01*
X147558387Y-116409967D01*
X147509541Y-116380761D01*
X147488773Y-116369688D01*
X147362775Y-116315567D01*
X147290623Y-116296045D01*
X151183378Y-116296045D01*
X151195212Y-116329914D01*
X151230019Y-116350484D01*
X151284303Y-116357135D01*
X151315910Y-116358911D01*
X151329496Y-116369605D01*
X151332658Y-116397264D01*
X151332710Y-116408417D01*
X151339483Y-116454737D01*
X151356954Y-116493389D01*
X151380852Y-116516625D01*
X151394257Y-116520043D01*
X151414897Y-116509633D01*
X151435948Y-116485841D01*
X151452334Y-116437448D01*
X151450690Y-116404387D01*
X151443022Y-116357135D01*
X151501155Y-116357135D01*
X151553686Y-116349922D01*
X151582082Y-116331947D01*
X151597782Y-116300328D01*
X151589773Y-116271366D01*
X151561476Y-116248781D01*
X151516312Y-116236293D01*
X151492886Y-116234955D01*
X151463831Y-116233078D01*
X151450671Y-116222231D01*
X151446672Y-116194591D01*
X151446222Y-116180749D01*
X151437475Y-116127209D01*
X151415349Y-116094947D01*
X151385828Y-116085623D01*
X151357803Y-116098036D01*
X151339560Y-116133138D01*
X151332723Y-116187721D01*
X151332710Y-116190609D01*
X151331354Y-116224416D01*
X151322644Y-116238210D01*
X151299615Y-116239128D01*
X151286741Y-116237712D01*
X151235566Y-116239777D01*
X151199774Y-116257701D01*
X151183805Y-116288977D01*
X151183378Y-116296045D01*
X147290623Y-116296045D01*
X147236781Y-116281477D01*
X147102869Y-116265792D01*
X146981721Y-116265516D01*
X146897729Y-116270237D01*
X146831369Y-116277824D01*
X146773153Y-116289788D01*
X146713596Y-116307642D01*
X146710208Y-116308786D01*
X146610938Y-116345704D01*
X146528655Y-116384946D01*
X146455133Y-116431675D01*
X146382146Y-116491054D01*
X146309255Y-116560438D01*
X146207692Y-116672831D01*
X146129615Y-116785355D01*
X146071926Y-116903671D01*
X146031531Y-117033441D01*
X146019446Y-117090219D01*
X146009238Y-117138281D01*
X145999207Y-117165665D01*
X145985996Y-117178612D01*
X145969595Y-117182951D01*
X145943552Y-117190506D01*
X145900095Y-117207247D01*
X145846177Y-117230382D01*
X145808973Y-117247450D01*
X145748098Y-117277699D01*
X145699113Y-117306878D01*
X145654008Y-117340815D01*
X145604776Y-117385336D01*
X145563258Y-117426231D01*
X145465538Y-117537529D01*
X145392026Y-117652487D01*
X145339828Y-117776413D01*
X145310616Y-117889902D01*
X145297235Y-118027457D01*
X145309556Y-118167933D01*
X145346902Y-118307815D01*
X145408598Y-118443587D01*
X145421293Y-118465724D01*
X145444923Y-118507163D01*
X145461732Y-118539476D01*
X145468039Y-118555522D01*
X145461172Y-118570141D01*
X145442207Y-118603541D01*
X145413593Y-118651579D01*
X145377783Y-118710114D01*
X145353164Y-118749664D01*
X145185589Y-119040832D01*
X145040705Y-119343558D01*
X144917701Y-119659825D01*
X144815768Y-119991611D01*
X144770193Y-120173631D01*
X144734211Y-120338536D01*
X144706460Y-120490040D01*
X144685883Y-120636668D01*
X144671426Y-120786942D01*
X144662032Y-120949388D01*
X144657743Y-121081454D01*
X144656034Y-121325067D01*
X142549279Y-121325067D01*
X142549279Y-121000000D01*
X142549279Y-118719295D01*
X144789257Y-118719295D01*
X144799071Y-118747868D01*
X144823162Y-118781107D01*
X144853502Y-118810303D01*
X144882063Y-118826751D01*
X144889391Y-118827900D01*
X144917130Y-118822470D01*
X144943821Y-118812563D01*
X144980808Y-118782204D01*
X144999627Y-118738116D01*
X144996863Y-118689362D01*
X144993621Y-118680329D01*
X144964491Y-118641442D01*
X144920643Y-118616125D01*
X144889391Y-118610690D01*
X144863046Y-118621334D01*
X144832400Y-118647463D01*
X144805481Y-118680369D01*
X144790317Y-118711346D01*
X144789257Y-118719295D01*
X142549279Y-118719295D01*
X142549279Y-116116350D01*
X149255639Y-116116350D01*
X149260949Y-116167568D01*
X149280695Y-116204648D01*
X149320598Y-116238049D01*
X149323144Y-116239756D01*
X149375325Y-116260027D01*
X149431161Y-116253545D01*
X149468933Y-116235421D01*
X149507378Y-116197632D01*
X149527418Y-116147538D01*
X149528468Y-116093248D01*
X149509943Y-116042871D01*
X149484895Y-116014178D01*
X149431999Y-115985074D01*
X149377661Y-115979011D01*
X149327422Y-115993517D01*
X149286827Y-116026124D01*
X149261419Y-116074359D01*
X149255639Y-116116350D01*
X142549279Y-116116350D01*
X142549279Y-114049279D01*
X149500000Y-114049279D01*
X156450722Y-114049279D01*
X156450722Y-121000000D01*
G37*
%TO.C,S2*%
D11*
X129250000Y-170600000D02*
X129250000Y-168400000D01*
X135750000Y-166500000D02*
X129250000Y-166500000D01*
X135750000Y-170600000D02*
X135750000Y-168400000D01*
X135750000Y-172500000D02*
X129250000Y-172500000D01*
X138247000Y-172383000D02*
G75*
G02*
X138025000Y-172383000I-111000J0D01*
G01*
X138025000Y-172383000D02*
G75*
G02*
X138247000Y-172383000I111000J0D01*
G01*
%TO.C,J2*%
D14*
X134130000Y-106670000D02*
X135460000Y-106670000D01*
X134130000Y-108000000D02*
X134130000Y-106670000D01*
X136730000Y-106670000D02*
X144410000Y-106670000D01*
X136730000Y-109330000D02*
X136730000Y-106670000D01*
X136730000Y-109330000D02*
X144410000Y-109330000D01*
X144410000Y-109330000D02*
X144410000Y-106670000D01*
%TO.C,R2*%
X130685436Y-165735000D02*
X131139564Y-165735000D01*
X130685436Y-164265000D02*
X131139564Y-164265000D01*
%TO.C,R3*%
X147265000Y-157685436D02*
X147265000Y-158139564D01*
X148735000Y-157685436D02*
X148735000Y-158139564D01*
%TD*%
M02*
